<?xml version="1.0" encoding="UTF-8" standalone="no"?>
<svg
   xmlns:dc="http://purl.org/dc/elements/1.1/"
   xmlns:cc="http://creativecommons.org/ns#"
   xmlns:rdf="http://www.w3.org/1999/02/22-rdf-syntax-ns#"
   xmlns:svg="http://www.w3.org/2000/svg"
   xmlns="http://www.w3.org/2000/svg"
   xmlns:sodipodi="http://sodipodi.sourceforge.net/DTD/sodipodi-0.dtd"
   xmlns:inkscape="http://www.inkscape.org/namespaces/inkscape"
   width="48"
   height="48"
   viewBox="0 0 12.69984 12.69984"
   version="1.1"
   id="svg8"
   inkscape:export-filename="C:\Users\phils\Documents\Unity\basic_graphics\terrain\semicircledown.png"
   inkscape:export-xdpi="96.000008"
   inkscape:export-ydpi="96.000008"
   inkscape:version="1.0.1 (3bc2e813f5, 2020-09-07)"
   sodipodi:docname="code-copy.svg">
  <defs
     id="defs2">
    <marker
       style="overflow:visible;"
       id="Arrow2Lend"
       refX="0.0"
       refY="0.0"
       orient="auto"
       inkscape:stockid="Arrow2Lend"
       inkscape:isstock="true">
      <path
         transform="scale(1.1) rotate(180) translate(1,0)"
         d="M 8.7185878,4.0337352 L -2.2072895,0.016013256 L 8.7185884,-4.0017078 C 6.9730900,-1.6296469 6.9831476,1.6157441 8.7185878,4.0337352 z "
         style="fill-rule:evenodd;stroke-width:0.625;stroke-linejoin:round;stroke:#000000;stroke-opacity:1;fill:#000000;fill-opacity:1"
         id="path4530" />
    </marker>
    <marker
       style="overflow:visible;"
       id="Arrow1Lend"
       refX="0.0"
       refY="0.0"
       orient="auto"
       inkscape:stockid="Arrow1Lend"
       inkscape:isstock="true">
      <path
         transform="scale(0.8) rotate(180) translate(12.5,0)"
         style="fill-rule:evenodd;stroke:#000000;stroke-width:1pt;stroke-opacity:1;fill:#000000;fill-opacity:1"
         d="M 0.0,0.0 L 5.0,-5.0 L -12.5,0.0 L 5.0,5.0 L 0.0,0.0 z "
         id="path4512" />
    </marker>
  </defs>
  <sodipodi:namedview
     id="base"
     pagecolor="#ffffff"
     bordercolor="#666666"
     borderopacity="1.0"
     inkscape:pageopacity="0.0"
     inkscape:pageshadow="2"
     inkscape:zoom="11.313709"
     inkscape:cx="27.678871"
     inkscape:cy="22.133018"
     inkscape:document-units="px"
     inkscape:current-layer="layer3"
     inkscape:document-rotation="0"
     showgrid="true"
     units="px"
     inkscape:pagecheckerboard="true"
     borderlayer="true"
     inkscape:showpageshadow="false"
     inkscape:window-width="1920"
     inkscape:window-height="1051"
     inkscape:window-x="-9"
     inkscape:window-y="4"
     inkscape:window-maximized="1"
     guidetolerance="20">
    <inkscape:grid
       type="xygrid"
       id="grid833"
       spacingx="0.26458"
       spacingy="0.26458"
       empspacing="4"
       dotted="false" />
  </sodipodi:namedview>
  <metadata
     id="metadata5">
    <rdf:RDF>
      <cc:Work
         rdf:about="">
        <dc:format>image/svg+xml</dc:format>
        <dc:type
           rdf:resource="http://purl.org/dc/dcmitype/StillImage" />
        <dc:title></dc:title>
      </cc:Work>
    </rdf:RDF>
  </metadata>
  <g
     inkscape:groupmode="layer"
     id="layer2"
     inkscape:label="Box"
     style="display:inline"
     sodipodi:insensitive="true" />
  <g
     inkscape:groupmode="layer"
     id="layer3"
     inkscape:label="Letter">
    <path
       style="color:#000000;font-style:normal;font-variant:normal;font-weight:normal;font-stretch:normal;font-size:medium;line-height:normal;font-family:sans-serif;font-variant-ligatures:normal;font-variant-position:normal;font-variant-caps:normal;font-variant-numeric:normal;font-variant-alternates:normal;font-variant-east-asian:normal;font-feature-settings:normal;font-variation-settings:normal;text-indent:0;text-align:start;text-decoration:none;text-decoration-line:none;text-decoration-style:solid;text-decoration-color:#000000;letter-spacing:normal;word-spacing:normal;text-transform:none;writing-mode:lr-tb;direction:ltr;text-orientation:mixed;dominant-baseline:auto;baseline-shift:baseline;text-anchor:start;white-space:normal;shape-padding:0;shape-margin:0;inline-size:0;clip-rule:nonzero;display:inline;overflow:visible;visibility:visible;opacity:1;isolation:auto;mix-blend-mode:normal;color-interpolation:sRGB;color-interpolation-filters:linearRGB;solid-color:#000000;solid-opacity:1;vector-effect:none;fill:#000000;fill-opacity:1;fill-rule:evenodd;stroke:none;stroke-width:1.05832;stroke-linecap:round;stroke-linejoin:round;stroke-miterlimit:4;stroke-dasharray:2.11664, 2.11664;stroke-dashoffset:0;stroke-opacity:1;color-rendering:auto;image-rendering:auto;shape-rendering:auto;text-rendering:auto;enable-background:accumulate;stop-color:#000000;stop-opacity:1"
       d="M 0.7936032,0.2643063 A 0.52916003,0.52916003 0 0 0 0.6725094,0.2799313 0.52916003,0.52916003 0 0 0 0.33852502,0.526025 0.52916003,0.52916003 0 0 0 0.2740719,0.6979 0.52916003,0.52916003 0 0 0 0.2662594,0.7584469 0.52916003,0.52916003 0 0 0 0.26430628,0.7936031 V 2.9107908 A 0.52916003,0.52916003 0 0 0 0.7936032,3.4400876 0.52916003,0.52916003 0 0 0 1.3229,2.9107908 V 1.3229 H 2.9107908 A 0.52916003,0.52916003 0 0 0 3.4400876,0.7936031 0.52916003,0.52916003 0 0 0 2.9107908,0.2643063 Z m 4.234375,0 A 0.52916003,0.52916003 0 0 0 4.4986814,0.7936031 0.52916003,0.52916003 0 0 0 5.0279782,1.3229 H 7.1451656 A 0.52916003,0.52916003 0 0 0 7.6725095,0.7936031 0.52916003,0.52916003 0 0 0 7.1451656,0.2643063 Z m 4.232422,0 A 0.52916003,0.52916003 0 0 0 8.7311034,0.7936031 0.52916003,0.52916003 0 0 0 9.2604002,1.3229 H 11.377587 A 0.52916003,0.52916003 0 0 0 11.906884,0.7936031 0.52916003,0.52916003 0 0 0 11.377587,0.2643063 Z M 11.906884,1.852197 a 0.52916003,0.52916003 0 0 0 -0.529297,0.5292968 v 2.1171876 a 0.52916003,0.52916003 0 0 0 0.529297,0.5292968 0.52916003,0.52916003 0 0 0 0.529297,-0.5292968 V 2.3814938 A 0.52916003,0.52916003 0 0 0 11.906884,1.852197 Z M 0.7936032,4.4986814 A 0.52916003,0.52916003 0 0 0 0.26430628,5.0279782 v 2.117187 A 0.52916003,0.52916003 0 0 0 0.7936032,7.6725092 0.52916003,0.52916003 0 0 0 1.3229,7.1451652 V 5.0279782 A 0.52916003,0.52916003 0 0 0 0.7936032,4.4986814 Z M 11.906884,6.086572 a 0.52916003,0.52916003 0 0 0 -0.529297,0.5292968 v 2.1152344 a 0.52916003,0.52916003 0 0 0 0.529297,0.529297 0.52916003,0.52916003 0 0 0 0.529297,-0.529297 V 6.6158688 A 0.52916003,0.52916003 0 0 0 11.906884,6.086572 Z M 0.7936032,8.7311032 A 0.52916003,0.52916003 0 0 0 0.26430628,9.2604002 V 11.377587 A 0.52916003,0.52916003 0 0 0 0.7936032,11.906884 0.52916003,0.52916003 0 0 0 1.3229,11.377587 V 9.2604002 A 0.52916003,0.52916003 0 0 0 0.7936032,8.7311032 Z M 11.906884,10.318993 a 0.52916003,0.52916003 0 0 0 -0.529297,0.529297 v 0.529297 H 10.84829 a 0.52916003,0.52916003 0 0 0 -0.529297,0.529297 0.52916003,0.52916003 0 0 0 0.529297,0.529297 h 1.058594 a 0.52921294,0.52921294 0 0 0 0.529297,-0.529297 V 10.84829 A 0.52916003,0.52916003 0 0 0 11.906884,10.318993 Z M 2.3814938,11.377587 A 0.52916003,0.52916003 0 0 0 1.852197,11.906884 0.52916003,0.52916003 0 0 0 2.3814938,12.436181 H 4.4986814 A 0.52916003,0.52916003 0 0 0 5.0279782,11.906884 0.52916003,0.52916003 0 0 0 4.4986814,11.377587 Z m 4.234375,0 A 0.52916003,0.52916003 0 0 0 6.086572,11.906884 0.52916003,0.52916003 0 0 0 6.6158688,12.436181 H 8.7311034 A 0.52916003,0.52916003 0 0 0 9.2604002,11.906884 0.52916003,0.52916003 0 0 0 8.7311034,11.377587 Z"
       id="path2081" />
  </g>
  <g
     inkscape:groupmode="layer"
     id="layer4"
     inkscape:label="Code"
     style="display:inline">
    <path
       style="color:#000000;font-style:normal;font-variant:normal;font-weight:normal;font-stretch:normal;font-size:medium;line-height:normal;font-family:sans-serif;font-variant-ligatures:normal;font-variant-position:normal;font-variant-caps:normal;font-variant-numeric:normal;font-variant-alternates:normal;font-variant-east-asian:normal;font-feature-settings:normal;font-variation-settings:normal;text-indent:0;text-align:start;text-decoration:none;text-decoration-line:none;text-decoration-style:solid;text-decoration-color:#000000;letter-spacing:normal;word-spacing:normal;text-transform:none;writing-mode:lr-tb;direction:ltr;text-orientation:mixed;dominant-baseline:auto;baseline-shift:baseline;text-anchor:start;white-space:normal;shape-padding:0;shape-margin:0;inline-size:0;clip-rule:nonzero;display:inline;overflow:visible;visibility:visible;isolation:auto;mix-blend-mode:normal;color-interpolation:sRGB;color-interpolation-filters:linearRGB;solid-color:#000000;solid-opacity:1;vector-effect:none;fill:#000000;fill-opacity:1;fill-rule:nonzero;stroke:none;stroke-width:1.05832;stroke-linecap:round;stroke-linejoin:miter;stroke-miterlimit:4;stroke-dasharray:none;stroke-dashoffset:0;stroke-opacity:1;color-rendering:auto;image-rendering:auto;shape-rendering:auto;text-rendering:auto;enable-background:accumulate;stop-color:#000000;stop-opacity:1;opacity:1"
       d="M 4.4648438 4.234375 A 0.52916002 0.52916002 0 0 0 4.1542969 4.3613281 L 1.8320312 6.3496094 L 4.1542969 8.3398438 A 0.52916002 0.52916002 0 0 0 4.9003906 8.28125 A 0.52916002 0.52916002 0 0 0 4.8417969 7.5351562 L 3.4589844 6.3496094 L 4.8417969 5.1640625 A 0.52916002 0.52916002 0 0 0 4.9003906 4.4179688 A 0.52916002 0.52916002 0 0 0 4.4648438 4.234375 z "
       id="path8897" />
    <path
       style="color:#000000;font-style:normal;font-variant:normal;font-weight:normal;font-stretch:normal;font-size:medium;line-height:normal;font-family:sans-serif;font-variant-ligatures:normal;font-variant-position:normal;font-variant-caps:normal;font-variant-numeric:normal;font-variant-alternates:normal;font-variant-east-asian:normal;font-feature-settings:normal;font-variation-settings:normal;text-indent:0;text-align:start;text-decoration:none;text-decoration-line:none;text-decoration-style:solid;text-decoration-color:#000000;letter-spacing:normal;word-spacing:normal;text-transform:none;writing-mode:lr-tb;direction:ltr;text-orientation:mixed;dominant-baseline:auto;baseline-shift:baseline;text-anchor:start;white-space:normal;shape-padding:0;shape-margin:0;inline-size:0;clip-rule:nonzero;display:inline;overflow:visible;visibility:visible;isolation:auto;mix-blend-mode:normal;color-interpolation:sRGB;color-interpolation-filters:linearRGB;solid-color:#000000;solid-opacity:1;vector-effect:none;fill:#000000;fill-opacity:1;fill-rule:nonzero;stroke:none;stroke-width:1.05832;stroke-linecap:round;stroke-linejoin:miter;stroke-miterlimit:4;stroke-dasharray:none;stroke-dashoffset:0;stroke-opacity:1;color-rendering:auto;image-rendering:auto;shape-rendering:auto;text-rendering:auto;enable-background:accumulate;stop-color:#000000;stop-opacity:1;opacity:1"
       d="M 8.2089844 4.2324219 A 0.52916002 0.52916002 0 0 0 7.8007812 4.4179688 A 0.52916002 0.52916002 0 0 0 7.8574219 5.1640625 L 9.2402344 6.3496094 L 7.8574219 7.5351562 A 0.52916002 0.52916002 0 0 0 7.8007812 8.28125 A 0.52916002 0.52916002 0 0 0 8.546875 8.3398438 L 10.867188 6.3496094 L 8.546875 4.3613281 A 0.52916002 0.52916002 0 0 0 8.2089844 4.2324219 z "
       id="path8893" />
    <path
       style="color:#000000;font-style:normal;font-variant:normal;font-weight:normal;font-stretch:normal;font-size:medium;line-height:normal;font-family:sans-serif;font-variant-ligatures:normal;font-variant-position:normal;font-variant-caps:normal;font-variant-numeric:normal;font-variant-alternates:normal;font-variant-east-asian:normal;font-feature-settings:normal;font-variation-settings:normal;text-indent:0;text-align:start;text-decoration:none;text-decoration-line:none;text-decoration-style:solid;text-decoration-color:#000000;letter-spacing:normal;word-spacing:normal;text-transform:none;writing-mode:lr-tb;direction:ltr;text-orientation:mixed;dominant-baseline:auto;baseline-shift:baseline;text-anchor:start;white-space:normal;shape-padding:0;shape-margin:0;inline-size:0;clip-rule:nonzero;display:inline;overflow:visible;visibility:visible;isolation:auto;mix-blend-mode:normal;color-interpolation:sRGB;color-interpolation-filters:linearRGB;solid-color:#000000;solid-opacity:1;vector-effect:none;fill:#000000;fill-opacity:1;fill-rule:nonzero;stroke:none;stroke-width:1.05832;stroke-linecap:round;stroke-linejoin:miter;stroke-miterlimit:4;stroke-dasharray:none;stroke-dashoffset:0;stroke-opacity:1;color-rendering:auto;image-rendering:auto;shape-rendering:auto;text-rendering:auto;enable-background:accumulate;stop-color:#000000;stop-opacity:1;opacity:1"
       d="M 7.1152344 3.1757812 A 0.52916002 0.52916002 0 0 0 6.6367188 3.5527344 L 5.0488281 8.84375 A 0.52916002 0.52916002 0 0 0 5.4042969 9.5019531 A 0.52916002 0.52916002 0 0 0 6.0625 9.1484375 L 7.6503906 3.8554688 A 0.52916002 0.52916002 0 0 0 7.2949219 3.1972656 A 0.52916002 0.52916002 0 0 0 7.1152344 3.1757812 z "
       id="path8889" />
  </g>
</svg>
