<?xml version="1.0" encoding="UTF-8" standalone="no"?>
<svg
   xmlns:dc="http://purl.org/dc/elements/1.1/"
   xmlns:cc="http://creativecommons.org/ns#"
   xmlns:rdf="http://www.w3.org/1999/02/22-rdf-syntax-ns#"
   xmlns:svg="http://www.w3.org/2000/svg"
   xmlns="http://www.w3.org/2000/svg"
   xmlns:sodipodi="http://sodipodi.sourceforge.net/DTD/sodipodi-0.dtd"
   xmlns:inkscape="http://www.inkscape.org/namespaces/inkscape"
   width="48"
   height="48"
   viewBox="0 0 12.69984 12.69984"
   version="1.1"
   id="svg8"
   inkscape:export-filename="C:\Users\phils\Documents\Unity\basic_graphics\terrain\semicircledown.png"
   inkscape:export-xdpi="96.000008"
   inkscape:export-ydpi="96.000008"
   inkscape:version="1.0.1 (3bc2e813f5, 2020-09-07)"
   sodipodi:docname="ellipse.svg">
  <defs
     id="defs2" />
  <sodipodi:namedview
     id="base"
     pagecolor="#ffffff"
     bordercolor="#666666"
     borderopacity="1.0"
     inkscape:pageopacity="0.0"
     inkscape:pageshadow="2"
     inkscape:zoom="7.9999995"
     inkscape:cx="28.453457"
     inkscape:cy="13.220963"
     inkscape:document-units="px"
     inkscape:current-layer="layer1"
     inkscape:document-rotation="0"
     showgrid="true"
     units="px"
     inkscape:pagecheckerboard="true"
     borderlayer="true"
     inkscape:showpageshadow="false"
     inkscape:window-width="1920"
     inkscape:window-height="1051"
     inkscape:window-x="-9"
     inkscape:window-y="4"
     inkscape:window-maximized="1">
    <inkscape:grid
       type="xygrid"
       id="grid833"
       spacingx="0.26458"
       spacingy="0.26458"
       empspacing="4"
       dotted="false" />
  </sodipodi:namedview>
  <metadata
     id="metadata5">
    <rdf:RDF>
      <cc:Work
         rdf:about="">
        <dc:format>image/svg+xml</dc:format>
        <dc:type
           rdf:resource="http://purl.org/dc/dcmitype/StillImage" />
        <dc:title></dc:title>
      </cc:Work>
    </rdf:RDF>
  </metadata>
  <g
     inkscape:label="Layer 1"
     inkscape:groupmode="layer"
     id="layer1">
    <path
       style="color:#000000;font-style:normal;font-variant:normal;font-weight:normal;font-stretch:normal;font-size:medium;line-height:normal;font-family:sans-serif;font-variant-ligatures:normal;font-variant-position:normal;font-variant-caps:normal;font-variant-numeric:normal;font-variant-alternates:normal;font-variant-east-asian:normal;font-feature-settings:normal;font-variation-settings:normal;text-indent:0;text-align:start;text-decoration:none;text-decoration-line:none;text-decoration-style:solid;text-decoration-color:#000000;letter-spacing:normal;word-spacing:normal;text-transform:none;writing-mode:lr-tb;direction:ltr;text-orientation:mixed;dominant-baseline:auto;baseline-shift:baseline;text-anchor:start;white-space:normal;shape-padding:0;shape-margin:0;inline-size:0;clip-rule:nonzero;display:inline;overflow:visible;visibility:visible;isolation:auto;mix-blend-mode:normal;color-interpolation:sRGB;color-interpolation-filters:linearRGB;solid-color:#000000;solid-opacity:1;vector-effect:none;fill:#000000;fill-opacity:1;fill-rule:evenodd;stroke:none;stroke-width:1.05832;stroke-linecap:round;stroke-linejoin:round;stroke-miterlimit:4;stroke-dasharray:none;stroke-dashoffset:0;stroke-opacity:1;color-rendering:auto;image-rendering:auto;shape-rendering:auto;text-rendering:auto;enable-background:accumulate;stop-color:#000000;stop-opacity:1;opacity:1"
       d="M 6.3496094 1.3222656 C 3.5795306 1.3222656 1.3222656 3.5795306 1.3222656 6.3496094 C 1.3222655 9.1196882 3.5795305 11.376953 6.3496094 11.376953 C 9.1196883 11.376953 11.376953 9.1196883 11.376953 6.3496094 C 11.376953 3.5795305 9.1196882 1.3222655 6.3496094 1.3222656 z M 6.3496094 2.3808594 C 8.5477296 2.3808593 10.318359 4.1514891 10.318359 6.3496094 C 10.318359 8.5477297 8.5477297 10.318359 6.3496094 10.318359 C 4.1514891 10.318359 2.3808593 8.5477296 2.3808594 6.3496094 C 2.3808594 4.1514892 4.1514892 2.3808594 6.3496094 2.3808594 z "
       id="path1449" />
    <path
       style="color:#000000;font-style:normal;font-variant:normal;font-weight:normal;font-stretch:normal;font-size:medium;line-height:normal;font-family:sans-serif;font-variant-ligatures:normal;font-variant-position:normal;font-variant-caps:normal;font-variant-numeric:normal;font-variant-alternates:normal;font-variant-east-asian:normal;font-feature-settings:normal;font-variation-settings:normal;text-indent:0;text-align:start;text-decoration:none;text-decoration-line:none;text-decoration-style:solid;text-decoration-color:#000000;letter-spacing:normal;word-spacing:normal;text-transform:none;writing-mode:lr-tb;direction:ltr;text-orientation:mixed;dominant-baseline:auto;baseline-shift:baseline;text-anchor:start;white-space:normal;shape-padding:0;shape-margin:0;inline-size:0;clip-rule:nonzero;display:inline;overflow:visible;visibility:visible;isolation:auto;mix-blend-mode:normal;color-interpolation:sRGB;color-interpolation-filters:linearRGB;solid-color:#000000;solid-opacity:1;vector-effect:none;fill:#000000;fill-opacity:1;fill-rule:evenodd;stroke:none;stroke-width:1.05832;stroke-linecap:round;stroke-linejoin:round;stroke-miterlimit:4;stroke-dasharray:1.05832, 2.11663999999999985;stroke-dashoffset:1.05832;stroke-opacity:1;color-rendering:auto;image-rendering:auto;shape-rendering:auto;text-rendering:auto;enable-background:accumulate;stop-color:#000000;stop-opacity:1;opacity:1"
       d="M 2.6464844 0 A 0.52916002 0.52916002 0 0 0 2.1171875 0.52929688 A 0.52916002 0.52916002 0 0 0 2.6464844 1.0585938 L 3.7050781 1.0585938 A 0.52916002 0.52916002 0 0 0 4.2324219 0.52929688 A 0.52916002 0.52916002 0 0 0 3.7050781 0 L 2.6464844 0 z M 5.8203125 0 A 0.52916002 0.52916002 0 0 0 5.2910156 0.52929688 A 0.52916002 0.52916002 0 0 0 5.8203125 1.0585938 L 6.8789062 1.0585938 A 0.52916002 0.52916002 0 0 0 7.4082031 0.52929688 A 0.52916002 0.52916002 0 0 0 6.8789062 0 L 5.8203125 0 z M 8.9960938 0 A 0.52916002 0.52916002 0 0 0 8.4667969 0.52929688 A 0.52916002 0.52916002 0 0 0 8.9960938 1.0585938 L 10.054688 1.0585938 A 0.52916002 0.52916002 0 0 0 10.583984 0.52929688 A 0.52916002 0.52916002 0 0 0 10.054688 0 L 8.9960938 0 z M 12.169922 0 A 0.52916002 0.52916002 0 0 0 11.640625 0.52929688 L 11.640625 1.5878906 A 0.52916002 0.52916002 0 0 0 12.169922 2.1171875 A 0.52916002 0.52916002 0 0 0 12.699219 1.5878906 L 12.699219 0.52929688 A 0.52916002 0.52916002 0 0 0 12.169922 0 z M 0.52929688 2.1171875 A 0.52916002 0.52916002 0 0 0 0 2.6464844 L 0 3.7050781 A 0.52916002 0.52916002 0 0 0 0.52929688 4.2324219 A 0.52916002 0.52916002 0 0 0 1.0585938 3.7050781 L 1.0585938 2.6464844 A 0.52916002 0.52916002 0 0 0 0.52929688 2.1171875 z M 12.169922 3.1757812 A 0.52916002 0.52916002 0 0 0 11.640625 3.7050781 L 11.640625 4.7617188 A 0.52916002 0.52916002 0 0 0 12.169922 5.2910156 A 0.52916002 0.52916002 0 0 0 12.699219 4.7617188 L 12.699219 3.7050781 A 0.52916002 0.52916002 0 0 0 12.169922 3.1757812 z M 0.52929688 5.2910156 A 0.52916002 0.52916002 0 0 0 0 5.8203125 L 0 6.8789062 A 0.52916002 0.52916002 0 0 0 0.52929688 7.4082031 A 0.52916002 0.52916002 0 0 0 1.0585938 6.8789062 L 1.0585938 5.8203125 A 0.52916002 0.52916002 0 0 0 0.52929688 5.2910156 z M 12.169922 6.3496094 A 0.52916002 0.52916002 0 0 0 11.640625 6.8789062 L 11.640625 7.9375 A 0.52916002 0.52916002 0 0 0 12.169922 8.4667969 A 0.52916002 0.52916002 0 0 0 12.699219 7.9375 L 12.699219 6.8789062 A 0.52916002 0.52916002 0 0 0 12.169922 6.3496094 z M 0.52929688 8.4667969 A 0.52916002 0.52916002 0 0 0 0 8.9960938 L 0 10.054688 A 0.52916002 0.52916002 0 0 0 0.52929688 10.583984 A 0.52916002 0.52916002 0 0 0 1.0585938 10.054688 L 1.0585938 8.9960938 A 0.52916002 0.52916002 0 0 0 0.52929688 8.4667969 z M 12.169922 9.5253906 A 0.52916002 0.52916002 0 0 0 11.640625 10.054688 L 11.640625 11.113281 A 0.52916002 0.52916002 0 0 0 12.169922 11.640625 A 0.52916002 0.52916002 0 0 0 12.699219 11.113281 L 12.699219 10.054688 A 0.52916002 0.52916002 0 0 0 12.169922 9.5253906 z M 0.52929688 11.640625 A 0.52916002 0.52916002 0 0 0 0 12.169922 A 0.52916002 0.52916002 0 0 0 0.52929688 12.699219 L 1.5878906 12.699219 A 0.52916002 0.52916002 0 0 0 2.1171875 12.169922 A 0.52916002 0.52916002 0 0 0 1.5878906 11.640625 L 0.52929688 11.640625 z M 3.7050781 11.640625 A 0.52916002 0.52916002 0 0 0 3.1757812 12.169922 A 0.52916002 0.52916002 0 0 0 3.7050781 12.699219 L 4.7617188 12.699219 A 0.52916002 0.52916002 0 0 0 5.2910156 12.169922 A 0.52916002 0.52916002 0 0 0 4.7617188 11.640625 L 3.7050781 11.640625 z M 6.8789062 11.640625 A 0.52916002 0.52916002 0 0 0 6.3496094 12.169922 A 0.52916002 0.52916002 0 0 0 6.8789062 12.699219 L 7.9375 12.699219 A 0.52916002 0.52916002 0 0 0 8.4667969 12.169922 A 0.52916002 0.52916002 0 0 0 7.9375 11.640625 L 6.8789062 11.640625 z M 10.054688 11.640625 A 0.52916002 0.52916002 0 0 0 9.5253906 12.169922 A 0.52916002 0.52916002 0 0 0 10.054688 12.699219 L 11.113281 12.699219 A 0.52916002 0.52916002 0 0 0 11.640625 12.169922 A 0.52916002 0.52916002 0 0 0 11.113281 11.640625 L 10.054688 11.640625 z "
       id="path1453" />
  </g>
</svg>
