<?xml version="1.0" encoding="UTF-8" standalone="no"?>
<svg
   xmlns:dc="http://purl.org/dc/elements/1.1/"
   xmlns:cc="http://creativecommons.org/ns#"
   xmlns:rdf="http://www.w3.org/1999/02/22-rdf-syntax-ns#"
   xmlns:svg="http://www.w3.org/2000/svg"
   xmlns="http://www.w3.org/2000/svg"
   xmlns:sodipodi="http://sodipodi.sourceforge.net/DTD/sodipodi-0.dtd"
   xmlns:inkscape="http://www.inkscape.org/namespaces/inkscape"
   width="48"
   height="48"
   viewBox="0 0 12.69984 12.69984"
   version="1.1"
   id="svg8"
   inkscape:export-filename="C:\Users\phils\Documents\Unity\basic_graphics\terrain\semicircledown.png"
   inkscape:export-xdpi="96.000008"
   inkscape:export-ydpi="96.000008"
   inkscape:version="1.0.1 (3bc2e813f5, 2020-09-07)"
   sodipodi:docname="fill.svg">
  <defs
     id="defs2" />
  <sodipodi:namedview
     id="base"
     pagecolor="#ffffff"
     bordercolor="#666666"
     borderopacity="1.0"
     inkscape:pageopacity="0.0"
     inkscape:pageshadow="2"
     inkscape:zoom="11.313708"
     inkscape:cx="25.292261"
     inkscape:cy="17.805664"
     inkscape:document-units="px"
     inkscape:current-layer="layer1"
     inkscape:document-rotation="0"
     showgrid="true"
     units="px"
     inkscape:pagecheckerboard="true"
     borderlayer="true"
     inkscape:showpageshadow="false"
     inkscape:window-width="1920"
     inkscape:window-height="1051"
     inkscape:window-x="-9"
     inkscape:window-y="4"
     inkscape:window-maximized="1">
    <inkscape:grid
       type="xygrid"
       id="grid833"
       spacingx="0.26458"
       spacingy="0.26458"
       empspacing="4"
       dotted="false" />
  </sodipodi:namedview>
  <metadata
     id="metadata5">
    <rdf:RDF>
      <cc:Work
         rdf:about="">
        <dc:format>image/svg+xml</dc:format>
        <dc:type
           rdf:resource="http://purl.org/dc/dcmitype/StillImage" />
        <dc:title></dc:title>
      </cc:Work>
    </rdf:RDF>
  </metadata>
  <g
     inkscape:label="Layer 1"
     inkscape:groupmode="layer"
     id="layer1">
    <path
       style="color:#000000;font-style:normal;font-variant:normal;font-weight:normal;font-stretch:normal;font-size:medium;line-height:normal;font-family:sans-serif;font-variant-ligatures:normal;font-variant-position:normal;font-variant-caps:normal;font-variant-numeric:normal;font-variant-alternates:normal;font-variant-east-asian:normal;font-feature-settings:normal;font-variation-settings:normal;text-indent:0;text-align:start;text-decoration:none;text-decoration-line:none;text-decoration-style:solid;text-decoration-color:#000000;letter-spacing:normal;word-spacing:normal;text-transform:none;writing-mode:lr-tb;direction:ltr;text-orientation:mixed;dominant-baseline:auto;baseline-shift:baseline;text-anchor:start;white-space:normal;shape-padding:0;shape-margin:0;inline-size:0;clip-rule:nonzero;display:inline;overflow:visible;visibility:visible;isolation:auto;mix-blend-mode:normal;color-interpolation:sRGB;color-interpolation-filters:linearRGB;solid-color:#000000;solid-opacity:1;vector-effect:none;fill:#000000;fill-opacity:1;fill-rule:nonzero;stroke:none;stroke-width:1.05832;stroke-linecap:butt;stroke-linejoin:miter;stroke-miterlimit:4;stroke-dasharray:none;stroke-dashoffset:0;stroke-opacity:1;color-rendering:auto;image-rendering:auto;shape-rendering:auto;text-rendering:auto;enable-background:accumulate;stop-color:#000000;stop-opacity:1;opacity:1"
       d="M 5.5644531 1.3769531 L 0.69921875 6.2402344 C 0.38740824 6.5520449 0.26367187 6.9650607 0.26367188 7.3632812 C 0.26367188 7.7615018 0.38740829 8.1745176 0.69921875 8.4863281 L 3.6933594 11.478516 C 4.00517 11.790326 4.4181859 11.914062 4.8164062 11.914062 C 5.2146266 11.914063 5.6256894 11.790326 5.9375 11.478516 L 10.802734 6.6152344 L 5.5644531 1.3769531 z M 5.5625 2.8710938 L 9.3066406 6.6152344 L 5.1894531 10.730469 C 5.1270911 10.792831 4.9794448 10.855469 4.8164062 10.855469 C 4.6533677 10.855469 4.5037683 10.792831 4.4414062 10.730469 L 1.4472656 7.7363281 C 1.3849035 7.673966 1.3222656 7.5263196 1.3222656 7.3632812 C 1.3222656 7.2002429 1.3849035 7.0506433 1.4472656 6.9882812 L 5.5625 2.8710938 z "
       id="path1480" />
    <g
       id="g1472"
       style="opacity:1;fill:#000000">
      <path
         style="color:#000000;font-style:normal;font-variant:normal;font-weight:normal;font-stretch:normal;font-size:medium;line-height:normal;font-family:sans-serif;font-variant-ligatures:normal;font-variant-position:normal;font-variant-caps:normal;font-variant-numeric:normal;font-variant-alternates:normal;font-variant-east-asian:normal;font-feature-settings:normal;font-variation-settings:normal;text-indent:0;text-align:start;text-decoration:none;text-decoration-line:none;text-decoration-style:solid;text-decoration-color:#000000;letter-spacing:normal;word-spacing:normal;text-transform:none;writing-mode:lr-tb;direction:ltr;text-orientation:mixed;dominant-baseline:auto;baseline-shift:baseline;text-anchor:start;white-space:normal;shape-padding:0;shape-margin:0;inline-size:0;clip-rule:nonzero;display:inline;overflow:visible;visibility:visible;isolation:auto;mix-blend-mode:normal;color-interpolation:sRGB;color-interpolation-filters:linearRGB;solid-color:#000000;solid-opacity:1;vector-effect:none;fill:#000000;fill-opacity:1;fill-rule:nonzero;stroke:none;stroke-width:1.01751;stroke-linecap:butt;stroke-linejoin:miter;stroke-miterlimit:4;stroke-dasharray:none;stroke-dashoffset:0;stroke-opacity:1;color-rendering:auto;image-rendering:auto;shape-rendering:auto;text-rendering:auto;enable-background:accumulate;stop-color:#000000;stop-opacity:1"
         d="M 9.4404009,5.82076 10.907814,6.34992 11.64152,7.9374 c 0,0 0.302833,-1.4865456 0.07163,-2.1634116 C 11.530293,5.2386441 11.107111,4.7825059 10.641628,4.5139095 10.224248,4.2730698 9.7120044,4.2693878 9.2390662,4.2800516 8.8920878,4.2878752 8.217557,4.49786 8.217557,4.49786 Z"
         id="path1474" />
      <path
         style="color:#000000;font-style:normal;font-variant:normal;font-weight:normal;font-stretch:normal;font-size:medium;line-height:normal;font-family:sans-serif;font-variant-ligatures:normal;font-variant-position:normal;font-variant-caps:normal;font-variant-numeric:normal;font-variant-alternates:normal;font-variant-east-asian:normal;font-feature-settings:normal;font-variation-settings:normal;text-indent:0;text-align:start;text-decoration:none;text-decoration-line:none;text-decoration-style:solid;text-decoration-color:#000000;letter-spacing:normal;word-spacing:normal;text-transform:none;writing-mode:lr-tb;direction:ltr;text-orientation:mixed;dominant-baseline:auto;baseline-shift:baseline;text-anchor:start;white-space:normal;shape-padding:0;shape-margin:0;inline-size:0;clip-rule:nonzero;display:inline;overflow:visible;visibility:visible;isolation:auto;mix-blend-mode:normal;color-interpolation:sRGB;color-interpolation-filters:linearRGB;solid-color:#000000;solid-opacity:1;vector-effect:none;fill:#000000;fill-opacity:1;fill-rule:nonzero;stroke:none;stroke-width:1.01751;stroke-linecap:butt;stroke-linejoin:miter;stroke-miterlimit:4;stroke-dasharray:none;stroke-dashoffset:0;stroke-opacity:1;color-rendering:auto;image-rendering:auto;shape-rendering:auto;text-rendering:auto;enable-background:accumulate;stop-color:#000000;stop-opacity:1"
         d="M 9.2285156 3.7714844 C 8.9599028 3.777541 8.7011433 3.8412987 8.4746094 3.8984375 C 8.2480755 3.9555763 8.0664062 4.0117188 8.0664062 4.0117188 L 7.296875 4.2519531 L 9.1503906 6.2578125 L 9.2675781 6.2988281 L 10.535156 6.7558594 L 11.830078 9.5585938 L 12.140625 8.0390625 C 12.140625 8.0390625 12.219902 7.645856 12.269531 7.1621094 C 12.319161 6.6783628 12.369703 6.1199169 12.195312 5.609375 C 11.963421 4.9304734 11.462319 4.4007205 10.896484 4.0742188 C 10.324974 3.7444415 9.7123692 3.7605745 9.2285156 3.7714844 z M 9.25 4.7890625 C 9.7120228 4.7786448 10.123469 4.803176 10.386719 4.9550781 C 10.745227 5.1619471 11.077927 5.5356643 11.216797 5.9199219 L 9.7304688 5.3847656 L 9.1914062 4.8007812 C 9.2041426 4.7995644 9.2412644 4.7892595 9.25 4.7890625 z "
         id="path1476" />
    </g>
    <path
       style="color:#000000;font-style:normal;font-variant:normal;font-weight:normal;font-stretch:normal;font-size:medium;line-height:normal;font-family:sans-serif;font-variant-ligatures:normal;font-variant-position:normal;font-variant-caps:normal;font-variant-numeric:normal;font-variant-alternates:normal;font-variant-east-asian:normal;font-feature-settings:normal;font-variation-settings:normal;text-indent:0;text-align:start;text-decoration:none;text-decoration-line:none;text-decoration-style:solid;text-decoration-color:#000000;letter-spacing:normal;word-spacing:normal;text-transform:none;writing-mode:lr-tb;direction:ltr;text-orientation:mixed;dominant-baseline:auto;baseline-shift:baseline;text-anchor:start;white-space:normal;shape-padding:0;shape-margin:0;inline-size:0;clip-rule:nonzero;display:inline;overflow:visible;visibility:visible;isolation:auto;mix-blend-mode:normal;color-interpolation:sRGB;color-interpolation-filters:linearRGB;solid-color:#000000;solid-opacity:1;vector-effect:none;fill:#000000;fill-opacity:1;fill-rule:nonzero;stroke:none;stroke-width:1.05832;stroke-linecap:round;stroke-linejoin:miter;stroke-miterlimit:4;stroke-dasharray:none;stroke-dashoffset:0;stroke-opacity:1;color-rendering:auto;image-rendering:auto;shape-rendering:auto;text-rendering:auto;enable-background:accumulate;stop-color:#000000;stop-opacity:1;opacity:1"
       d="M 2.8125 2.3417969 C 2.3610705 2.3698653 1.895838 2.4291078 1.4765625 2.59375 C 1.057287 2.7583922 0.61299788 3.1012979 0.54882812 3.640625 C 0.47281393 4.2795011 0.88592223 4.8013782 1.3535156 5.1289062 C 1.821109 5.4564343 2.395141 5.679897 2.9648438 5.8554688 C 4.1042492 6.2066122 5.2421875 6.3457031 5.2421875 6.3457031 A 0.52916002 0.52916002 0 0 0 5.8320312 5.8867188 A 0.52916002 0.52916002 0 0 0 5.3730469 5.2949219 C 5.3730469 5.2949219 4.3011773 5.1592764 3.2773438 4.84375 C 2.765427 4.6859868 2.2696095 4.4779295 1.9609375 4.2617188 C 1.6522655 4.045508 1.5824256 3.9120023 1.5996094 3.7675781 C 1.6049487 3.722703 1.62461 3.6738002 1.8632812 3.5800781 C 2.1019525 3.4863561 2.487828 3.4208004 2.8789062 3.3964844 C 3.6610627 3.3478524 4.453125 3.4355469 4.453125 3.4355469 A 0.52916002 0.52916002 0 0 0 5.0390625 2.9707031 A 0.52916002 0.52916002 0 0 0 4.5722656 2.3847656 C 4.5722656 2.3847656 3.7153591 2.28566 2.8125 2.3417969 z "
       id="path1470" />
  </g>
</svg>
