<?xml version="1.0" encoding="UTF-8" standalone="no"?>
<svg
   xmlns:dc="http://purl.org/dc/elements/1.1/"
   xmlns:cc="http://creativecommons.org/ns#"
   xmlns:rdf="http://www.w3.org/1999/02/22-rdf-syntax-ns#"
   xmlns:svg="http://www.w3.org/2000/svg"
   xmlns="http://www.w3.org/2000/svg"
   xmlns:sodipodi="http://sodipodi.sourceforge.net/DTD/sodipodi-0.dtd"
   xmlns:inkscape="http://www.inkscape.org/namespaces/inkscape"
   width="48"
   height="48"
   viewBox="0 0 12.69984 12.69984"
   version="1.1"
   id="svg8"
   inkscape:export-filename="C:\Users\phils\Documents\Unity\basic_graphics\terrain\semicircledown.png"
   inkscape:export-xdpi="96.000008"
   inkscape:export-ydpi="96.000008"
   inkscape:version="1.0.1 (3bc2e813f5, 2020-09-07)"
   sodipodi:docname="import.svg">
  <defs
     id="defs2">
    <marker
       style="overflow:visible;"
       id="Arrow2Lend"
       refX="0.0"
       refY="0.0"
       orient="auto"
       inkscape:stockid="Arrow2Lend"
       inkscape:isstock="true">
      <path
         transform="scale(1.1) rotate(180) translate(1,0)"
         d="M 8.7185878,4.0337352 L -2.2072895,0.016013256 L 8.7185884,-4.0017078 C 6.9730900,-1.6296469 6.9831476,1.6157441 8.7185878,4.0337352 z "
         style="fill-rule:evenodd;stroke-width:0.625;stroke-linejoin:round;stroke:#000000;stroke-opacity:1;fill:#000000;fill-opacity:1"
         id="path4530" />
    </marker>
    <marker
       style="overflow:visible;"
       id="Arrow1Lend"
       refX="0.0"
       refY="0.0"
       orient="auto"
       inkscape:stockid="Arrow1Lend"
       inkscape:isstock="true">
      <path
         transform="scale(0.8) rotate(180) translate(12.5,0)"
         style="fill-rule:evenodd;stroke:#000000;stroke-width:1pt;stroke-opacity:1;fill:#000000;fill-opacity:1"
         d="M 0.0,0.0 L 5.0,-5.0 L -12.5,0.0 L 5.0,5.0 L 0.0,0.0 z "
         id="path4512" />
    </marker>
  </defs>
  <sodipodi:namedview
     id="base"
     pagecolor="#ffffff"
     bordercolor="#666666"
     borderopacity="1.0"
     inkscape:pageopacity="0.0"
     inkscape:pageshadow="2"
     inkscape:zoom="16.000001"
     inkscape:cx="33.980547"
     inkscape:cy="22.529406"
     inkscape:document-units="px"
     inkscape:current-layer="layer3"
     inkscape:document-rotation="0"
     showgrid="true"
     units="px"
     inkscape:pagecheckerboard="true"
     borderlayer="true"
     inkscape:showpageshadow="false"
     inkscape:window-width="1920"
     inkscape:window-height="1051"
     inkscape:window-x="-9"
     inkscape:window-y="4"
     inkscape:window-maximized="1"
     guidetolerance="20">
    <inkscape:grid
       type="xygrid"
       id="grid833"
       spacingx="0.26458"
       spacingy="0.26458"
       empspacing="4"
       dotted="false" />
  </sodipodi:namedview>
  <metadata
     id="metadata5">
    <rdf:RDF>
      <cc:Work
         rdf:about="">
        <dc:format>image/svg+xml</dc:format>
        <dc:type
           rdf:resource="http://purl.org/dc/dcmitype/StillImage" />
        <dc:title />
      </cc:Work>
    </rdf:RDF>
  </metadata>
  <g
     inkscape:groupmode="layer"
     id="layer2"
     inkscape:label="Box"
     style="display:none" />
  <g
     inkscape:groupmode="layer"
     id="layer3"
     inkscape:label="Letter"
     style="display:inline">
    <path
       id="path4971"
       style="color:#000000;font-style:normal;font-variant:normal;font-weight:normal;font-stretch:normal;font-size:medium;line-height:normal;font-family:sans-serif;font-variant-ligatures:normal;font-variant-position:normal;font-variant-caps:normal;font-variant-numeric:normal;font-variant-alternates:normal;font-variant-east-asian:normal;font-feature-settings:normal;font-variation-settings:normal;text-indent:0;text-align:start;text-decoration:none;text-decoration-line:none;text-decoration-style:solid;text-decoration-color:#000000;letter-spacing:normal;word-spacing:normal;text-transform:none;writing-mode:lr-tb;direction:ltr;text-orientation:mixed;dominant-baseline:auto;baseline-shift:baseline;text-anchor:start;white-space:normal;shape-padding:0;shape-margin:0;inline-size:0;clip-rule:nonzero;display:inline;overflow:visible;visibility:visible;opacity:1;isolation:auto;mix-blend-mode:normal;color-interpolation:sRGB;color-interpolation-filters:linearRGB;solid-color:#000000;solid-opacity:1;vector-effect:none;fill:#000000;fill-opacity:1;fill-rule:evenodd;stroke:none;stroke-width:4;stroke-linecap:round;stroke-linejoin:round;stroke-miterlimit:4;stroke-dasharray:none;stroke-dashoffset:0;stroke-opacity:1;color-rendering:auto;image-rendering:auto;shape-rendering:auto;text-rendering:auto;enable-background:accumulate;stop-color:#000000;stop-opacity:1"
       d="M 6.0019531,2 C 3.8205475,2 2,3.8205475 2,6.0019531 V 42.003906 c 0,2.181409 1.8205449,3.994141 4.0019531,3.994141 H 42.003906 c 2.181409,0 3.993609,-1.812732 3.994141,-3.994141 L 45.999024,38 c 0,-1 -1,-2 -1.999024,-2 -1.000976,0 -2.000976,1 -2.000976,2 l 0.0049,4.003906 H 6.0019531 V 6.0019531 H 42.003906 L 42.004883,22 c -0.0059,1 0.994141,2 1.995117,2 0.999024,0 1.999024,-1 1.999024,-2 L 45.998,6.0019531 C 45.99786,3.8205449 44.185315,2 42.003906,2 Z"
       transform="scale(0.26458)"
       sodipodi:nodetypes="ssssssccccccccccsss" />
    <g
       aria-label="A"
       id="text6153"
       style="font-style:normal;font-variant:normal;font-weight:bold;font-stretch:normal;font-size:4.93883px;line-height:1.25;font-family:monospace;-inkscape-font-specification:'monospace, Bold';font-variant-ligatures:normal;font-variant-caps:normal;font-variant-numeric:normal;font-variant-east-asian:normal;stroke-width:0.26458;fill:#000000">
      <g
         id="g10121"
         style="opacity:1;fill:#000000">
        <path
           style="color:#000000;font-style:normal;font-variant:normal;font-weight:bold;font-stretch:normal;font-size:4.93883px;line-height:1.25;font-family:monospace;-inkscape-font-specification:'monospace, Bold';font-variant-ligatures:normal;font-variant-position:normal;font-variant-caps:normal;font-variant-numeric:normal;font-variant-alternates:normal;font-variant-east-asian:normal;font-feature-settings:normal;font-variation-settings:normal;text-indent:0;text-align:start;text-decoration:none;text-decoration-line:none;text-decoration-style:solid;text-decoration-color:#000000;letter-spacing:normal;word-spacing:normal;text-transform:none;writing-mode:lr-tb;direction:ltr;text-orientation:mixed;dominant-baseline:auto;baseline-shift:baseline;text-anchor:start;white-space:normal;shape-padding:0;shape-margin:0;inline-size:0;clip-rule:nonzero;display:inline;overflow:visible;visibility:visible;isolation:auto;mix-blend-mode:normal;color-interpolation:sRGB;color-interpolation-filters:linearRGB;solid-color:#000000;solid-opacity:1;vector-effect:none;fill:#000000;fill-opacity:1;fill-rule:nonzero;stroke:none;stroke-width:0.26458;stroke-linecap:butt;stroke-linejoin:miter;stroke-miterlimit:4;stroke-dasharray:none;stroke-dashoffset:0;stroke-opacity:1;color-rendering:auto;image-rendering:auto;shape-rendering:auto;text-rendering:auto;enable-background:accumulate;stop-color:#000000;stop-opacity:1"
           d="M 4.4090803,4.2310112 H 3.2081343 L 3.0875574,4.5324535 h 0.1205769 c 0.1189692,0 0.203373,0.023312 0.2532115,0.069935 0.051446,0.045015 0.077169,0.1044999 0.077169,0.1784538 0,0.072346 -0.025723,0.1318307 -0.077169,0.1784538 -0.049839,0.045015 -0.1342425,0.067523 -0.2532115,0.067523 H 2.5425498 c -0.1189692,0 -0.203373,-0.022508 -0.2532115,-0.067523 -0.051446,-0.046623 -0.077169,-0.1069118 -0.077169,-0.1808654 0,-0.073954 0.026527,-0.1342422 0.079581,-0.1808653 0.053054,-0.046623 0.1406732,-0.068327 0.2628576,-0.065112 L 3.3311228,2.5983999 H 3.0079767 c -0.1189693,0 -0.204177,-0.022508 -0.2556231,-0.067523 -0.049839,-0.046623 -0.074758,-0.1069118 -0.074758,-0.1808654 0,-0.073954 0.024919,-0.1334384 0.074758,-0.1784538 0.051446,-0.046623 0.1366537,-0.069935 0.2556231,-0.069935 l 1.0683113,0.00241 0.9839075,2.4284188 c 0.1157539,0 0.1921192,0.012862 0.2290961,0.038585 0.073954,0.053054 0.1109308,0.1229886 0.1109308,0.2098038 0,0.072346 -0.024919,0.1318307 -0.074758,0.1784538 -0.049839,0.045015 -0.1342425,0.067523 -0.2532115,0.067523 H 4.4066687 c -0.1189692,0 -0.2041769,-0.022508 -0.255623,-0.067523 -0.049839,-0.046623 -0.074758,-0.1069118 -0.074758,-0.1808654 0,-0.072346 0.024919,-0.1310269 0.074758,-0.1760422 0.051446,-0.046623 0.1366537,-0.069935 0.255623,-0.069935 H 4.5272456 Z M 4.2040995,3.7366459 3.8061957,2.7575615 3.4058804,3.7366459 Z"
           id="path10123" />
        <path
           style="color:#000000;font-style:normal;font-variant:normal;font-weight:bold;font-stretch:normal;font-size:4.93883px;line-height:1.25;font-family:monospace;-inkscape-font-specification:'monospace, Bold';font-variant-ligatures:normal;font-variant-position:normal;font-variant-caps:normal;font-variant-numeric:normal;font-variant-alternates:normal;font-variant-east-asian:normal;font-feature-settings:normal;font-variation-settings:normal;text-indent:0;text-align:start;text-decoration:none;text-decoration-line:none;text-decoration-style:solid;text-decoration-color:#000000;letter-spacing:normal;word-spacing:normal;text-transform:none;writing-mode:lr-tb;direction:ltr;text-orientation:mixed;dominant-baseline:auto;baseline-shift:baseline;text-anchor:start;white-space:normal;shape-padding:0;shape-margin:0;inline-size:0;clip-rule:nonzero;display:inline;overflow:visible;visibility:visible;isolation:auto;mix-blend-mode:normal;color-interpolation:sRGB;color-interpolation-filters:linearRGB;solid-color:#000000;solid-opacity:1;vector-effect:none;fill-opacity:1;fill-rule:nonzero;stroke:none;stroke-width:0.26458;stroke-linecap:butt;stroke-linejoin:miter;stroke-miterlimit:4;stroke-dasharray:none;stroke-dashoffset:0;stroke-opacity:1;color-rendering:auto;image-rendering:auto;shape-rendering:auto;text-rendering:auto;enable-background:accumulate;stop-color:#000000;stop-opacity:1;fill:#000000"
           d="m 3.0078125,1.96875 c -0.1362506,0 -0.2547057,0.024772 -0.34375,0.1054688 -0.076581,0.069169 -0.1191406,0.1717193 -0.1191406,0.2753906 0,0.1036711 0.041866,0.2068814 0.1171875,0.2773437 l 0.00195,0.00195 0.00195,0.00195 c 0.089478,0.078293 0.2061424,0.099609 0.3417969,0.099609 H 3.1367188 L 2.453125,4.4296875 c -0.0898,0.0099 -0.1834961,0.011633 -0.2480469,0.068359 -0.079107,0.069518 -0.125,0.1756615 -0.125,0.28125 0,0.1046295 0.043858,0.2073486 0.1210938,0.2773437 0.088695,0.080112 0.2061424,0.1015625 0.3417969,0.1015625 h 0.6660156 c 0.1356542,0 0.2531018,-0.021451 0.3417968,-0.1015625 0.076675,-0.069487 0.1191407,-0.1716869 0.1191407,-0.2753906 0,-0.1031309 -0.042778,-0.206706 -0.1191407,-0.2753906 C 3.4791972,4.438892 3.3784088,4.428031 3.2734375,4.419922 l 0.023437,-0.056641 h 1.0214844 l 0.023437,0.056641 C 4.2366875,4.4280491 4.1348397,4.4383478 4.0625,4.5039062 3.9865006,4.5725505 3.9433594,4.6765729 3.9433594,4.7792969 c 0,0.1036711 0.041866,0.2068814 0.1171875,0.2773437 H 4.0625 l 0.00195,0.00195 c 0.089478,0.078293 0.2061425,0.099609 0.3417969,0.099609 h 0.6660156 c 0.1356543,0 0.2531019,-0.021451 0.3417969,-0.1015625 h 0.00195 C 5.4907836,4.9866967 5.5332031,4.883974 5.5332031,4.78125 c 0,-0.1243791 -0.064292,-0.2453836 -0.1660156,-0.3183594 h -0.00195 C 5.3039835,4.4202809 5.2302638,4.4241716 5.1582031,4.4199219 L 4.1660156,1.9726562 Z m 0,0.265625 0.9785156,0.00195 0.984375,2.4277344 h 0.089844 c 0.1059545,0 0.1684898,0.026857 0.1523437,0.015625 0.044444,0.032269 0.054687,0.053038 0.054687,0.1015625 0,0.040762 -0.008,0.057795 -0.03125,0.080078 -1.256e-4,1.135e-4 -0.00182,-1.169e-4 -0.00195,0 -0.011769,0.010108 -0.060995,0.033203 -0.1621094,0.033203 H 4.40625 c -0.1011446,0 -0.1518816,-0.023304 -0.1660156,-0.035156 -0.021743,-0.02125 -0.03125,-0.037973 -0.03125,-0.080078 0,-0.041968 0.00757,-0.056739 0.03125,-0.078125 0.013848,-0.01255 0.064328,-0.037109 0.1660156,-0.037109 H 4.7207031 L 4.5,4.0996094 H 4.4082031 3.1191406 L 2.8925781,4.6640625 h 0.3164063 c 0.1016879,0 0.1506208,0.024409 0.1621094,0.035156 l 0.00195,0.00195 H 3.375 c 0.024427,0.021374 0.03125,0.0368 0.03125,0.080078 0,0.040989 -0.00699,0.056319 -0.033203,0.080078 -0.010982,0.00992 -0.061779,0.033203 -0.1640625,0.033203 H 2.5429688 c -0.102284,0 -0.1530806,-0.023284 -0.1640626,-0.033203 -0.025657,-0.023251 -0.035156,-0.038754 -0.035156,-0.082031 0,-0.042319 0.00816,-0.058303 0.035156,-0.082031 0.014095,-0.012387 0.067003,-0.035963 0.171875,-0.033203 l 0.091797,0.00391 0.8847657,-2.2011719 H 3.0078125 c -0.1011446,0 -0.1518816,-0.023305 -0.1660156,-0.035156 h -0.00195 c -0.022814,-0.021868 -0.029297,-0.039035 -0.029297,-0.082031 0,-0.044236 0.00815,-0.059217 0.03125,-0.080078 0.013848,-0.01255 0.064327,-0.035156 0.1660156,-0.035156 z M 3.8066406,2.40625 3.2089844,3.8691406 H 4.4003906 L 4.3261719,3.6875 Z m 0,0.7011719 0.2011719,0.4960937 H 3.6035156 Z"
           id="path10125" />
      </g>
    </g>
  </g>
  <g
     inkscape:groupmode="layer"
     id="layer4"
     inkscape:label="Text"
     style="display:inline">
    <path
       id="path10145"
       style="color:#000000;font-style:normal;font-variant:normal;font-weight:normal;font-stretch:normal;font-size:medium;line-height:normal;font-family:sans-serif;font-variant-ligatures:normal;font-variant-position:normal;font-variant-caps:normal;font-variant-numeric:normal;font-variant-alternates:normal;font-variant-east-asian:normal;font-feature-settings:normal;font-variation-settings:normal;text-indent:0;text-align:start;text-decoration:none;text-decoration-line:none;text-decoration-style:solid;text-decoration-color:#000000;letter-spacing:normal;word-spacing:normal;text-transform:none;writing-mode:lr-tb;direction:ltr;text-orientation:mixed;dominant-baseline:auto;baseline-shift:baseline;text-anchor:start;white-space:normal;shape-padding:0;shape-margin:0;inline-size:0;clip-rule:nonzero;display:inline;overflow:visible;visibility:visible;opacity:1;isolation:auto;mix-blend-mode:normal;color-interpolation:sRGB;color-interpolation-filters:linearRGB;solid-color:#000000;solid-opacity:1;vector-effect:none;fill:#000000;fill-opacity:1;fill-rule:nonzero;stroke:none;stroke-width:4;stroke-linecap:round;stroke-linejoin:round;stroke-miterlimit:4;stroke-dasharray:none;stroke-dashoffset:0;stroke-opacity:1;color-rendering:auto;image-rendering:auto;shape-rendering:auto;text-rendering:auto;enable-background:accumulate;stop-color:#000000;stop-opacity:1"
       d="m 23.998047,8.0019531 a 2.0000001,2.0000001 0 0 0 -2,1.9999999 2.0000001,2.0000001 0 0 0 2,2.001953 h 12.003906 a 2.0000001,2.0000001 0 0 0 2,-2.001953 2.0000001,2.0000001 0 0 0 -2,-1.9999999 z"
       transform="scale(0.26458)" />
    <path
       id="path10141"
       style="color:#000000;font-style:normal;font-variant:normal;font-weight:normal;font-stretch:normal;font-size:medium;line-height:normal;font-family:sans-serif;font-variant-ligatures:normal;font-variant-position:normal;font-variant-caps:normal;font-variant-numeric:normal;font-variant-alternates:normal;font-variant-east-asian:normal;font-feature-settings:normal;font-variation-settings:normal;text-indent:0;text-align:start;text-decoration:none;text-decoration-line:none;text-decoration-style:solid;text-decoration-color:#000000;letter-spacing:normal;word-spacing:normal;text-transform:none;writing-mode:lr-tb;direction:ltr;text-orientation:mixed;dominant-baseline:auto;baseline-shift:baseline;text-anchor:start;white-space:normal;shape-padding:0;shape-margin:0;inline-size:0;clip-rule:nonzero;display:inline;overflow:visible;visibility:visible;opacity:1;isolation:auto;mix-blend-mode:normal;color-interpolation:sRGB;color-interpolation-filters:linearRGB;solid-color:#000000;solid-opacity:1;vector-effect:none;fill:#000000;fill-opacity:1;fill-rule:nonzero;stroke:none;stroke-width:4;stroke-linecap:round;stroke-linejoin:round;stroke-miterlimit:4;stroke-dasharray:none;stroke-dashoffset:0;stroke-opacity:1;color-rendering:auto;image-rendering:auto;shape-rendering:auto;text-rendering:auto;enable-background:accumulate;stop-color:#000000;stop-opacity:1"
       d="m 23.998047,15 a 2.0000001,2.0000001 0 0 0 -2,2 2.0000001,2.0000001 0 0 0 2,2.001953 h 12.003906 a 2.0000001,2.0000001 0 0 0 2,-2.001953 2.0000001,2.0000001 0 0 0 -2,-2 z"
       transform="scale(0.26458)" />
    <path
       id="path10137"
       style="color:#000000;font-style:normal;font-variant:normal;font-weight:normal;font-stretch:normal;font-size:medium;line-height:normal;font-family:sans-serif;font-variant-ligatures:normal;font-variant-position:normal;font-variant-caps:normal;font-variant-numeric:normal;font-variant-alternates:normal;font-variant-east-asian:normal;font-feature-settings:normal;font-variation-settings:normal;text-indent:0;text-align:start;text-decoration:none;text-decoration-line:none;text-decoration-style:solid;text-decoration-color:#000000;letter-spacing:normal;word-spacing:normal;text-transform:none;writing-mode:lr-tb;direction:ltr;text-orientation:mixed;dominant-baseline:auto;baseline-shift:baseline;text-anchor:start;white-space:normal;shape-padding:0;shape-margin:0;inline-size:0;clip-rule:nonzero;display:inline;overflow:visible;visibility:visible;opacity:1;isolation:auto;mix-blend-mode:normal;color-interpolation:sRGB;color-interpolation-filters:linearRGB;solid-color:#000000;solid-opacity:1;vector-effect:none;fill:#000000;fill-opacity:1;fill-rule:nonzero;stroke:none;stroke-width:4;stroke-linecap:round;stroke-linejoin:round;stroke-miterlimit:4;stroke-dasharray:none;stroke-dashoffset:0;stroke-opacity:1;color-rendering:auto;image-rendering:auto;shape-rendering:auto;text-rendering:auto;enable-background:accumulate;stop-color:#000000;stop-opacity:1"
       d="m 10.001953,21.998047 c -1.1045694,-3.6e-4 -1.9999998,0.895431 -1.9999999,2 C 8.0008738,25.103379 8.8966204,26 10.001953,26 L 16,26.001953 c 1.105333,0 2.001079,-0.896621 2,-2.001953 0,-1.104569 -0.895431,-1.99964 -2,-2 z"
       sodipodi:nodetypes="sccccss"
       transform="scale(0.26458)" />
    <path
       id="path10133"
       style="color:#000000;font-style:normal;font-variant:normal;font-weight:normal;font-stretch:normal;font-size:medium;line-height:normal;font-family:sans-serif;font-variant-ligatures:normal;font-variant-position:normal;font-variant-caps:normal;font-variant-numeric:normal;font-variant-alternates:normal;font-variant-east-asian:normal;font-feature-settings:normal;font-variation-settings:normal;text-indent:0;text-align:start;text-decoration:none;text-decoration-line:none;text-decoration-style:solid;text-decoration-color:#000000;letter-spacing:normal;word-spacing:normal;text-transform:none;writing-mode:lr-tb;direction:ltr;text-orientation:mixed;dominant-baseline:auto;baseline-shift:baseline;text-anchor:start;white-space:normal;shape-padding:0;shape-margin:0;inline-size:0;clip-rule:nonzero;display:inline;overflow:visible;visibility:visible;opacity:1;isolation:auto;mix-blend-mode:normal;color-interpolation:sRGB;color-interpolation-filters:linearRGB;solid-color:#000000;solid-opacity:1;vector-effect:none;fill:#000000;fill-opacity:1;fill-rule:nonzero;stroke:none;stroke-width:4;stroke-linecap:round;stroke-linejoin:round;stroke-miterlimit:4;stroke-dasharray:none;stroke-dashoffset:0;stroke-opacity:1;color-rendering:auto;image-rendering:auto;shape-rendering:auto;text-rendering:auto;enable-background:accumulate;stop-color:#000000;stop-opacity:1"
       d="m 10.001953,28.996094 c -1.1045692,-7.19e-4 -1.9999998,0.895431 -1.9999999,2 -0.00108,1.105332 0.8946673,2.001953 1.9999999,2.001953 L 16,33.001953 c 1.105333,0 2.001079,-0.896621 2,-2.001953 0,-1.104569 -0.895431,-1.999281 -2,-2 z"
       sodipodi:nodetypes="sccccss"
       transform="scale(0.26458)" />
    <path
       id="path10129"
       style="color:#000000;font-style:normal;font-variant:normal;font-weight:normal;font-stretch:normal;font-size:medium;line-height:normal;font-family:sans-serif;font-variant-ligatures:normal;font-variant-position:normal;font-variant-caps:normal;font-variant-numeric:normal;font-variant-alternates:normal;font-variant-east-asian:normal;font-feature-settings:normal;font-variation-settings:normal;text-indent:0;text-align:start;text-decoration:none;text-decoration-line:none;text-decoration-style:solid;text-decoration-color:#000000;letter-spacing:normal;word-spacing:normal;text-transform:none;writing-mode:lr-tb;direction:ltr;text-orientation:mixed;dominant-baseline:auto;baseline-shift:baseline;text-anchor:start;white-space:normal;shape-padding:0;shape-margin:0;inline-size:0;clip-rule:nonzero;display:inline;overflow:visible;visibility:visible;opacity:1;isolation:auto;mix-blend-mode:normal;color-interpolation:sRGB;color-interpolation-filters:linearRGB;solid-color:#000000;solid-opacity:1;vector-effect:none;fill:#000000;fill-opacity:1;fill-rule:nonzero;stroke:none;stroke-width:4;stroke-linecap:round;stroke-linejoin:round;stroke-miterlimit:4;stroke-dasharray:none;stroke-dashoffset:0;stroke-opacity:1;color-rendering:auto;image-rendering:auto;shape-rendering:auto;text-rendering:auto;enable-background:accumulate;stop-color:#000000;stop-opacity:1"
       d="m 10.001953,36.001953 c -1.1045694,3.6e-4 -1.9999998,0.895431 -1.9999999,2 -0.00108,1.105332 0.8946673,2.001953 1.9999999,2.001953 L 16,40.001953 c 1.105333,0 2.001079,-0.896621 2,-2.001953 0,-1.104569 -0.895431,-2.00036 -2,-2 z"
       sodipodi:nodetypes="sccccss"
       transform="scale(0.26458)" />
  </g>
  <g
     inkscape:groupmode="layer"
     id="layer1"
     inkscape:label="Arrow"
     style="display:inline">
    <g
       id="g1481"
       style="opacity:1;fill:#000000">
      <path
         style="color:#000000;font-style:normal;font-variant:normal;font-weight:normal;font-stretch:normal;font-size:medium;line-height:normal;font-family:sans-serif;font-variant-ligatures:normal;font-variant-position:normal;font-variant-caps:normal;font-variant-numeric:normal;font-variant-alternates:normal;font-variant-east-asian:normal;font-feature-settings:normal;font-variation-settings:normal;text-indent:0;text-align:start;text-decoration:none;text-decoration-line:none;text-decoration-style:solid;text-decoration-color:#000000;letter-spacing:normal;word-spacing:normal;text-transform:none;writing-mode:lr-tb;direction:ltr;text-orientation:mixed;dominant-baseline:auto;baseline-shift:baseline;text-anchor:start;white-space:normal;shape-padding:0;shape-margin:0;inline-size:0;clip-rule:nonzero;display:inline;overflow:visible;visibility:visible;isolation:auto;mix-blend-mode:normal;color-interpolation:sRGB;color-interpolation-filters:linearRGB;solid-color:#000000;solid-opacity:1;vector-effect:none;fill:#000000;fill-opacity:1;fill-rule:nonzero;stroke:none;stroke-width:1.05832;stroke-linecap:round;stroke-linejoin:round;stroke-miterlimit:4;stroke-dasharray:none;stroke-dashoffset:0;stroke-opacity:1;color-rendering:auto;image-rendering:auto;shape-rendering:auto;text-rendering:auto;enable-background:accumulate;stop-color:#000000;stop-opacity:1"
         d="M 12.17068,7.9374 H 7.40824"
         id="path1483" />
      <path
         style="color:#000000;font-style:normal;font-variant:normal;font-weight:normal;font-stretch:normal;font-size:medium;line-height:normal;font-family:sans-serif;font-variant-ligatures:normal;font-variant-position:normal;font-variant-caps:normal;font-variant-numeric:normal;font-variant-alternates:normal;font-variant-east-asian:normal;font-feature-settings:normal;font-variation-settings:normal;text-indent:0;text-align:start;text-decoration:none;text-decoration-line:none;text-decoration-style:solid;text-decoration-color:#000000;letter-spacing:normal;word-spacing:normal;text-transform:none;writing-mode:lr-tb;direction:ltr;text-orientation:mixed;dominant-baseline:auto;baseline-shift:baseline;text-anchor:start;white-space:normal;shape-padding:0;shape-margin:0;inline-size:0;clip-rule:nonzero;display:inline;overflow:visible;visibility:visible;isolation:auto;mix-blend-mode:normal;color-interpolation:sRGB;color-interpolation-filters:linearRGB;solid-color:#000000;solid-opacity:1;vector-effect:none;fill:#000000;fill-opacity:1;fill-rule:nonzero;stroke:none;stroke-width:1.05832;stroke-linecap:round;stroke-linejoin:round;stroke-miterlimit:4;stroke-dasharray:none;stroke-dashoffset:0;stroke-opacity:1;color-rendering:auto;image-rendering:auto;shape-rendering:auto;text-rendering:auto;enable-background:accumulate;stop-color:#000000;stop-opacity:1"
         d="M 7.4082031 7.4082031 A 0.52916002 0.52916002 0 0 0 6.8789062 7.9375 A 0.52916002 0.52916002 0 0 0 7.4082031 8.4667969 L 12.169922 8.4667969 A 0.52916002 0.52916002 0 0 0 12.699219 7.9375 A 0.52916002 0.52916002 0 0 0 12.169922 7.4082031 L 7.4082031 7.4082031 z "
         id="path1485" />
    </g>
    <path
       style="color:#000000;font-style:normal;font-variant:normal;font-weight:normal;font-stretch:normal;font-size:medium;line-height:normal;font-family:sans-serif;font-variant-ligatures:normal;font-variant-position:normal;font-variant-caps:normal;font-variant-numeric:normal;font-variant-alternates:normal;font-variant-east-asian:normal;font-feature-settings:normal;font-variation-settings:normal;text-indent:0;text-align:start;text-decoration:none;text-decoration-line:none;text-decoration-style:solid;text-decoration-color:#000000;letter-spacing:normal;word-spacing:normal;text-transform:none;writing-mode:lr-tb;direction:ltr;text-orientation:mixed;dominant-baseline:auto;baseline-shift:baseline;text-anchor:start;white-space:normal;shape-padding:0;shape-margin:0;inline-size:0;clip-rule:nonzero;display:inline;overflow:visible;visibility:visible;isolation:auto;mix-blend-mode:normal;color-interpolation:sRGB;color-interpolation-filters:linearRGB;solid-color:#000000;solid-opacity:1;vector-effect:none;fill:#000000;fill-opacity:1;fill-rule:nonzero;stroke:none;stroke-width:1.05832;stroke-linecap:round;stroke-linejoin:miter;stroke-miterlimit:4;stroke-dasharray:none;stroke-dashoffset:0;stroke-opacity:1;color-rendering:auto;image-rendering:auto;shape-rendering:auto;text-rendering:auto;enable-background:accumulate;stop-color:#000000;stop-opacity:1;opacity:1"
       d="M 8.46875 5.8203125 A 0.52916002 0.52916002 0 0 0 8.1484375 5.9257812 L 5.46875 7.9375 L 8.1484375 9.9472656 A 0.52916002 0.52916002 0 0 0 8.890625 9.8417969 A 0.52916002 0.52916002 0 0 0 8.7832031 9.1015625 L 7.2324219 7.9375 L 8.7832031 6.7734375 A 0.52916002 0.52916002 0 0 0 8.890625 6.0332031 A 0.52916002 0.52916002 0 0 0 8.46875 5.8203125 z "
       id="path1479" />
  </g>
</svg>
