<?xml version="1.0" encoding="UTF-8" standalone="no"?>
<svg
   xmlns:dc="http://purl.org/dc/elements/1.1/"
   xmlns:cc="http://creativecommons.org/ns#"
   xmlns:rdf="http://www.w3.org/1999/02/22-rdf-syntax-ns#"
   xmlns:svg="http://www.w3.org/2000/svg"
   xmlns="http://www.w3.org/2000/svg"
   xmlns:sodipodi="http://sodipodi.sourceforge.net/DTD/sodipodi-0.dtd"
   xmlns:inkscape="http://www.inkscape.org/namespaces/inkscape"
   width="48"
   height="48"
   viewBox="0 0 12.69984 12.69984"
   version="1.1"
   id="svg8"
   inkscape:export-filename="C:\Users\phils\Documents\Unity\basic_graphics\terrain\semicircledown.png"
   inkscape:export-xdpi="96.000008"
   inkscape:export-ydpi="96.000008"
   inkscape:version="1.0.1 (3bc2e813f5, 2020-09-07)"
   sodipodi:docname="palette.svg">
  <defs
     id="defs2">
    <marker
       style="overflow:visible;"
       id="Arrow2Lend"
       refX="0.0"
       refY="0.0"
       orient="auto"
       inkscape:stockid="Arrow2Lend"
       inkscape:isstock="true">
      <path
         transform="scale(1.1) rotate(180) translate(1,0)"
         d="M 8.7185878,4.0337352 L -2.2072895,0.016013256 L 8.7185884,-4.0017078 C 6.9730900,-1.6296469 6.9831476,1.6157441 8.7185878,4.0337352 z "
         style="fill-rule:evenodd;stroke-width:0.625;stroke-linejoin:round;stroke:#000000;stroke-opacity:1;fill:#000000;fill-opacity:1"
         id="path4530" />
    </marker>
    <marker
       style="overflow:visible;"
       id="Arrow1Lend"
       refX="0.0"
       refY="0.0"
       orient="auto"
       inkscape:stockid="Arrow1Lend"
       inkscape:isstock="true">
      <path
         transform="scale(0.8) rotate(180) translate(12.5,0)"
         style="fill-rule:evenodd;stroke:#000000;stroke-width:1pt;stroke-opacity:1;fill:#000000;fill-opacity:1"
         d="M 0.0,0.0 L 5.0,-5.0 L -12.5,0.0 L 5.0,5.0 L 0.0,0.0 z "
         id="path4512" />
    </marker>
  </defs>
  <sodipodi:namedview
     id="base"
     pagecolor="#ffffff"
     bordercolor="#666666"
     borderopacity="1.0"
     inkscape:pageopacity="0.0"
     inkscape:pageshadow="2"
     inkscape:zoom="8"
     inkscape:cx="36.883202"
     inkscape:cy="11.827138"
     inkscape:document-units="px"
     inkscape:current-layer="layer2"
     inkscape:document-rotation="0"
     showgrid="true"
     units="px"
     inkscape:pagecheckerboard="true"
     borderlayer="true"
     inkscape:showpageshadow="false"
     inkscape:window-width="1920"
     inkscape:window-height="1051"
     inkscape:window-x="-9"
     inkscape:window-y="4"
     inkscape:window-maximized="1"
     guidetolerance="20">
    <inkscape:grid
       type="xygrid"
       id="grid833"
       spacingx="0.26458"
       spacingy="0.26458"
       empspacing="4"
       dotted="false" />
  </sodipodi:namedview>
  <metadata
     id="metadata5">
    <rdf:RDF>
      <cc:Work
         rdf:about="">
        <dc:format>image/svg+xml</dc:format>
        <dc:type
           rdf:resource="http://purl.org/dc/dcmitype/StillImage" />
        <dc:title></dc:title>
      </cc:Work>
    </rdf:RDF>
  </metadata>
  <g
     inkscape:label="Layer 1"
     inkscape:groupmode="layer"
     id="layer1" />
  <g
     inkscape:groupmode="layer"
     id="layer2"
     inkscape:label="Arrowhead"
     style="display:inline">
    <path
       id="path4853"
       style="fill:#000000;stroke:none;stroke-width:1px;stroke-linecap:butt;stroke-linejoin:miter;stroke-opacity:1"
       d="M 24 4 C 12 4 4 12 4 24 C 4 36 12 44 20 44 L 25.226562 44 C 26.226562 44 30.910976 42.106567 30 41 C 29.089024 39.893433 29.000217 38.987913 29 37 C 29 34.238576 31.238576 32 34 32 L 35.990234 32 C 40.000642 32 44 27.999647 44 24.166016 L 44 20 C 44 12 36 4 24 4 z M 26.322266 6.6875 A 2.9999999 2.9999999 0 0 1 26.324219 6.6875 A 2.9999999 2.9999999 0 0 1 26.375 6.6875 A 2.9999999 2.9999999 0 0 1 29.375 9.6875 A 2.9999999 2.9999999 0 0 1 26.375 12.6875 A 2.9999999 2.9999999 0 0 1 23.375 9.6875 A 2.9999999 2.9999999 0 0 1 26.322266 6.6875 z M 17.134766 7.375 A 2.9999999 2.9999999 0 0 1 17.136719 7.375 A 2.9999999 2.9999999 0 0 1 17.1875 7.375 A 2.9999999 2.9999999 0 0 1 20.1875 10.375 A 2.9999999 2.9999999 0 0 1 17.1875 13.375 A 2.9999999 2.9999999 0 0 1 14.1875 10.375 A 2.9999999 2.9999999 0 0 1 17.134766 7.375 z M 34.634766 10.625 A 2.9999999 2.9999999 0 0 1 34.636719 10.625 A 2.9999999 2.9999999 0 0 1 34.6875 10.625 A 2.9999999 2.9999999 0 0 1 37.6875 13.625 A 2.9999999 2.9999999 0 0 1 34.6875 16.625 A 2.9999999 2.9999999 0 0 1 31.6875 13.625 A 2.9999999 2.9999999 0 0 1 34.634766 10.625 z M 10.134766 14.6875 A 2.9999999 2.9999999 0 0 1 10.136719 14.6875 A 2.9999999 2.9999999 0 0 1 10.1875 14.6875 A 2.9999999 2.9999999 0 0 1 13.1875 17.6875 A 2.9999999 2.9999999 0 0 1 10.1875 20.6875 A 2.9999999 2.9999999 0 0 1 7.1875 17.6875 A 2.9999999 2.9999999 0 0 1 10.134766 14.6875 z M 36.273438 20 A 4.1875002 4.1875002 0 0 1 36.3125 20 A 4.1875002 4.1875002 0 0 1 40.5 24.1875 A 4.1875002 4.1875002 0 0 1 36.3125 28.375 A 4.1875002 4.1875002 0 0 1 32.125 24.1875 A 4.1875002 4.1875002 0 0 1 36.273438 20 z M 10.572266 23.5 A 2.9999999 2.9999999 0 0 1 10.574219 23.5 A 2.9999999 2.9999999 0 0 1 10.625 23.5 A 2.9999999 2.9999999 0 0 1 13.625 26.5 A 2.9999999 2.9999999 0 0 1 10.625 29.5 A 2.9999999 2.9999999 0 0 1 7.625 26.5 A 2.9999999 2.9999999 0 0 1 10.572266 23.5 z "
       transform="scale(0.26458)" />
  </g>
</svg>
