<?xml version="1.0" encoding="UTF-8" standalone="no"?>
<svg
   xmlns:dc="http://purl.org/dc/elements/1.1/"
   xmlns:cc="http://creativecommons.org/ns#"
   xmlns:rdf="http://www.w3.org/1999/02/22-rdf-syntax-ns#"
   xmlns:svg="http://www.w3.org/2000/svg"
   xmlns="http://www.w3.org/2000/svg"
   xmlns:sodipodi="http://sodipodi.sourceforge.net/DTD/sodipodi-0.dtd"
   xmlns:inkscape="http://www.inkscape.org/namespaces/inkscape"
   width="48"
   height="48"
   viewBox="0 0 12.69984 12.69984"
   version="1.1"
   id="svg8"
   inkscape:export-filename="C:\Users\phils\Documents\Unity\basic_graphics\terrain\semicircledown.png"
   inkscape:export-xdpi="96.000008"
   inkscape:export-ydpi="96.000008"
   inkscape:version="1.0.1 (3bc2e813f5, 2020-09-07)"
   sodipodi:docname="stamp.svg">
  <defs
     id="defs2" />
  <sodipodi:namedview
     id="base"
     pagecolor="#ffffff"
     bordercolor="#666666"
     borderopacity="1.0"
     inkscape:pageopacity="0.0"
     inkscape:pageshadow="2"
     inkscape:zoom="15.999999"
     inkscape:cx="20.838605"
     inkscape:cy="23.095739"
     inkscape:document-units="px"
     inkscape:current-layer="layer1"
     inkscape:document-rotation="0"
     showgrid="true"
     units="px"
     inkscape:pagecheckerboard="true"
     borderlayer="true"
     inkscape:showpageshadow="false"
     inkscape:window-width="1920"
     inkscape:window-height="1051"
     inkscape:window-x="902"
     inkscape:window-y="1084"
     inkscape:window-maximized="1">
    <inkscape:grid
       type="xygrid"
       id="grid833"
       spacingx="0.26458"
       spacingy="0.26458"
       empspacing="4"
       dotted="false" />
  </sodipodi:namedview>
  <metadata
     id="metadata5">
    <rdf:RDF>
      <cc:Work
         rdf:about="">
        <dc:format>image/svg+xml</dc:format>
        <dc:type
           rdf:resource="http://purl.org/dc/dcmitype/StillImage" />
        <dc:title></dc:title>
      </cc:Work>
    </rdf:RDF>
  </metadata>
  <g
     inkscape:label="Layer 1"
     inkscape:groupmode="layer"
     id="layer1">
    <rect
       style="fill:#000000;fill-rule:evenodd;stroke:none;stroke-width:1.05832;stroke-linecap:round;stroke-linejoin:round"
       id="rect2012"
       width="10.05404"
       height="1.5874791"
       x="1.3229001"
       y="10.5832"
       ry="0" />
    <path
       id="path2073"
       style="fill:#000000;stroke:none;stroke-width:1px;stroke-linecap:butt;stroke-linejoin:miter;stroke-opacity:1"
       d="M 23.980469,2 C 18.46525,2.0107718 13.999989,6.4847709 14,12 c -8.8e-5,3.833118 2.190907,7.329 4.458735,8.636432 2.267827,1.307431 3.009554,2.789438 3.010015,4.363568 0,2.761424 -2.238576,5 -5,5 -0.153895,-6.4e-5 -0.307705,-0.0072 -0.460938,-0.02148 L 16,30 H 6 l -2,2 v 6 H 44 V 32 L 42,30 H 32 l -0.002,-0.0059 c -0.01366,0.002 -0.02734,0.004 -0.04102,0.0059 H 30.84375 C 28.315941,29.713804 26.406,27.575209 26.40625,25.03125 26.405991,23.439192 27.163928,21.942175 29.485318,20.636144 31.806707,19.330112 33.999363,15.834002 34,12 34,6.4771525 29.522847,2 24,2 Z"
       transform="scale(0.26458)"
       sodipodi:nodetypes="ccccccccccccccccccccsc" />
  </g>
</svg>
