<?xml version="1.0" encoding="UTF-8" standalone="no"?>
<svg
   xmlns:dc="http://purl.org/dc/elements/1.1/"
   xmlns:cc="http://creativecommons.org/ns#"
   xmlns:rdf="http://www.w3.org/1999/02/22-rdf-syntax-ns#"
   xmlns:svg="http://www.w3.org/2000/svg"
   xmlns="http://www.w3.org/2000/svg"
   xmlns:sodipodi="http://sodipodi.sourceforge.net/DTD/sodipodi-0.dtd"
   xmlns:inkscape="http://www.inkscape.org/namespaces/inkscape"
   width="48"
   height="48"
   viewBox="0 0 12.69984 12.69984"
   version="1.1"
   id="svg8"
   inkscape:export-filename="C:\Users\phils\Documents\Unity\basic_graphics\terrain\semicircledown.png"
   inkscape:export-xdpi="96.000008"
   inkscape:export-ydpi="96.000008"
   inkscape:version="1.0.1 (3bc2e813f5, 2020-09-07)"
   sodipodi:docname="text-bare.svg">
  <defs
     id="defs2">
    <marker
       style="overflow:visible;"
       id="Arrow2Lend"
       refX="0.0"
       refY="0.0"
       orient="auto"
       inkscape:stockid="Arrow2Lend"
       inkscape:isstock="true">
      <path
         transform="scale(1.1) rotate(180) translate(1,0)"
         d="M 8.7185878,4.0337352 L -2.2072895,0.016013256 L 8.7185884,-4.0017078 C 6.9730900,-1.6296469 6.9831476,1.6157441 8.7185878,4.0337352 z "
         style="fill-rule:evenodd;stroke-width:0.625;stroke-linejoin:round;stroke:#000000;stroke-opacity:1;fill:#000000;fill-opacity:1"
         id="path4530" />
    </marker>
    <marker
       style="overflow:visible;"
       id="Arrow1Lend"
       refX="0.0"
       refY="0.0"
       orient="auto"
       inkscape:stockid="Arrow1Lend"
       inkscape:isstock="true">
      <path
         transform="scale(0.8) rotate(180) translate(12.5,0)"
         style="fill-rule:evenodd;stroke:#000000;stroke-width:1pt;stroke-opacity:1;fill:#000000;fill-opacity:1"
         d="M 0.0,0.0 L 5.0,-5.0 L -12.5,0.0 L 5.0,5.0 L 0.0,0.0 z "
         id="path4512" />
    </marker>
  </defs>
  <sodipodi:namedview
     id="base"
     pagecolor="#ffffff"
     bordercolor="#666666"
     borderopacity="1.0"
     inkscape:pageopacity="0.0"
     inkscape:pageshadow="2"
     inkscape:zoom="16"
     inkscape:cx="24.569223"
     inkscape:cy="23.635474"
     inkscape:document-units="px"
     inkscape:current-layer="layer3"
     inkscape:document-rotation="0"
     showgrid="true"
     units="px"
     inkscape:pagecheckerboard="true"
     borderlayer="true"
     inkscape:showpageshadow="false"
     inkscape:window-width="1920"
     inkscape:window-height="1051"
     inkscape:window-x="-9"
     inkscape:window-y="4"
     inkscape:window-maximized="1"
     guidetolerance="20">
    <inkscape:grid
       type="xygrid"
       id="grid833"
       spacingx="0.26458"
       spacingy="0.26458"
       empspacing="4"
       dotted="false" />
  </sodipodi:namedview>
  <metadata
     id="metadata5">
    <rdf:RDF>
      <cc:Work
         rdf:about="">
        <dc:format>image/svg+xml</dc:format>
        <dc:type
           rdf:resource="http://purl.org/dc/dcmitype/StillImage" />
        <dc:title></dc:title>
      </cc:Work>
    </rdf:RDF>
  </metadata>
  <g
     inkscape:groupmode="layer"
     id="layer2"
     inkscape:label="Box"
     style="display:inline" />
  <g
     inkscape:groupmode="layer"
     id="layer3"
     inkscape:label="Letter">
    <g
       aria-label="Ab"
       transform="matrix(1.2432499,0,0,1.3389708,-1.8393444,-1.8403664)"
       id="text1466"
       style="font-size:27.1384px;line-height:1.25;font-family:HelveticaNeue;-inkscape-font-specification:'HelveticaNeue, Normal';stroke-width:0.203539">
      <g
         id="g2066"
         style="opacity:1">
        <path
           style="color:#000000;font-style:normal;font-variant:normal;font-weight:bold;font-stretch:normal;font-size:8.14159px;line-height:1.25;font-family:monospace;-inkscape-font-specification:'monospace, Bold';font-variant-ligatures:normal;font-variant-position:normal;font-variant-caps:normal;font-variant-numeric:normal;font-variant-alternates:normal;font-variant-east-asian:normal;font-feature-settings:normal;font-variation-settings:normal;text-indent:0;text-align:start;text-decoration:none;text-decoration-line:none;text-decoration-style:solid;text-decoration-color:#000000;letter-spacing:normal;word-spacing:normal;text-transform:none;writing-mode:lr-tb;direction:ltr;text-orientation:mixed;dominant-baseline:auto;baseline-shift:baseline;text-anchor:start;white-space:normal;shape-padding:0;shape-margin:0;inline-size:0;clip-rule:nonzero;display:inline;overflow:visible;visibility:visible;isolation:auto;mix-blend-mode:normal;color-interpolation:sRGB;color-interpolation-filters:linearRGB;solid-color:#000000;solid-opacity:1;vector-effect:none;fill:#000000;fill-opacity:1;fill-rule:nonzero;stroke:none;stroke-width:0.203539;stroke-linecap:butt;stroke-linejoin:miter;stroke-miterlimit:4;stroke-dasharray:none;stroke-dashoffset:0;stroke-opacity:1;color-rendering:auto;image-rendering:auto;shape-rendering:auto;text-rendering:auto;enable-background:accumulate;stop-color:#000000;stop-opacity:1"
           d="M 5.3312431,7.311326 H 3.351501 L 3.1527317,7.8082492 H 3.351501 c 0.196119,0 0.3352575,0.038429 0.4174155,0.1152862 0.084808,0.074207 0.1272123,0.1722667 0.1272123,0.2941785 0,0.1192616 -0.042404,0.2173211 -0.1272123,0.2941786 C 3.6867585,8.5860997 3.54762,8.6232033 3.351501,8.6232033 H 2.2542945 c -0.1961191,0 -0.3352576,-0.037104 -0.4174155,-0.1113108 -0.084808,-0.076858 -0.1272124,-0.1762421 -0.1272124,-0.298154 0,-0.1219118 0.043729,-0.2212964 0.1311878,-0.2981539 0.087459,-0.076858 0.2318975,-0.1126359 0.433317,-0.1073354 L 3.5542456,4.6199898 H 3.0215439 c -0.196119,0 -0.3365826,-0.037104 -0.4213909,-0.1113108 C 2.517995,4.431821 2.4769161,4.3324369 2.4769161,4.210525 c 0,-0.1219118 0.041079,-0.2199713 0.1232369,-0.2941785 0.084808,-0.076858 0.2252719,-0.1152862 0.4213909,-0.1152862 l 1.761096,0.00398 1.6219574,4.0032135 c 0.1908185,0 0.3167057,0.021202 0.3776616,0.063606 0.1219119,0.087458 0.1828678,0.2027446 0.1828678,0.3458585 0,0.1192616 -0.041079,0.2173211 -0.123237,0.2941786 -0.082158,0.074207 -0.2212965,0.1113108 -0.4174155,0.1113108 H 5.3272677 c -0.196119,0 -0.3365826,-0.037104 -0.4213909,-0.1113108 -0.082158,-0.076857 -0.1232369,-0.1762421 -0.1232369,-0.298154 0,-0.1192615 0.041079,-0.2159959 0.1232369,-0.2902031 0.084808,-0.07686 0.2252719,-0.1152906 0.4213909,-0.1152906 H 5.526037 Z M 4.9933353,6.4963719 4.3373966,4.8823652 3.6774826,6.4963719 Z"
           id="path2068" />
        <path
           style="color:#000000;font-style:normal;font-variant:normal;font-weight:bold;font-stretch:normal;font-size:8.14159px;line-height:1.25;font-family:monospace;-inkscape-font-specification:'monospace, Bold';font-variant-ligatures:normal;font-variant-position:normal;font-variant-caps:normal;font-variant-numeric:normal;font-variant-alternates:normal;font-variant-east-asian:normal;font-feature-settings:normal;font-variation-settings:normal;text-indent:0;text-align:start;text-decoration:none;text-decoration-line:none;text-decoration-style:solid;text-decoration-color:#000000;letter-spacing:normal;word-spacing:normal;text-transform:none;writing-mode:lr-tb;direction:ltr;text-orientation:mixed;dominant-baseline:auto;baseline-shift:baseline;text-anchor:start;white-space:normal;shape-padding:0;shape-margin:0;inline-size:0;clip-rule:nonzero;display:inline;overflow:visible;visibility:visible;isolation:auto;mix-blend-mode:normal;color-interpolation:sRGB;color-interpolation-filters:linearRGB;solid-color:#000000;solid-opacity:1;vector-effect:none;fill-opacity:1;fill-rule:nonzero;stroke:none;stroke-width:0.203539;stroke-linecap:butt;stroke-linejoin:miter;stroke-miterlimit:4;stroke-dasharray:none;stroke-dashoffset:0;stroke-opacity:1;color-rendering:auto;image-rendering:auto;shape-rendering:auto;text-rendering:auto;enable-background:accumulate;stop-color:#000000;stop-opacity:1"
           d="m 3.0214844,3.6992188 c -0.2094132,0 -0.3765022,0.039508 -0.4902344,0.1425781 C 2.4285197,3.9345856 2.375,4.0661644 2.375,4.2109375 c 0,0.1447731 0.054488,0.275897 0.15625,0.3710937 v 0.00195 l 0.00195,0.00195 C 2.647269,4.6857451 2.8125296,4.7226562 3.0214844,4.7226562 H 3.4023438 L 2.1953125,7.7285156 c -0.1676602,0.00697 -0.3235542,0.024925 -0.421875,0.1113282 -0.1075008,0.09447 -0.1660156,0.2267988 -0.1660156,0.3730468 0,0.1455106 0.055508,0.2801628 0.1601562,0.375 h 0.00195 c 0.11205,0.1012065 0.2754202,0.1367188 0.484375,0.1367188 h 1.0976563 c 0.2089548,0 0.3742782,-0.035512 0.4863281,-0.1367188 0.1042167,-0.094446 0.1601563,-0.227709 0.1601563,-0.3710937 0,-0.1445817 -0.055861,-0.2748707 -0.1601563,-0.3671875 -4.129e-4,-3.863e-4 -0.00154,3.845e-4 -0.00195,0 C 3.7242909,7.7460266 3.5602013,7.7070312 3.3515625,7.7070312 H 3.3027344 L 3.4199219,7.4140625 H 5.2617188 L 5.3769531,7.7070312 H 5.328125 c -0.2094137,0 -0.3765025,0.037552 -0.4902344,0.140625 -0.102283,0.092385 -0.15625,0.2226036 -0.15625,0.3652344 0,0.1447731 0.052535,0.2778502 0.1542969,0.3730469 l 0.00195,0.00195 c 0.1140659,0.099808 0.2812796,0.1367188 0.4902344,0.1367188 h 1.0957031 c 0.2089548,0 0.3742782,-0.035512 0.4863281,-0.1367188 v -0.00195 h 0.00195 c 0.1013358,-0.094798 0.1542968,-0.2265097 0.1542968,-0.3691406 0,-0.1720114 -0.081334,-0.3249503 -0.2246093,-0.4277344 h -0.00195 C 6.7553588,7.7302906 6.6260612,7.7249859 6.4785156,7.7207031 L 4.8515625,3.703125 Z m 0,0.203125 1.6933594,0.00391 1.6210937,4.0039062 h 0.068359 c 0.182184,0 0.2972492,0.030825 0.3183593,0.044922 0.1005488,0.072133 0.1406251,0.1475024 0.140625,0.2617188 0,0.094868 -0.028275,0.16033 -0.089844,0.21875 -2.754e-4,2.487e-4 -0.00167,-2.482e-4 -0.00195,0 -0.052634,0.04686 -0.1653387,0.085937 -0.3476563,0.085937 H 5.328125 c -0.1823318,0 -0.2976335,-0.037698 -0.3535156,-0.085937 h -0.00195 C 4.9114668,8.3774792 4.8847656,8.3109017 4.8847656,8.2128906 4.8847656,8.1169984 4.9125766,8.0560296 4.9746094,8 v -0.00195 C 5.0304941,7.9473994 5.1453007,7.9101562 5.328125,7.9101562 H 5.6757812 L 5.4003906,7.2089844 H 5.3320312 3.2832031 l -0.28125,0.7011718 h 0.3496094 c 0.1828248,0 0.2950005,0.038632 0.3476563,0.087891 h 0.00195 V 8 c 0.064023,0.05602 0.09375,0.1184838 0.09375,0.2167969 0,0.095138 -0.02835,0.1594814 -0.09375,0.21875 -0.052266,0.047208 -0.1663262,0.085937 -0.3496094,0.085937 H 2.2539062 c -0.1832832,0 -0.2973434,-0.03873 -0.3496093,-0.085937 -0.064968,-0.058878 -0.09375,-0.1243431 -0.09375,-0.2226563 0,-0.097576 0.03024,-0.1614585 0.097656,-0.2207031 0.057488,-0.050519 0.1751799,-0.086981 0.3632813,-0.082031 l 0.070312,0.00195 1.3632812,-3.3945313 H 3.0214844 c -0.1823271,0 -0.2956788,-0.0377 -0.3515625,-0.085937 h -0.00195 C 2.6067914,4.3735769 2.578125,4.3089393 2.578125,4.2109375 c 0,-0.09905 0.028258,-0.1631243 0.089844,-0.21875 0.055884,-0.050645 0.1706908,-0.089844 0.3535156,-0.089844 z m 1.3164062,0.7109374 -0.8125,1.984375 H 5.1445312 L 5.0878906,6.4589844 Z m -0.00195,0.5390626 0.5058594,1.2421874 H 3.828125 Z"
           id="path2070" />
      </g>
      <g
         id="g2072"
         style="opacity:1">
        <path
           style="color:#000000;font-style:normal;font-variant:normal;font-weight:bold;font-stretch:normal;font-size:8.14159px;line-height:1.25;font-family:monospace;-inkscape-font-specification:'monospace, Bold';font-variant-ligatures:normal;font-variant-position:normal;font-variant-caps:normal;font-variant-numeric:normal;font-variant-alternates:normal;font-variant-east-asian:normal;font-feature-settings:normal;font-variation-settings:normal;text-indent:0;text-align:start;text-decoration:none;text-decoration-line:none;text-decoration-style:solid;text-decoration-color:#000000;letter-spacing:normal;word-spacing:normal;text-transform:none;writing-mode:lr-tb;direction:ltr;text-orientation:mixed;dominant-baseline:auto;baseline-shift:baseline;text-anchor:start;white-space:normal;shape-padding:0;shape-margin:0;inline-size:0;clip-rule:nonzero;display:inline;overflow:visible;visibility:visible;isolation:auto;mix-blend-mode:normal;color-interpolation:sRGB;color-interpolation-filters:linearRGB;solid-color:#000000;solid-opacity:1;vector-effect:none;fill:#000000;fill-opacity:1;fill-rule:nonzero;stroke:none;stroke-width:0.203539;stroke-linecap:butt;stroke-linejoin:miter;stroke-miterlimit:4;stroke-dasharray:none;stroke-dashoffset:0;stroke-opacity:1;color-rendering:auto;image-rendering:auto;shape-rendering:auto;text-rendering:auto;enable-background:accumulate;stop-color:#000000;stop-opacity:1"
           d="M 8.1935211,3.4671279 V 5.2958054 C 8.3922904,5.1659428 8.5937099,5.0692084 8.7977797,5.0056022 9.0044998,4.9393455 9.212545,4.9062172 9.4219153,4.9062172 c 0.5645045,0 1.0428757,0.1947939 1.4351147,0.5843817 0.392238,0.3895878 0.588357,0.8600084 0.588357,1.4112619 0,0.5274012 -0.186843,0.968669 -0.56053,1.3238035 -0.373686,0.3524842 -0.866634,0.5287263 -1.4788433,0.5287263 -0.2173211,0 -0.4266914,-0.027828 -0.6281109,-0.083483 C 8.5764833,8.6152524 8.3816894,8.5330945 8.1935211,8.424434 V 8.6232033 H 7.2394285 c -0.1961191,0 -0.3365827,-0.037104 -0.4213909,-0.1113108 -0.082158,-0.076858 -0.123237,-0.1762421 -0.123237,-0.298154 0,-0.1192615 0.042404,-0.2159959 0.1272124,-0.2902031 C 6.906821,7.8466784 7.0459597,7.8082492 7.2394285,7.8082492 H 7.378567 V 4.282082 H 7.2394285 c -0.1961191,0 -0.3365827,-0.037104 -0.4213909,-0.1113108 -0.082158,-0.076858 -0.123237,-0.1762421 -0.123237,-0.298154 0,-0.1192615 0.041079,-0.2159959 0.123237,-0.2902031 0.084808,-0.076858 0.2252718,-0.1152862 0.4213909,-0.1152862 z m 2.4369119,3.4585856 c 0,-0.3365827 -0.117937,-0.6214853 -0.35381,-0.8547079 -0.235873,-0.2332227 -0.5247507,-0.349834 -0.8666339,-0.349834 -0.3392329,0 -0.6267858,0.1166113 -0.8626587,0.349834 -0.2358729,0.2332226 -0.3538093,0.5141499 -0.3538093,0.8427818 0,0.2994791 0.1060103,0.545953 0.3180308,0.7394217 0.2120206,0.1908185 0.5114997,0.2862278 0.8984372,0.2862278 0.3869375,0 0.6864169,-0.095409 0.8984369,-0.2862278 0.214671,-0.1934687 0.322007,-0.4359673 0.322007,-0.7274956 z"
           id="path2074" />
        <path
           style="color:#000000;font-style:normal;font-variant:normal;font-weight:bold;font-stretch:normal;font-size:8.14159px;line-height:1.25;font-family:monospace;-inkscape-font-specification:'monospace, Bold';font-variant-ligatures:normal;font-variant-position:normal;font-variant-caps:normal;font-variant-numeric:normal;font-variant-alternates:normal;font-variant-east-asian:normal;font-feature-settings:normal;font-variation-settings:normal;text-indent:0;text-align:start;text-decoration:none;text-decoration-line:none;text-decoration-style:solid;text-decoration-color:#000000;letter-spacing:normal;word-spacing:normal;text-transform:none;writing-mode:lr-tb;direction:ltr;text-orientation:mixed;dominant-baseline:auto;baseline-shift:baseline;text-anchor:start;white-space:normal;shape-padding:0;shape-margin:0;inline-size:0;clip-rule:nonzero;display:inline;overflow:visible;visibility:visible;isolation:auto;mix-blend-mode:normal;color-interpolation:sRGB;color-interpolation-filters:linearRGB;solid-color:#000000;solid-opacity:1;vector-effect:none;fill-opacity:1;fill-rule:nonzero;stroke:none;stroke-width:0.203539;stroke-linecap:butt;stroke-linejoin:miter;stroke-miterlimit:4;stroke-dasharray:none;stroke-dashoffset:0;stroke-opacity:1;color-rendering:auto;image-rendering:auto;shape-rendering:auto;text-rendering:auto;enable-background:accumulate;stop-color:#000000;stop-opacity:1"
           d="m 7.2402344,3.3652344 c -0.2094133,0 -0.3765022,0.039508 -0.4902344,0.1425781 -0.1022831,0.092385 -0.15625,0.2226035 -0.15625,0.3652344 0,0.1447731 0.052535,0.275897 0.1542969,0.3710937 l 0.00195,0.00195 0.00195,0.00195 c 0.1140658,0.099808 0.2793264,0.1367187 0.4882813,0.1367187 h 0.037109 v 3.3222656 h -0.037109 c -0.2061782,0 -0.371069,0.038761 -0.484375,0.140625 C 6.6507177,7.9396552 6.59375,8.0695059 6.59375,8.2128906 c 0,0.1447732 0.052535,0.2778502 0.1542969,0.3730469 L 6.75,8.5878906 h 0.00195 c 0.1140658,0.099808 0.2793264,0.1367188 0.4882813,0.1367188 H 8.2949219 V 8.5761719 C 8.4440906,8.6504587 8.5926684,8.7260582 8.75,8.7695312 c 0.2104763,0.058158 0.4302413,0.085938 0.65625,0.085938 0.631741,0 1.154962,-0.1851216 1.548828,-0.5566407 0.391922,-0.3724644 0.591797,-0.8450471 0.591797,-1.3964843 0,-0.5753912 -0.207922,-1.0778747 -0.617187,-1.484375 C 10.52013,5.0111789 10.009791,4.8046875 9.421875,4.8046875 c -0.2201056,0 -0.438067,0.034211 -0.6542969,0.1035156 -0.1606243,0.050065 -0.316575,0.1381397 -0.4726562,0.2265625 V 3.3652344 H 8.1933594 Z m 0,0.203125 H 8.0917969 V 5.484375 L 8.25,5.3808594 C 8.441788,5.2555579 8.6338782,5.1640601 8.828125,5.1035156 v -0.00195 c 0.1972102,-0.063209 0.3951149,-0.09375 0.59375,-0.09375 0.5410927,0 0.988362,0.1823018 1.363281,0.5546875 0.375211,0.3726752 0.558594,0.8127279 0.558594,1.3398438 0,0.5033651 -0.173846,0.9121955 -0.529297,1.25 -0.353506,0.3334493 -0.815525,0.5 -1.408203,0.5 -0.2086334,0 -0.4091997,-0.026925 -0.6015625,-0.080078 C 8.6118146,8.518972 8.4252072,8.4404971 8.2441406,8.3359375 L 8.0917969,8.2480469 V 8.5214844 H 7.2402344 c -0.1823319,0 -0.2976336,-0.037698 -0.3535156,-0.085937 h -0.00195 C 6.8235761,8.3774792 6.796875,8.3109017 6.796875,8.2128906 6.796875,8.1177523 6.8241971,8.0564154 6.8886719,8 h 0.00195 v -0.00195 c 0.056275,-0.050999 0.1696169,-0.087891 0.3496094,-0.087891 H 7.4804688 V 4.1796875 H 7.2402344 c -0.1823319,0 -0.2976336,-0.037698 -0.3535156,-0.085937 h -0.00195 C 6.8235881,4.0356863 6.796875,3.9710488 6.796875,3.8730469 c 0,-0.095892 0.027811,-0.1588141 0.089844,-0.2148438 0.055884,-0.050645 0.1706907,-0.089844 0.3535156,-0.089844 z m 2.1699218,2.0507812 c -0.3625551,0 -0.6803755,0.1285331 -0.9335937,0.3789063 -0.2528671,0.2500259 -0.3847656,0.5630356 -0.3847656,0.9160156 0,0.3234955 0.1202283,0.6033607 0.3515625,0.8144531 0.234902,0.2114119 0.5631301,0.3125 0.9667968,0.3125 0.4036668,0 0.7318948,-0.1010881 0.9667968,-0.3125 0.233555,-0.2104873 0.355469,-0.4862262 0.355469,-0.8027344 0,-0.3603556 -0.131487,-0.6773019 -0.384766,-0.9277343 C 10.094303,5.7475397 9.7751808,5.6191406 9.4101562,5.6191406 Z m 0,0.203125 c 0.3187419,0 0.5765301,0.1043743 0.7949218,0.3203125 0.218468,0.2160128 0.324219,0.4703935 0.324219,0.7832031 0,0.2665485 -0.09328,0.4758937 -0.289063,0.6523438 -0.189139,0.1702252 -0.4598695,0.2597656 -0.8300778,0.2597656 -0.3702082,0 -0.6409389,-0.08954 -0.8300781,-0.2597656 C 8.3873712,7.4022799 8.2949219,7.1895252 8.2949219,6.9140625 8.2949219,6.6097786 8.400262,6.3589974 8.6191406,6.1425781 8.8376681,5.9265059 9.0942455,5.8222656 9.4101562,5.8222656 Z"
           id="path2076" />
      </g>
    </g>
  </g>
</svg>
