<?xml version="1.0" encoding="UTF-8" standalone="no"?>
<svg
   xmlns:dc="http://purl.org/dc/elements/1.1/"
   xmlns:cc="http://creativecommons.org/ns#"
   xmlns:rdf="http://www.w3.org/1999/02/22-rdf-syntax-ns#"
   xmlns:svg="http://www.w3.org/2000/svg"
   xmlns="http://www.w3.org/2000/svg"
   xmlns:sodipodi="http://sodipodi.sourceforge.net/DTD/sodipodi-0.dtd"
   xmlns:inkscape="http://www.inkscape.org/namespaces/inkscape"
   width="48"
   height="48"
   viewBox="0 0 12.69984 12.69984"
   version="1.1"
   id="svg8"
   inkscape:export-filename="C:\Users\phils\Documents\Unity\basic_graphics\terrain\semicircledown.png"
   inkscape:export-xdpi="96.000008"
   inkscape:export-ydpi="96.000008"
   inkscape:version="1.0.1 (3bc2e813f5, 2020-09-07)"
   sodipodi:docname="text.svg">
  <defs
     id="defs2">
    <marker
       style="overflow:visible;"
       id="Arrow2Lend"
       refX="0.0"
       refY="0.0"
       orient="auto"
       inkscape:stockid="Arrow2Lend"
       inkscape:isstock="true">
      <path
         transform="scale(1.1) rotate(180) translate(1,0)"
         d="M 8.7185878,4.0337352 L -2.2072895,0.016013256 L 8.7185884,-4.0017078 C 6.9730900,-1.6296469 6.9831476,1.6157441 8.7185878,4.0337352 z "
         style="fill-rule:evenodd;stroke-width:0.625;stroke-linejoin:round;stroke:#000000;stroke-opacity:1;fill:#000000;fill-opacity:1"
         id="path4530" />
    </marker>
    <marker
       style="overflow:visible;"
       id="Arrow1Lend"
       refX="0.0"
       refY="0.0"
       orient="auto"
       inkscape:stockid="Arrow1Lend"
       inkscape:isstock="true">
      <path
         transform="scale(0.8) rotate(180) translate(12.5,0)"
         style="fill-rule:evenodd;stroke:#000000;stroke-width:1pt;stroke-opacity:1;fill:#000000;fill-opacity:1"
         d="M 0.0,0.0 L 5.0,-5.0 L -12.5,0.0 L 5.0,5.0 L 0.0,0.0 z "
         id="path4512" />
    </marker>
  </defs>
  <sodipodi:namedview
     id="base"
     pagecolor="#ffffff"
     bordercolor="#666666"
     borderopacity="1.0"
     inkscape:pageopacity="0.0"
     inkscape:pageshadow="2"
     inkscape:zoom="16"
     inkscape:cx="19.485277"
     inkscape:cy="20.737927"
     inkscape:document-units="px"
     inkscape:current-layer="layer3"
     inkscape:document-rotation="0"
     showgrid="true"
     units="px"
     inkscape:pagecheckerboard="true"
     borderlayer="true"
     inkscape:showpageshadow="false"
     inkscape:window-width="1920"
     inkscape:window-height="1051"
     inkscape:window-x="902"
     inkscape:window-y="1084"
     inkscape:window-maximized="1"
     guidetolerance="20">
    <inkscape:grid
       type="xygrid"
       id="grid833"
       spacingx="0.26458"
       spacingy="0.26458"
       empspacing="4"
       dotted="false" />
  </sodipodi:namedview>
  <metadata
     id="metadata5">
    <rdf:RDF>
      <cc:Work
         rdf:about="">
        <dc:format>image/svg+xml</dc:format>
        <dc:type
           rdf:resource="http://purl.org/dc/dcmitype/StillImage" />
        <dc:title />
      </cc:Work>
    </rdf:RDF>
  </metadata>
  <g
     inkscape:groupmode="layer"
     id="layer2"
     inkscape:label="Box"
     style="display:inline" />
  <g
     inkscape:groupmode="layer"
     id="layer3"
     inkscape:label="Letter">
    <path
       style="color:#000000;font-style:normal;font-variant:normal;font-weight:normal;font-stretch:normal;font-size:medium;line-height:normal;font-family:sans-serif;font-variant-ligatures:normal;font-variant-position:normal;font-variant-caps:normal;font-variant-numeric:normal;font-variant-alternates:normal;font-variant-east-asian:normal;font-feature-settings:normal;font-variation-settings:normal;text-indent:0;text-align:start;text-decoration:none;text-decoration-line:none;text-decoration-style:solid;text-decoration-color:#000000;letter-spacing:normal;word-spacing:normal;text-transform:none;writing-mode:lr-tb;direction:ltr;text-orientation:mixed;dominant-baseline:auto;baseline-shift:baseline;text-anchor:start;white-space:normal;shape-padding:0;shape-margin:0;inline-size:0;clip-rule:nonzero;display:inline;overflow:visible;visibility:visible;isolation:auto;mix-blend-mode:normal;color-interpolation:sRGB;color-interpolation-filters:linearRGB;solid-color:#000000;solid-opacity:1;vector-effect:none;fill:#000000;fill-opacity:1;fill-rule:evenodd;stroke:none;stroke-width:1.05832;stroke-linecap:round;stroke-linejoin:round;stroke-miterlimit:4;stroke-dasharray:none;stroke-dashoffset:0;stroke-opacity:1;color-rendering:auto;image-rendering:auto;shape-rendering:auto;text-rendering:auto;enable-background:accumulate;stop-color:#000000;stop-opacity:1;opacity:1"
       d="M 1.5878906 0.52929688 C 1.0107343 0.52929687 0.52929687 1.0107343 0.52929688 1.5878906 L 0.52929688 11.113281 C 0.52929687 11.690438 1.0107336 12.169922 1.5878906 12.169922 L 11.113281 12.169922 C 11.690438 12.169922 12.169922 11.690438 12.169922 11.113281 L 12.169922 1.5878906 C 12.169922 1.0107336 11.690438 0.52929687 11.113281 0.52929688 L 1.5878906 0.52929688 z M 1.5878906 1.5878906 L 11.113281 1.5878906 L 11.113281 11.113281 L 1.5878906 11.113281 L 1.5878906 1.5878906 z "
       id="path4971" />
    <g
       aria-label="A"
       id="text6153"
       style="font-style:normal;font-variant:normal;font-weight:bold;font-stretch:normal;font-size:4.93883px;line-height:1.25;font-family:monospace;-inkscape-font-specification:'monospace, Bold';font-variant-ligatures:normal;font-variant-caps:normal;font-variant-numeric:normal;font-variant-east-asian:normal;stroke-width:0.26458">
      <g
         id="g10121"
         style="opacity:1">
        <path
           style="color:#000000;font-style:normal;font-variant:normal;font-weight:bold;font-stretch:normal;font-size:4.93883px;line-height:1.25;font-family:monospace;-inkscape-font-specification:'monospace, Bold';font-variant-ligatures:normal;font-variant-position:normal;font-variant-caps:normal;font-variant-numeric:normal;font-variant-alternates:normal;font-variant-east-asian:normal;font-feature-settings:normal;font-variation-settings:normal;text-indent:0;text-align:start;text-decoration:none;text-decoration-line:none;text-decoration-style:solid;text-decoration-color:#000000;letter-spacing:normal;word-spacing:normal;text-transform:none;writing-mode:lr-tb;direction:ltr;text-orientation:mixed;dominant-baseline:auto;baseline-shift:baseline;text-anchor:start;white-space:normal;shape-padding:0;shape-margin:0;inline-size:0;clip-rule:nonzero;display:inline;overflow:visible;visibility:visible;isolation:auto;mix-blend-mode:normal;color-interpolation:sRGB;color-interpolation-filters:linearRGB;solid-color:#000000;solid-opacity:1;vector-effect:none;fill:#000000;fill-opacity:1;fill-rule:nonzero;stroke-width:0.26458;stroke-linecap:butt;stroke-linejoin:miter;stroke-miterlimit:4;stroke-dasharray:none;stroke-dashoffset:0;stroke-opacity:1.0;color-rendering:auto;image-rendering:auto;shape-rendering:auto;text-rendering:auto;enable-background:accumulate;stop-color:#000000;stop-opacity:1;stroke:none;"
           d="M 4.4090803,4.2310112 H 3.2081343 L 3.0875574,4.5324535 h 0.1205769 c 0.1189692,0 0.203373,0.023312 0.2532115,0.069935 0.051446,0.045015 0.077169,0.1044999 0.077169,0.1784538 0,0.072346 -0.025723,0.1318307 -0.077169,0.1784538 -0.049839,0.045015 -0.1342425,0.067523 -0.2532115,0.067523 H 2.5425498 c -0.1189692,0 -0.203373,-0.022508 -0.2532115,-0.067523 -0.051446,-0.046623 -0.077169,-0.1069118 -0.077169,-0.1808654 0,-0.073954 0.026527,-0.1342422 0.079581,-0.1808653 0.053054,-0.046623 0.1406732,-0.068327 0.2628576,-0.065112 L 3.3311228,2.5983999 H 3.0079767 c -0.1189693,0 -0.204177,-0.022508 -0.2556231,-0.067523 -0.049839,-0.046623 -0.074758,-0.1069118 -0.074758,-0.1808654 0,-0.073954 0.024919,-0.1334384 0.074758,-0.1784538 0.051446,-0.046623 0.1366537,-0.069935 0.2556231,-0.069935 l 1.0683113,0.00241 0.9839075,2.4284188 c 0.1157539,0 0.1921192,0.012862 0.2290961,0.038585 0.073954,0.053054 0.1109308,0.1229886 0.1109308,0.2098038 0,0.072346 -0.024919,0.1318307 -0.074758,0.1784538 -0.049839,0.045015 -0.1342425,0.067523 -0.2532115,0.067523 H 4.4066687 c -0.1189692,0 -0.2041769,-0.022508 -0.255623,-0.067523 -0.049839,-0.046623 -0.074758,-0.1069118 -0.074758,-0.1808654 0,-0.072346 0.024919,-0.1310269 0.074758,-0.1760422 0.051446,-0.046623 0.1366537,-0.069935 0.255623,-0.069935 H 4.5272456 Z M 4.2040995,3.7366459 3.8061957,2.7575615 3.4058804,3.7366459 Z"
           id="path10123" />
        <path
           style="color:#000000;font-style:normal;font-variant:normal;font-weight:bold;font-stretch:normal;font-size:4.93883px;line-height:1.25;font-family:monospace;-inkscape-font-specification:'monospace, Bold';font-variant-ligatures:normal;font-variant-position:normal;font-variant-caps:normal;font-variant-numeric:normal;font-variant-alternates:normal;font-variant-east-asian:normal;font-feature-settings:normal;font-variation-settings:normal;text-indent:0;text-align:start;text-decoration:none;text-decoration-line:none;text-decoration-style:solid;text-decoration-color:#000000;letter-spacing:normal;word-spacing:normal;text-transform:none;writing-mode:lr-tb;direction:ltr;text-orientation:mixed;dominant-baseline:auto;baseline-shift:baseline;text-anchor:start;white-space:normal;shape-padding:0;shape-margin:0;inline-size:0;clip-rule:nonzero;display:inline;overflow:visible;visibility:visible;isolation:auto;mix-blend-mode:normal;color-interpolation:sRGB;color-interpolation-filters:linearRGB;solid-color:#000000;solid-opacity:1;vector-effect:none;fill-opacity:1;fill-rule:nonzero;stroke-width:0.26458;stroke-linecap:butt;stroke-linejoin:miter;stroke-miterlimit:4;stroke-dasharray:none;stroke-dashoffset:0;stroke-opacity:1.0;color-rendering:auto;image-rendering:auto;shape-rendering:auto;text-rendering:auto;enable-background:accumulate;stop-color:#000000;stop-opacity:1;stroke:none;"
           d="M 3.0078125 1.96875 C 2.8715619 1.96875 2.7531068 1.9935217 2.6640625 2.0742188 C 2.5874818 2.1433881 2.5449219 2.2459381 2.5449219 2.3496094 C 2.5449219 2.4532805 2.5867877 2.5564908 2.6621094 2.6269531 L 2.6640625 2.6289062 L 2.6660156 2.6308594 C 2.7554937 2.7091526 2.872158 2.7304688 3.0078125 2.7304688 L 3.1367188 2.7304688 L 2.453125 4.4296875 C 2.3633246 4.4395825 2.2696289 4.4413203 2.2050781 4.4980469 C 2.1259712 4.5675648 2.0800781 4.6737084 2.0800781 4.7792969 C 2.0800781 4.8839264 2.1239365 4.9866455 2.2011719 5.0566406 C 2.2898669 5.1367521 2.4073143 5.1582031 2.5429688 5.1582031 L 3.2089844 5.1582031 C 3.3446386 5.1582031 3.4620862 5.1367519 3.5507812 5.0566406 C 3.6274562 4.9871537 3.6699219 4.8849537 3.6699219 4.78125 C 3.6699219 4.6781191 3.6271435 4.574544 3.5507812 4.5058594 C 3.4791968 4.4388929 3.3784088 4.4280316 3.2734375 4.4199219 L 3.296875 4.3632812 L 4.3183594 4.3632812 L 4.3417969 4.4199219 C 4.2366875 4.4280491 4.1348397 4.4383478 4.0625 4.5039062 C 3.9865006 4.5725505 3.9433594 4.6765729 3.9433594 4.7792969 C 3.9433594 4.882968 3.9852252 4.9861783 4.0605469 5.0566406 L 4.0625 5.0566406 L 4.0644531 5.0585938 C 4.1539312 5.136887 4.2705956 5.1582031 4.40625 5.1582031 L 5.0722656 5.1582031 C 5.2079199 5.1582031 5.3253675 5.1367519 5.4140625 5.0566406 L 5.4160156 5.0566406 C 5.4907836 4.9866967 5.5332031 4.883974 5.5332031 4.78125 C 5.5332031 4.6568709 5.4689111 4.5358664 5.3671875 4.4628906 L 5.3652344 4.4628906 C 5.3039835 4.4202809 5.2302638 4.4241716 5.1582031 4.4199219 L 4.1660156 1.9726562 L 3.0078125 1.96875 z M 3.0078125 2.234375 L 3.9863281 2.2363281 L 4.9707031 4.6640625 L 5.0605469 4.6640625 C 5.1665014 4.6640625 5.2290367 4.6909197 5.2128906 4.6796875 C 5.2573351 4.7119564 5.2675781 4.7327252 5.2675781 4.78125 C 5.2675781 4.8220122 5.2595812 4.8390453 5.2363281 4.8613281 C 5.2362025 4.8614416 5.2345112 4.8612112 5.234375 4.8613281 C 5.2226059 4.8714361 5.1733796 4.8945313 5.0722656 4.8945312 L 4.40625 4.8945312 C 4.3051054 4.8945312 4.2543684 4.8712268 4.2402344 4.859375 C 4.2184911 4.8381251 4.2089844 4.8214018 4.2089844 4.7792969 C 4.2089844 4.7373286 4.2165564 4.7225583 4.2402344 4.7011719 C 4.2540821 4.6886222 4.3045619 4.6640625 4.40625 4.6640625 L 4.7207031 4.6640625 L 4.5 4.0996094 L 4.4082031 4.0996094 L 3.1191406 4.0996094 L 2.8925781 4.6640625 L 3.2089844 4.6640625 C 3.3106723 4.6640625 3.3596052 4.6884713 3.3710938 4.6992188 L 3.3730469 4.7011719 L 3.375 4.7011719 C 3.3994272 4.7225457 3.40625 4.737972 3.40625 4.78125 C 3.40625 4.8222386 3.3992639 4.8375689 3.3730469 4.8613281 C 3.3620646 4.8712476 3.3112681 4.8945312 3.2089844 4.8945312 L 2.5429688 4.8945312 C 2.4406848 4.8945312 2.3898882 4.8712473 2.3789062 4.8613281 C 2.3532496 4.8380766 2.34375 4.8225745 2.34375 4.7792969 C 2.34375 4.7369778 2.3519051 4.7209938 2.3789062 4.6972656 C 2.3930013 4.684879 2.4459092 4.6613027 2.5507812 4.6640625 L 2.6425781 4.6679688 L 3.5273438 2.4667969 L 3.0078125 2.4667969 C 2.9066679 2.4667969 2.8559309 2.4434924 2.8417969 2.4316406 L 2.8398438 2.4316406 C 2.8170297 2.4097723 2.8105469 2.3926056 2.8105469 2.3496094 C 2.8105469 2.305373 2.8187002 2.2903927 2.8417969 2.2695312 C 2.8556446 2.2569816 2.9061243 2.234375 3.0078125 2.234375 z M 3.8066406 2.40625 L 3.2089844 3.8691406 L 4.4003906 3.8691406 L 4.3261719 3.6875 L 3.8066406 2.40625 z M 3.8066406 3.1074219 L 4.0078125 3.6035156 L 3.6035156 3.6035156 L 3.8066406 3.1074219 z "
           id="path10125" />
      </g>
    </g>
    <path
       id="path10145"
       style="color:#000000;font-style:normal;font-variant:normal;font-weight:normal;font-stretch:normal;font-size:medium;line-height:normal;font-family:sans-serif;font-variant-ligatures:normal;font-variant-position:normal;font-variant-caps:normal;font-variant-numeric:normal;font-variant-alternates:normal;font-variant-east-asian:normal;font-feature-settings:normal;font-variation-settings:normal;text-indent:0;text-align:start;text-decoration:none;text-decoration-line:none;text-decoration-style:solid;text-decoration-color:#000000;letter-spacing:normal;word-spacing:normal;text-transform:none;writing-mode:lr-tb;direction:ltr;text-orientation:mixed;dominant-baseline:auto;baseline-shift:baseline;text-anchor:start;white-space:normal;shape-padding:0;shape-margin:0;inline-size:0;clip-rule:nonzero;display:inline;overflow:visible;visibility:visible;opacity:1;isolation:auto;mix-blend-mode:normal;color-interpolation:sRGB;color-interpolation-filters:linearRGB;solid-color:#000000;solid-opacity:1;vector-effect:none;fill:#000000;fill-opacity:1;fill-rule:nonzero;stroke:none;stroke-width:4;stroke-linecap:round;stroke-linejoin:round;stroke-miterlimit:4;stroke-dasharray:none;stroke-dashoffset:0;stroke-opacity:1;color-rendering:auto;image-rendering:auto;shape-rendering:auto;text-rendering:auto;enable-background:accumulate;stop-color:#000000;stop-opacity:1"
       d="M 23.998047 8.0019531 A 2.0000001 2.0000001 0 0 0 21.998047 10.001953 A 2.0000001 2.0000001 0 0 0 23.998047 12.003906 L 36.001953 12.003906 A 2.0000001 2.0000001 0 0 0 38.001953 10.001953 A 2.0000001 2.0000001 0 0 0 36.001953 8.0019531 L 23.998047 8.0019531 z "
       transform="scale(0.26458)" />
    <path
       id="path10141"
       style="color:#000000;font-style:normal;font-variant:normal;font-weight:normal;font-stretch:normal;font-size:medium;line-height:normal;font-family:sans-serif;font-variant-ligatures:normal;font-variant-position:normal;font-variant-caps:normal;font-variant-numeric:normal;font-variant-alternates:normal;font-variant-east-asian:normal;font-feature-settings:normal;font-variation-settings:normal;text-indent:0;text-align:start;text-decoration:none;text-decoration-line:none;text-decoration-style:solid;text-decoration-color:#000000;letter-spacing:normal;word-spacing:normal;text-transform:none;writing-mode:lr-tb;direction:ltr;text-orientation:mixed;dominant-baseline:auto;baseline-shift:baseline;text-anchor:start;white-space:normal;shape-padding:0;shape-margin:0;inline-size:0;clip-rule:nonzero;display:inline;overflow:visible;visibility:visible;opacity:1;isolation:auto;mix-blend-mode:normal;color-interpolation:sRGB;color-interpolation-filters:linearRGB;solid-color:#000000;solid-opacity:1;vector-effect:none;fill:#000000;fill-opacity:1;fill-rule:nonzero;stroke:none;stroke-width:4;stroke-linecap:round;stroke-linejoin:round;stroke-miterlimit:4;stroke-dasharray:none;stroke-dashoffset:0;stroke-opacity:1;color-rendering:auto;image-rendering:auto;shape-rendering:auto;text-rendering:auto;enable-background:accumulate;stop-color:#000000;stop-opacity:1"
       d="M 23.998047 15 A 2.0000001 2.0000001 0 0 0 21.998047 17 A 2.0000001 2.0000001 0 0 0 23.998047 19.001953 L 36.001953 19.001953 A 2.0000001 2.0000001 0 0 0 38.001953 17 A 2.0000001 2.0000001 0 0 0 36.001953 15 L 23.998047 15 z "
       transform="scale(0.26458)" />
    <path
       id="path10137"
       style="color:#000000;font-style:normal;font-variant:normal;font-weight:normal;font-stretch:normal;font-size:medium;line-height:normal;font-family:sans-serif;font-variant-ligatures:normal;font-variant-position:normal;font-variant-caps:normal;font-variant-numeric:normal;font-variant-alternates:normal;font-variant-east-asian:normal;font-feature-settings:normal;font-variation-settings:normal;text-indent:0;text-align:start;text-decoration:none;text-decoration-line:none;text-decoration-style:solid;text-decoration-color:#000000;letter-spacing:normal;word-spacing:normal;text-transform:none;writing-mode:lr-tb;direction:ltr;text-orientation:mixed;dominant-baseline:auto;baseline-shift:baseline;text-anchor:start;white-space:normal;shape-padding:0;shape-margin:0;inline-size:0;clip-rule:nonzero;display:inline;overflow:visible;visibility:visible;opacity:1;isolation:auto;mix-blend-mode:normal;color-interpolation:sRGB;color-interpolation-filters:linearRGB;solid-color:#000000;solid-opacity:1;vector-effect:none;fill:#000000;fill-opacity:1;fill-rule:nonzero;stroke:none;stroke-width:4;stroke-linecap:round;stroke-linejoin:round;stroke-miterlimit:4;stroke-dasharray:none;stroke-dashoffset:0;stroke-opacity:1;color-rendering:auto;image-rendering:auto;shape-rendering:auto;text-rendering:auto;enable-background:accumulate;stop-color:#000000;stop-opacity:1"
       d="M 10.001953 21.998047 A 2.0000001 2.0000001 0 0 0 8.0019531 23.998047 A 2.0000001 2.0000001 0 0 0 10.001953 26 L 36.001953 26 A 2.0000001 2.0000001 0 0 0 38.001953 23.998047 A 2.0000001 2.0000001 0 0 0 36.001953 21.998047 L 10.001953 21.998047 z "
       transform="scale(0.26458)" />
    <path
       id="path10133"
       style="color:#000000;font-style:normal;font-variant:normal;font-weight:normal;font-stretch:normal;font-size:medium;line-height:normal;font-family:sans-serif;font-variant-ligatures:normal;font-variant-position:normal;font-variant-caps:normal;font-variant-numeric:normal;font-variant-alternates:normal;font-variant-east-asian:normal;font-feature-settings:normal;font-variation-settings:normal;text-indent:0;text-align:start;text-decoration:none;text-decoration-line:none;text-decoration-style:solid;text-decoration-color:#000000;letter-spacing:normal;word-spacing:normal;text-transform:none;writing-mode:lr-tb;direction:ltr;text-orientation:mixed;dominant-baseline:auto;baseline-shift:baseline;text-anchor:start;white-space:normal;shape-padding:0;shape-margin:0;inline-size:0;clip-rule:nonzero;display:inline;overflow:visible;visibility:visible;opacity:1;isolation:auto;mix-blend-mode:normal;color-interpolation:sRGB;color-interpolation-filters:linearRGB;solid-color:#000000;solid-opacity:1;vector-effect:none;fill:#000000;fill-opacity:1;fill-rule:nonzero;stroke:none;stroke-width:4;stroke-linecap:round;stroke-linejoin:round;stroke-miterlimit:4;stroke-dasharray:none;stroke-dashoffset:0;stroke-opacity:1;color-rendering:auto;image-rendering:auto;shape-rendering:auto;text-rendering:auto;enable-background:accumulate;stop-color:#000000;stop-opacity:1"
       d="M 10.001953 28.996094 A 2.0000001 2.0000001 0 0 0 8.0019531 30.996094 A 2.0000001 2.0000001 0 0 0 10.001953 32.998047 L 36.001953 32.998047 A 2.0000001 2.0000001 0 0 0 38.001953 30.996094 A 2.0000001 2.0000001 0 0 0 36.001953 28.996094 L 10.001953 28.996094 z "
       transform="scale(0.26458)" />
    <path
       id="path10129"
       style="color:#000000;font-style:normal;font-variant:normal;font-weight:normal;font-stretch:normal;font-size:medium;line-height:normal;font-family:sans-serif;font-variant-ligatures:normal;font-variant-position:normal;font-variant-caps:normal;font-variant-numeric:normal;font-variant-alternates:normal;font-variant-east-asian:normal;font-feature-settings:normal;font-variation-settings:normal;text-indent:0;text-align:start;text-decoration:none;text-decoration-line:none;text-decoration-style:solid;text-decoration-color:#000000;letter-spacing:normal;word-spacing:normal;text-transform:none;writing-mode:lr-tb;direction:ltr;text-orientation:mixed;dominant-baseline:auto;baseline-shift:baseline;text-anchor:start;white-space:normal;shape-padding:0;shape-margin:0;inline-size:0;clip-rule:nonzero;display:inline;overflow:visible;visibility:visible;opacity:1;isolation:auto;mix-blend-mode:normal;color-interpolation:sRGB;color-interpolation-filters:linearRGB;solid-color:#000000;solid-opacity:1;vector-effect:none;fill:#000000;fill-opacity:1;fill-rule:nonzero;stroke:none;stroke-width:4;stroke-linecap:round;stroke-linejoin:round;stroke-miterlimit:4;stroke-dasharray:none;stroke-dashoffset:0;stroke-opacity:1;color-rendering:auto;image-rendering:auto;shape-rendering:auto;text-rendering:auto;enable-background:accumulate;stop-color:#000000;stop-opacity:1"
       d="M 10.001953 36.001953 A 2.0000001 2.0000001 0 0 0 8.0019531 38.001953 A 2.0000001 2.0000001 0 0 0 10.001953 40.003906 L 36.001953 40.003906 A 2.0000001 2.0000001 0 0 0 38.001953 38.001953 A 2.0000001 2.0000001 0 0 0 36.001953 36.001953 L 10.001953 36.001953 z "
       transform="scale(0.26458)" />
  </g>
</svg>
