<?xml version="1.0" standalone="no"?>
<!DOCTYPE svg PUBLIC "-//W3C//DTD SVG 1.1//EN" "http://www.w3.org/Graphics/SVG/1.1/DTD/svg11.dtd" >
<svg xmlns="http://www.w3.org/2000/svg">
<metadata>Generated by IcoMoon</metadata>
<defs>
<font id="icomoon" horiz-adv-x="1024">
<font-face units-per-em="1024" ascent="960" descent="-64" />
<missing-glyph horiz-adv-x="1024" />
<glyph unicode="&#x20;" horiz-adv-x="512" d="" />
<glyph unicode="&#xe900;" glyph-name="width" d="M85.355 917.322c-0.003 0-0.007 0-0.011 0-23.564 0-42.667-19.103-42.667-42.667 0-0.004 0-0.008 0-0.012v0.001-853.239c0-0.003 0-0.007 0-0.011 0-23.564 19.103-42.667 42.667-42.667 0.004 0 0.008 0 0.012 0h-0.001c0.003 0 0.007 0 0.011 0 23.564 0 42.667 19.103 42.667 42.667 0 0.004 0 0.008 0 0.012v-0.001 853.239c0 0.003 0 0.007 0 0.011 0 23.564-19.103 42.667-42.667 42.667-0.004 0-0.008 0-0.012 0h0.001zM938.595 917.322c-23.501-0.083-42.52-19.154-42.52-42.666 0-0.004 0-0.008 0-0.012v0.001-853.239c0-0.003 0-0.007 0-0.011 0-23.513 19.019-42.583 42.512-42.666h0.008c0.003 0 0.007 0 0.011 0 23.564 0 42.667 19.103 42.667 42.667 0 0.004 0 0.008 0 0.012v-0.001 853.239c0 0.003 0 0.007 0 0.011 0 23.564-19.103 42.667-42.667 42.667-0.004 0-0.008 0-0.012 0h0.001zM256.066 490.703c-0.003 0-0.007 0-0.011 0-23.564 0-42.667-19.103-42.667-42.667 0-0.004 0-0.008 0-0.012v0.001c0-0.003 0-0.007 0-0.011 0-23.564 19.103-42.667 42.667-42.667 0.004 0 0.008 0 0.012 0h554.652c0.003 0 0.007 0 0.011 0 23.564 0 42.667 19.103 42.667 42.667 0 0.004 0 0.008 0 0.012v-0.001c0 0.003 0 0.007 0 0.011 0 23.564-19.103 42.667-42.667 42.667-0.004 0-0.008 0-0.012 0h-554.652zM382.997 661.256c-11.397-0.273-21.646-4.974-29.135-12.442l-200.946-200.789 200.947-200.79c7.72-7.714 18.382-12.485 30.158-12.485s22.438 4.771 30.158 12.485v0c7.714 7.72 12.485 18.382 12.485 30.158s-4.771 22.438-12.485 30.158l-140.474 140.474 140.474 140.474c7.714 7.72 12.485 18.382 12.485 30.158s-4.771 22.438-12.485 30.158v0c-7.717 7.696-18.366 12.454-30.127 12.454-0.371 0-0.74-0.005-1.109-0.014l0.054 0.001zM639.063 661.256c-11.455-0.23-21.767-4.939-29.293-12.442l0.001 0.001c-7.714-7.72-12.485-18.382-12.485-30.158s4.771-22.438 12.485-30.158v0l140.632-140.474-140.632-140.474c-7.714-7.72-12.485-18.382-12.485-30.158s4.771-22.438 12.485-30.158v0c7.728-7.761 18.421-12.564 30.237-12.564s22.509 4.803 30.235 12.562l200.791 200.791-200.79 200.79c-7.717 7.696-18.366 12.454-30.127 12.454-0.371 0-0.74-0.005-1.109-0.014l0.054 0.001z" />
<glyph unicode="&#xe901;" glyph-name="unicode" d="M490.708 746.667v-384c0-40.533-12.515-78.62-35.125-104.708s-54.905-44.583-114.333-44.583c-59.429 0-91.557 18.495-114.167 44.583s-35.125 64.175-35.125 104.708v383.958h-128v-383.958c0-66.133 19.568-134.755 66.292-188.667s121.095-88.667 211-88.667c89.905 0 164.318 34.755 211.042 88.667s66.292 122.533 66.292 188.667v143.167l192.083-420.5h149.333l0.043 490.667h-128.043v-277.333l-203.583 448zM960 682.667c0-35.346-28.654-64-64-64v0c-35.346 0-64 28.654-64 64v0c0 35.346 28.654 64 64 64v0c35.346 0 64-28.654 64-64v0z" />
<glyph unicode="&#xe902;" glyph-name="undo" d="M510.083 832c-211.252-1.088-382.083-172.592-382.083-383.995 0-0.002 0-0.003 0-0.005v0h128c0 141.385 114.615 256 256 256v0c141.385 0 256-114.615 256-256v0c0-141.385-114.615-256-256-256v0c-35.346 0-64-28.654-64-64v0c0-35.346 28.654-64 64-64v0c0.161 0 0.351 0 0.542 0s0.381 0 0.571 0h-0.029c0.062 0 0.135 0 0.208 0s0.146 0 0.22 0h-0.011c211.431 0.852 382.5 172.447 382.5 383.997 0 0.001 0 0.002 0 0.003v0c0 212.077-171.923 384-384 384v0c-0.285 0.001-0.621 0.001-0.958 0.001s-0.674 0-1.011-0.001h0.052zM192 234.667l149.333 256h-298.667z" />
<glyph unicode="&#xe903;" glyph-name="text-layers" d="M108.822 706.152c-36.063 0-66.144-30.085-66.144-66.152v-595.243c0-36.067 30.082-66.030 66.144-66.030h595.178c36.063 0 66.022 29.963 66.022 66.030v595.243c0 36.067-29.96 66.152-66.022 66.152zM128 618.667h554.667v-554.667h-554.667zM318.683 459.774h-75.039l-7.534-18.837h7.534c7.434 0 12.707-1.457 15.821-4.37 3.215-2.813 4.822-6.53 4.822-11.152 0-4.521-1.607-8.238-4.822-11.152-3.114-2.813-8.388-4.22-15.821-4.22h-41.588c-7.434 0-12.707 1.407-15.821 4.22-3.215 2.913-4.822 6.681-4.822 11.302s1.657 8.389 4.972 11.302c3.315 2.913 8.79 4.27 16.424 4.069l48.519 120.859h-20.191c-7.434 0-12.758 1.407-15.972 4.22-3.114 2.913-4.671 6.681-4.671 11.302s1.557 8.339 4.671 11.152c3.215 2.913 8.539 4.37 15.972 4.37l66.752-0.151 61.478-151.752c7.233 0 12.004-0.804 14.315-2.411 4.621-3.315 6.931-7.686 6.931-13.111 0-4.521-1.557-8.238-4.671-11.152-3.114-2.813-8.388-4.22-15.821-4.22h-41.588c-7.434 0-12.758 1.407-15.972 4.22-3.114 2.913-4.671 6.681-4.671 11.302 0 4.521 1.557 8.188 4.671 11.001 3.215 2.913 8.539 4.37 15.972 4.37h7.534zM305.875 490.667l-24.862 61.183-25.013-61.183zM231.127 601.143c-8.513 0-15.915-1.548-21.479-6.591-4.785-4.322-7.444-10.731-7.444-17.209s2.616-12.928 7.322-17.331l0.244-0.244c5.591-4.893 12.88-6.225 21.357-6.225h8.055l-42.713-106.185c-5.611-0.619-11.465-0.727-15.499-4.272-4.943-4.344-7.81-10.977-7.81-17.575 0-6.538 2.74-12.957 7.566-17.331 5.542-5.006 12.88-6.347 21.357-6.347h41.615c8.476 0 15.815 1.34 21.357 6.347 4.791 4.342 7.444 10.729 7.444 17.209 0 6.445-2.673 12.917-7.444 17.209-4.473 4.185-10.77 4.863-17.329 5.37l1.464 3.54h63.826l1.464-3.54c-6.568-0.508-12.931-1.151-17.451-5.248-4.749-4.29-7.444-10.79-7.444-17.209 0-6.478 2.616-12.928 7.322-17.331h0.122l0.122-0.122c5.591-4.893 12.88-6.225 21.357-6.225h41.615c8.476 0 15.815 1.34 21.357 6.347h0.122c4.672 4.371 7.323 10.79 7.323 17.209 0 7.772-4.017 15.334-10.373 19.894h-0.122c-3.827 2.663-8.434 2.42-12.936 2.685l-61.995 152.93zM231.127 584.544l61.141-0.122 61.507-151.709h5.614c6.62 0 10.528-1.678 9.519-0.976 2.777-2.016 3.417-3.314 3.417-6.347 0-2.547-0.5-3.612-1.953-5.004-0.008-0.007-0.114 0.007-0.122 0-0.735-0.632-3.811-2.075-10.129-2.075h-41.615c-6.32 0-9.49 1.456-10.373 2.197-1.359 1.328-1.953 2.373-1.953 5.004 0 2.623 0.473 3.546 1.953 4.882 0.865 0.784 4.019 2.319 10.373 2.319h19.648l-13.79 35.273h-86.281l-14.156-35.273h19.77c6.354 0 9.411-1.525 10.129-2.197l0.122-0.122h0.122c1.526-1.336 1.953-2.3 1.953-5.004 0-2.561-0.437-3.519-2.075-5.004-0.686-0.62-3.86-2.075-10.251-2.075h-41.615c-6.391 0-9.565 1.455-10.251 2.075-1.603 1.453-2.197 2.422-2.197 5.126 0 2.645 0.51 3.643 2.197 5.126 0.881 0.774 4.187 2.247 10.739 2.075l5.736-0.244 55.283 137.551h-32.462c-6.32 0-9.49 1.456-10.373 2.197h-0.122c-1.425 1.367-1.831 2.439-1.831 5.126 0 2.764 0.509 3.7 1.953 5.004 0.865 0.784 4.019 2.197 10.373 2.197zM281.041 573.803l-37.344-91.416h74.443l-4.637 11.351zM281.041 529.987l12.57-31.001h-25.262zM427.079 606.455c-18.261 0.023-33.064-14.805-33.064-33.067-0.018-18.275 14.79-33.076 33.064-33.1l154.371-0.195c18.273-0.023 33.082 14.824 33.064 33.1 0 18.263-14.803 33.044-33.064 33.067zM427.079 490.752c-18.261 0.023-33.064-14.805-33.064-33.067-0.018-18.275 14.791-33.076 33.064-33.1l154.371-0.195c18.273-0.023 33.082 14.824 33.064 33.1 0 18.263-14.803 33.044-33.064 33.067zM196.169 375.048c-18.261 0.009-33.064-14.805-33.064-33.067-0.018-18.275 14.79-33.090 33.064-33.1l385.281-0.195c18.273 0 33.082 14.824 33.064 33.1 0 18.263-14.803 33.058-33.064 33.067zM196.169 259.345c-18.261 0.009-33.064-14.805-33.064-33.067-0.018-18.275 14.79-33.090 33.064-33.1l385.281-0.195c18.273 0 33.082 14.824 33.064 33.1 0 18.263-14.803 33.058-33.064 33.067zM192 149.333c-18.261 0.009-33.064-14.805-33.064-33.067-0.018-18.275 14.79-33.090 33.064-33.1l385.281-0.194c18.273 0 33.082 14.824 33.064 33.1 0 18.263-14.803 33.058-33.064 33.067zM213.389 917.322c-0.002 0-0.004 0-0.007 0-23.567 0-42.671-19.104-42.671-42.671 0-0.002 0-0.005 0-0.007v0-85.355c0-0.003 0-0.007 0-0.011 0-23.564 19.103-42.667 42.667-42.667 0.004 0 0.008 0 0.012 0h-0.001c0.003 0 0.007 0 0.011 0 23.564 0 42.667 19.103 42.667 42.667 0 0.004 0 0.008 0 0.012v-0.001 42.678h640.008v-682.686h-42.678c-0.003 0-0.007 0-0.011 0-23.564 0-42.667-19.103-42.667-42.667 0-0.004 0-0.008 0-0.012v0.001c0-0.003 0-0.007 0-0.011 0-23.564 19.103-42.667 42.667-42.667 0.004 0 0.008 0 0.012 0h85.197c0.002 0 0.004 0 0.007 0 23.567 0 42.671 19.104 42.671 42.671 0 0.002 0 0.005 0 0.007v0 768.041c0 0.002 0 0.004 0 0.007 0 23.567-19.104 42.671-42.671 42.671-0.002 0-0.005 0-0.007 0h-725.206z" />
<glyph unicode="&#xe904;" glyph-name="text-copy" d="M414.213 348.207h-153.817l-15.443-41.581h15.443c15.238 0 26.048-3.216 32.431-9.647 6.589-6.209 9.884-14.415 9.884-24.616 0-9.979-3.295-18.185-9.884-24.616-6.383-6.209-17.194-9.314-32.431-9.314h-85.248c-15.238 0-26.048 3.105-32.431 9.314-6.589 6.431-9.884 14.747-9.884 24.949s3.398 18.518 10.193 24.949c6.795 6.431 18.017 9.425 33.667 8.982l99.456 266.785h-41.388c-15.238 0-26.151 3.105-32.74 9.314-6.383 6.431-9.575 14.747-9.575 24.949s3.192 18.407 9.575 24.616c6.589 6.431 17.503 9.647 32.74 9.647l136.829-0.333 126.019-334.978c14.826 0 24.607-1.774 29.343-5.322 9.472-7.318 14.208-16.965 14.208-28.941 0-9.979-3.192-18.185-9.575-24.616-6.383-6.209-17.194-9.314-32.431-9.314h-85.248c-15.238 0-26.151 3.105-32.74 9.314-6.383 6.431-9.575 14.747-9.575 24.949 0 9.979 3.192 18.074 9.575 24.283 6.589 6.431 17.503 9.647 32.74 9.647h15.443zM387.959 416.401l-50.963 135.056-51.272-135.056zM234.755 650.459c-16.27 0-29.252-3.306-38.089-11.931-7.982-7.764-12.14-18.774-12.14-30.889s4.233-23.086 12.14-31.052v-0.163l0.152-0.163c8.862-8.352 21.702-11.44 37.937-11.44h29.591l-93.781-251.522c-13.026-0.584-25.139-2.086-32.778-9.316-8.352-7.905-12.899-18.978-12.899-31.216 0-12.176 4.313-23.443 12.443-31.379h0.152c8.706-8.469 21.399-11.44 37.634-11.44h85.283c16.235 0 29.080 2.972 37.785 11.44 8.097 7.903 12.443 19.054 12.443 31.052 0 12.098-4.34 23-12.443 30.725-0.032 0.032-0.12-0.032-0.152 0-8.674 8.668-21.423 11.931-37.634 11.931h-3.794l9.105 24.515h143.099l8.953-24.515h-3.794c-16.27 0-29.253-3.142-38.089-11.767-7.947-7.731-12.14-18.627-12.14-30.562 0-12.114 4.082-23.25 11.988-31.216l0.152-0.163c8.862-8.352 21.854-11.44 38.089-11.44h85.131c16.235 0 29.080 2.972 37.785 11.44v0.163h0.152c7.873 7.932 11.988 18.954 11.988 30.889 0 14.393-6.319 27.191-17.451 35.792h-0.152c-6.564 4.918-16.61 5.362-28.074 5.72l-126.407 336.18-142.189 0.327zM234.755 633.462l131.566-0.327 125.952-335.036h5.311c14.155 0 23.095-2.579 24.735-3.759 7.812-6.036 10.926-12.343 10.926-21.9 0-7.938-2.197-13.416-6.98-18.304-0.021-0.021-0.13 0.021-0.152 0-4.089-3.921-12.846-7.191-27.011-7.191h-85.131c-14.166 0-23.125 3.154-27.467 7.191h-0.152c-4.754 4.859-6.829 10.43-6.829 18.631 0 8.024 2.161 13.126 6.98 17.814v0.163c4.342 4.238 13.262 7.354 27.467 7.354h27.011l-21.397 58.672h-164.496l-21.852-58.672h27.163c14.205 0 22.92-3.233 27.011-7.354h0.152v-0.163c4.974-4.688 7.284-9.914 7.284-18.141 0-7.961-2.203-13.345-7.284-18.304-4.061-3.95-12.923-7.191-27.163-7.191h-85.283c-14.24 0-23.102 3.241-27.163 7.191-5.048 4.927-7.284 10.405-7.284 18.631 0 8.165 2.35 13.51 7.587 18.468 4.467 4.227 13.611 7.278 28.225 6.864l5.463-0.163 105.921 284.045h-53.112c-14.166 0-22.973 3.155-27.315 7.191h-0.152c-4.753 4.859-6.98 10.267-6.98 18.468 0 8.288 2.196 13.65 6.98 18.304 4.342 4.238 13.262 7.518 27.467 7.518zM337.034 573.973l-63.128-166.047h125.8l-4.401 11.604-58.272 154.444zM336.882 528.865l39.303-103.943h-78.758l39.455 103.943zM636.599 669.88v-153.019c15.443 10.867 31.093 18.961 46.948 24.283 16.061 5.544 32.225 8.316 48.492 8.316 43.859 0 81.027-16.3 111.502-48.9s45.713-71.963 45.713-118.091c0-44.132-14.517-81.056-43.551-110.772-29.034-29.495-67.333-44.242-114.899-44.242-16.885 0-33.152 2.329-48.801 6.986s-30.784 11.532-45.404 20.624v-16.632h-74.129c-15.238 0-26.151 3.105-32.74 9.314-6.383 6.431-9.575 14.747-9.575 24.949 0 9.979 3.295 18.074 9.884 24.283 6.589 6.431 17.4 9.647 32.431 9.647h10.81v295.060h-10.81c-15.238 0-26.151 3.105-32.74 9.314-6.383 6.431-9.575 14.747-9.575 24.949 0 9.979 3.192 18.074 9.575 24.283 6.589 6.431 17.503 9.647 32.74 9.647zM825.936 380.474c0 28.164-9.163 52.004-27.489 71.52s-40.771 29.273-67.333 29.273c-26.357 0-48.698-9.758-67.025-29.273s-27.489-43.023-27.489-70.522c0-25.060 8.237-45.684 24.71-61.873 16.473-15.967 39.741-23.951 69.804-23.951s53.331 7.984 69.804 23.951c16.679 16.189 25.018 36.481 25.018 60.875zM562.533 678.406c-16.27 0-29.252-3.306-38.089-11.931-7.947-7.731-12.14-18.627-12.14-30.562 0-12.114 4.082-23.086 11.988-31.052l0.303-0.327c8.862-8.352 21.702-11.44 37.937-11.44h2.883v-277.998h-2.883c-16.019 0-28.83-3.243-37.634-11.767-8.169-7.698-12.595-18.564-12.595-30.562 0-12.114 4.082-23.25 11.988-31.216l0.152-0.163h0.152c8.862-8.352 21.702-11.44 37.937-11.44h81.944v12.421c11.59-6.216 23.134-12.542 35.357-16.18 16.353-4.867 33.428-7.191 50.988-7.191 49.083 0 89.735 15.49 120.337 46.578 30.451 31.167 45.98 70.711 45.98 116.854 0 48.147-16.155 90.194-47.953 124.209-31.821 34.039-71.472 51.318-117.15 51.318-17.101 0-34.036-2.863-50.836-8.662-12.48-4.189-24.596-11.559-36.723-18.958v148.070h-81.944zM562.533 661.409h66.162v-160.327l12.292 8.662c14.901 10.485 29.826 18.141 44.918 23.207v0.163c15.322 5.289 30.699 7.845 46.132 7.845 42.040 0 76.791-15.255 105.921-46.415 29.152-31.184 43.4-68.007 43.4-112.115 0-42.12-13.507-76.33-41.124-104.597-27.466-27.902-63.363-41.839-109.411-41.839-16.21 0-31.793 2.253-46.739 6.701-14.985 4.459-29.484 11.026-43.552 19.775l-11.836 7.354v-22.881h-66.162c-14.166 0-23.125 3.154-27.467 7.191h-0.152c-4.754 4.859-6.829 10.43-6.829 18.631 0 7.961 2.123 13.093 7.132 17.814h0.152v0.163c4.372 4.267 13.178 7.354 27.163 7.354h18.665v312.156h-18.665c-14.166 0-23.125 3.154-27.467 7.191h-0.152c-4.753 4.859-6.829 10.267-6.829 18.468 0 8.024 2.161 13.289 6.98 17.978 4.342 4.238 13.262 7.518 27.467 7.518zM731.126 489.805c-28.169 0-52.862-10.755-72.536-31.706-19.647-20.922-29.895-47.113-29.895-76.65 0-27.069 9.341-50.488 27.315-68.151 18.251-17.69 43.753-26.149 75.116-26.149s56.865 8.459 75.116 26.149c18.146 17.613 27.618 40.686 27.618 67.171 0 30.154-10.216 56.675-29.895 77.63-19.684 20.962-44.479 31.706-72.839 31.706zM731.126 472.808c24.765 0 44.794-8.734 61.762-26.803 16.974-18.075 25.19-39.361 25.19-65.536 0-22.304-7.247-39.822-22.459-54.586-14.695-14.244-35.73-21.737-64.493-21.737s-49.798 7.493-64.493 21.737c-14.972 14.714-22.155 32.517-22.155 55.567 0 25.462 8.184 46.446 25.19 64.556 16.979 18.080 36.913 26.803 61.458 26.803zM63.938 938.74h170.71c0.004 0 0.008 0 0.012 0 23.564 0 42.667-19.103 42.667-42.667 0-0.004 0-0.008 0-0.011v0.001c0-0.004 0-0.008 0-0.012 0-23.564-19.103-42.667-42.667-42.667-0.004 0-0.008 0-0.011 0h-128.033v-128.032c0-0.004 0-0.008 0-0.012 0-23.564-19.103-42.667-42.667-42.667-0.004 0-0.008 0-0.011 0h0.001c-0.004 0-0.008 0-0.012 0-23.564 0-42.667 19.103-42.667 42.667 0 0.004 0 0.008 0 0.011v170.711l0.001 0.049c0.023 0.993 0.079 1.977 0.157 2.785l0.008 0.139c0.124 1.7 0.348 3.372 0.622 4.743l0.043 0.267c0.951 4.953 2.758 9.601 5.154 13.591l0.108 0.194c5.784 9.668 15.285 16.856 26.822 19.648l-0.296-0.064c3.213 0.822 6.572 1.278 10.059 1.324zM405.359 938.74h170.719c23.493-0.083 42.512-19.154 42.512-42.666 0-0.004 0-0.008 0-0.011v0.001c0-0.004 0-0.008 0-0.012 0-23.513-19.019-42.583-42.52-42.666h-170.71c-0.004 0-0.008 0-0.012 0-23.564 0-42.667 19.103-42.667 42.667 0 0.004 0 0.008 0 0.011v-0.001c0 0.004 0 0.008 0 0.012 0 23.564 19.103 42.667 42.667 42.667 0.004 0 0.008 0 0.011 0zM746.624 938.74h170.71c0.004 0 0.008 0 0.012 0 23.564 0 42.667-19.103 42.667-42.667 0-0.004 0-0.008 0-0.011v0.001c0-0.004 0-0.008 0-0.012 0-23.564-19.103-42.667-42.667-42.667-0.004 0-0.008 0-0.011 0h-170.71c-0.004 0-0.008 0-0.012 0-23.564 0-42.667 19.103-42.667 42.667 0 0.004 0 0.008 0 0.011v-0.001c0 0.004 0 0.008 0 0.012 0 23.564 19.103 42.667 42.667 42.667 0.004 0 0.008 0 0.011 0zM960.012 810.707h-0.001c0.004 0 0.008 0 0.012 0 23.564 0 42.667-19.103 42.667-42.667 0-0.004 0-0.008 0-0.011v-170.71c0-0.004 0-0.008 0-0.012 0-23.564-19.103-42.667-42.667-42.667-0.004 0-0.008 0-0.011 0h0.001c-0.004 0-0.008 0-0.012 0-23.564 0-42.667 19.103-42.667 42.667 0 0.004 0 0.008 0 0.011v170.71c0 0.004 0 0.008 0 0.012 0 23.564 19.103 42.667 42.667 42.667 0.004 0 0.008 0 0.011 0zM63.938 597.318h-0.001c0.004 0 0.008 0 0.012 0 23.564 0 42.667-19.103 42.667-42.667 0-0.004 0-0.008 0-0.011v-170.719c-0.083-23.493-19.154-42.512-42.666-42.512-0.004 0-0.008 0-0.011 0h0.001c-0.004 0-0.008 0-0.012 0-23.513 0-42.583 19.019-42.666 42.52v170.71c0 0.004 0 0.008 0 0.012 0 23.564 19.103 42.667 42.667 42.667 0.004 0 0.008 0 0.011 0zM960.012 469.285h-0.001c0.004 0 0.008 0 0.012 0 23.564 0 42.667-19.103 42.667-42.667 0-0.004 0-0.008 0-0.011v-170.552c0-0.004 0-0.008 0-0.012 0-23.564-19.103-42.667-42.667-42.667-0.004 0-0.008 0-0.011 0h0.001c-0.004 0-0.008 0-0.012 0-23.564 0-42.667 19.103-42.667 42.667 0 0.004 0 0.008 0 0.011v170.552c0 0.004 0 0.008 0 0.012 0 23.564 19.103 42.667 42.667 42.667 0.004 0 0.008 0 0.011 0zM63.938 256.054h-0.001c0.004 0 0.008 0 0.012 0 23.564 0 42.667-19.103 42.667-42.667 0-0.004 0-0.008 0-0.011v-170.71c0-0.004 0-0.008 0-0.012 0-23.564-19.103-42.667-42.667-42.667-0.004 0-0.008 0-0.011 0h0.001c-0.004 0-0.008 0-0.012 0-23.564 0-42.667 19.103-42.667 42.667 0 0.004 0 0.008 0 0.011v170.71c0 0.004 0 0.008 0 0.012 0 23.564 19.103 42.667 42.667 42.667 0.004 0 0.008 0 0.011 0zM960.012 128.021h-0.001c0.004 0 0.008 0 0.012 0 23.564 0 42.667-19.103 42.667-42.667 0-0.004 0-0.008 0-0.011v-85.355c0-0.002 0-0.005 0-0.007 0-23.567-19.104-42.671-42.671-42.671-0.002 0-0.005 0-0.007 0h-85.355c-0.004 0-0.008 0-0.012 0-23.564 0-42.667 19.103-42.667 42.667 0 0.004 0 0.008 0 0.011v-0.001c0 0.004 0 0.008 0 0.012 0 23.564 19.103 42.667 42.667 42.667 0.004 0 0.008 0 0.011 0h42.678v42.677c0 0.004 0 0.008 0 0.012 0 23.564 19.103 42.667 42.667 42.667 0.004 0 0.008 0 0.011 0zM191.971 42.666h170.71c0.004 0 0.008 0 0.012 0 23.564 0 42.667-19.103 42.667-42.667 0-0.004 0-0.008 0-0.011v0.001c0-0.004 0-0.008 0-0.012 0-23.564-19.103-42.667-42.667-42.667-0.004 0-0.008 0-0.011 0h-170.71c-0.004 0-0.008 0-0.012 0-23.564 0-42.667 19.103-42.667 42.667 0 0.004 0 0.008 0 0.011v-0.001c0 0.004 0 0.008 0 0.012 0 23.564 19.103 42.667 42.667 42.667 0.004 0 0.008 0 0.011 0zM533.393 42.666h170.553c0.004 0 0.008 0 0.012 0 23.564 0 42.667-19.103 42.667-42.667 0-0.004 0-0.008 0-0.011v0.001c0-0.004 0-0.008 0-0.012 0-23.564-19.103-42.667-42.667-42.667-0.004 0-0.008 0-0.011 0h-170.553c-0.004 0-0.008 0-0.012 0-23.564 0-42.667 19.103-42.667 42.667 0 0.004 0 0.008 0 0.011v-0.001c0 0.004 0 0.008 0 0.012 0 23.564 19.103 42.667 42.667 42.667 0.004 0 0.008 0 0.011 0z" />
<glyph unicode="&#xe905;" glyph-name="text" d="M128.033 917.322c-46.537 0-85.355-38.819-85.355-85.355v-768.041c0-46.537 38.819-85.198 85.355-85.198h768.041c46.537 0 85.198 38.661 85.198 85.198v768.041c0 46.537-38.661 85.355-85.198 85.355h-768.041zM128.033 831.967h768.041v-768.041h-768.041v768.041zM355.508 618.85h-96.833l-9.722-24.306h9.722c9.593 0 16.398-1.88 20.417-5.639 4.148-3.63 6.222-8.426 6.222-14.389 0-5.833-2.074-10.63-6.222-14.389-4.019-3.63-10.824-5.444-20.417-5.444h-53.667c-9.593 0-16.398 1.815-20.417 5.444-4.148 3.759-6.222 8.62-6.222 14.583s2.139 10.824 6.417 14.583c4.278 3.759 11.343 5.509 21.194 5.25l62.611 155.945h-26.056c-9.593 0-16.463 1.815-20.611 5.444-4.019 3.759-6.028 8.62-6.028 14.583s2.009 10.759 6.028 14.389c4.148 3.759 11.019 5.639 20.611 5.639l86.139-0.194 79.333-195.806c9.333 0 15.491-1.037 18.472-3.111 5.963-4.278 8.944-9.917 8.944-16.917 0-5.833-2.009-10.63-6.028-14.389-4.019-3.63-10.824-5.444-20.417-5.444h-53.667c-9.593 0-16.463 1.815-20.611 5.444-4.019 3.759-6.028 8.62-6.028 14.583 0 5.833 2.009 10.565 6.028 14.194 4.148 3.759 11.019 5.639 20.611 5.639h9.722zM338.98 658.711l-32.083 78.944-32.278-78.944zM242.523 801.258c-10.986 0-20.537-1.997-27.717-8.504-6.175-5.577-9.606-13.846-9.606-22.205s3.376-16.681 9.449-22.362l0.315-0.315c7.215-6.313 16.621-8.032 27.559-8.032h10.394l-55.119-137.010c-7.241-0.798-14.795-0.938-20-5.512-6.378-5.605-10.079-14.164-10.079-22.677 0-8.436 3.536-16.719 9.764-22.362 7.152-6.459 16.621-8.189 27.559-8.189h53.701c10.938 0 20.408 1.73 27.559 8.189 6.182 5.603 9.606 13.843 9.606 22.205 0 8.316-3.449 16.667-9.606 22.205-5.772 5.4-13.899 6.275-22.362 6.929l1.89 4.567h82.363l1.89-4.567c-8.475-0.655-16.687-1.486-22.52-6.772-6.128-5.535-9.606-13.922-9.606-22.205 0-8.359 3.376-16.681 9.449-22.362h0.157l0.157-0.157c7.215-6.313 16.621-8.032 27.559-8.032h53.701c10.938 0 20.408 1.73 27.559 8.189h0.157c6.029 5.64 9.449 13.922 9.449 22.205 0 10.029-5.184 19.786-13.386 25.67h-0.157c-4.939 3.436-10.883 3.122-16.693 3.465l-80.001 197.325-93.387 0.315zM242.523 779.84l78.899-0.157 79.371-195.75h7.244c8.543 0 13.585-2.166 12.284-1.26 3.584-2.602 4.41-4.276 4.41-8.189 0-3.287-0.645-4.66-2.52-6.457-0.010-0.009-0.146 0.009-0.157 0-0.949-0.815-4.918-2.677-13.071-2.677h-53.701c-8.155 0-12.246 1.879-13.386 2.835-1.753 1.713-2.52 3.062-2.52 6.457 0 3.384 0.611 4.575 2.52 6.299 1.117 1.012 5.187 2.992 13.386 2.992h25.355l-17.795 45.512h-111.34l-18.268-45.512h25.512c8.199 0 12.145-1.968 13.071-2.835l0.157-0.157h0.157c1.97-1.723 2.52-2.967 2.52-6.457 0-3.305-0.563-4.541-2.677-6.457-0.886-0.8-4.981-2.677-13.229-2.677h-53.701c-8.247 0-12.343 1.877-13.229 2.677-2.069 1.875-2.835 3.125-2.835 6.614 0 3.412 0.658 4.701 2.835 6.614 1.137 0.999 5.403 2.9 13.858 2.677l7.402-0.315 71.339 177.483h-41.89c-8.155 0-12.246 1.879-13.386 2.835h-0.157c-1.84 1.763-2.362 3.147-2.362 6.614 0 3.567 0.657 4.775 2.52 6.457 1.117 1.012 5.187 2.835 13.386 2.835zM306.933 765.982l-48.19-117.954h96.064l-5.984 14.646-41.89 103.308zM306.933 709.446l16.221-40h-32.599l16.378 40zM511.958 789.292c-23.564 0-42.667-19.103-42.667-42.667v0c0-0.012 0-0.027 0-0.042 0-23.564 19.103-42.667 42.667-42.667 0 0 0 0 0 0h256.083c23.564 0 42.667 19.103 42.667 42.667 0 0.015 0 0.029 0 0.044v-0.002c0 23.564-19.103 42.667-42.667 42.667h-256.083zM511.958 640c-23.564 0-42.667-19.103-42.667-42.667v0c0-0.012 0-0.027 0-0.042 0-23.564 19.103-42.667 42.667-42.667 0 0 0 0 0 0h256.083c23.564 0 42.667 19.103 42.667 42.667 0 0.015 0 0.029 0 0.044v-0.002c0 23.564-19.103 42.667-42.667 42.667h-256.083zM213.375 490.708c-23.564 0-42.667-19.103-42.667-42.667v0c0-0.012 0-0.027 0-0.042 0-23.564 19.103-42.667 42.667-42.667 0 0 0 0 0 0h554.667c23.564 0 42.667 19.103 42.667 42.667 0 0.015 0 0.029 0 0.044v-0.002c0 23.564-19.103 42.667-42.667 42.667h-554.667zM213.375 341.417c-23.564 0-42.667-19.103-42.667-42.667v0c0-0.012 0-0.027 0-0.042 0-23.564 19.103-42.667 42.667-42.667 0 0 0 0 0 0h554.667c23.564 0 42.667 19.103 42.667 42.667 0 0.015 0 0.029 0 0.044v-0.002c0 23.564-19.103 42.667-42.667 42.667h-554.667zM213.375 191.958c-23.564 0-42.667-19.103-42.667-42.667v0c0-0.012 0-0.027 0-0.042 0-23.564 19.103-42.667 42.667-42.667 0 0 0 0 0 0h554.667c23.564 0 42.667 19.103 42.667 42.667 0 0.015 0 0.029 0 0.044v-0.002c0 23.564-19.103 42.667-42.667 42.667h-554.667z" />
<glyph unicode="&#xe906;" glyph-name="stamp" d="M106.667 106.667h810.667v-128h-810.667v128zM511.583 917.333c-117.658-0.23-212.917-95.675-212.917-213.333-0.002-81.773 46.739-156.352 95.12-184.244s64.204-59.508 64.214-93.089c0-58.91-47.756-106.667-106.667-106.667-3.283 0.001-6.564 0.154-9.833 0.458l-0.167-0.458h-213.333l-42.667-42.667v-128h853.333v128l-42.667 42.667-213.376 0.126c-0.291-0.043-0.583-0.085-0.875-0.126h-23.749c-53.927 6.106-94.672 51.729-94.667 106-0.006 33.964 16.164 65.9 65.687 93.762s96.3 102.446 96.313 184.238c0 117.821-95.513 213.333-213.333 213.333z" />
<glyph unicode="&#xe907;" glyph-name="size" d="M128.033 917.322c-46.537 0-85.355-38.819-85.355-85.355v-768.041c0-46.537 38.819-85.198 85.355-85.198h768.041c46.537 0 85.198 38.661 85.198 85.198v768.041c0 46.537-38.661 85.355-85.198 85.355h-768.041zM128.033 831.967h768.041v-768.041h-768.041v768.041zM640 789.292c-23.564 0-42.667-19.103-42.667-42.667v0c0-0.012 0-0.027 0-0.042 0-23.564 19.103-42.667 42.667-42.667 0 0 0 0 0 0h67.542l-451.458-451.458v67.542c0 23.564-19.103 42.667-42.667 42.667-0.015 0-0.029 0-0.044 0h0.002c-23.564 0-42.667-19.103-42.667-42.667v0-213.417h213.25c23.564 0 42.667 19.103 42.667 42.667 0 0.015 0 0.029 0 0.044v-0.002c0 23.564-19.103 42.667-42.667 42.667h-67.75l451.833 451.833v-67.75c0-23.564 19.103-42.667 42.667-42.667v0c0.012 0 0.027 0 0.042 0 23.564 0 42.667 19.103 42.667 42.667 0 0 0 0 0 0v0 213.25h-213.417z" />
<glyph unicode="&#xe908;" glyph-name="save" d="M132.196 917.333c-52.225 0-94.27-41.875-94.27-93.89v-751.118c0-52.015 42.044-93.89 94.27-93.89h754.157c52.225 0 94.27 41.875 94.27 93.89v657.228l-188.539 187.78zM202.898 870.388h518.483v-281.669h-518.483zM179.33 447.884h659.887c26.113 0 47.135-20.937 47.135-46.945v-281.669c0-26.008-21.022-46.945-47.135-46.945h-659.887c-26.113 0-47.135 20.937-47.135 46.945v281.669c0 26.007 21.022 46.945 47.135 46.945zM533.333 789.333h42.667c11.782 0 21.333-9.551 21.333-21.333v-128c0-11.782-9.551-21.333-21.333-21.333h-42.667c-11.782 0-21.333 9.551-21.333 21.333v128c0 11.782 9.551 21.333 21.333 21.333z" />
<glyph unicode="&#xe909;" glyph-name="roller" d="M490.667 448h42.667c23.637 0 42.667-19.029 42.667-42.667v-384c0-23.637-19.029-42.667-42.667-42.667h-42.667c-23.637 0-42.667 19.029-42.667 42.667v384c0 23.637 19.029 42.667 42.667 42.667zM213.333 917.333h597.333c23.637 0 42.667-19.029 42.667-42.667v-170.667c0-23.637-19.029-42.667-42.667-42.667h-597.333c-23.637 0-42.667 19.029-42.667 42.667v170.667c0 23.637 19.029 42.667 42.667 42.667zM810.719 810.707v-42.678h42.678c3.556 0 9.526-2.439 14.173-7.087s7.087-10.775 7.087-14.331v-191.971c0-3.556-2.439-9.526-7.087-14.173s-10.618-7.087-14.173-7.087h-298.744c-17.778 0-33.058-8.333-44.41-19.685s-19.528-26.632-19.528-44.41v-42.678h42.678v42.678c0 3.556 2.439 9.683 7.087 14.331s10.618 7.087 14.173 7.087h298.744c17.778 0 33.058 8.176 44.41 19.528s19.528 26.632 19.528 44.41v191.971c0 17.778-8.176 33.058-19.528 44.41s-26.632 19.685-44.41 19.685h-42.678z" />
<glyph unicode="&#xe90a;" glyph-name="reset" d="M298.667 768l256-149.333v298.667zM512 832v-128c141.385 0 256-114.615 256-256s-114.615-256-256-256c-141.385 0-256 114.615-256 256 0.010 67.891 26.988 132.999 57.469 163.101s37.878 47.102 37.864 64.899c0 35.346-28.654 64-64 64-18.241-0.008-35.613-7.799-77.421-50.625s-81.887-140.042-81.912-241.375c0-212.077 171.923-384 384-384s384 171.923 384 384c0 212.077-171.923 384-384 384z" />
<glyph unicode="&#xe90b;" glyph-name="redo" d="M428.583 832c211.252-1.088 382.083-172.592 382.083-383.995 0-0.002 0-0.003 0-0.005v0h-128c0 141.385-114.615 256-256 256v0c-141.385 0-256-114.615-256-256v0c0-141.385 114.615-256 256-256v0c35.346 0 64-28.654 64-64v0c0-35.346-28.654-64-64-64v0c-0.161 0-0.351 0-0.542 0s-0.381 0-0.571 0h0.029c-0.062 0-0.135 0-0.208 0s-0.147 0-0.22 0h0.011c-211.431 0.852-382.5 172.447-382.5 383.997 0 0.001 0 0.002 0 0.003v0c0 212.077 171.923 384 384 384v0c0.285 0.001 0.621 0.001 0.958 0.001s0.674 0 1.011-0.001h-0.052zM746.667 234.667l-149.333 256h298.667z" />
<glyph unicode="&#xe90c;" glyph-name="rect-filled" d="M128 917.333h768c47.128 0 85.333-38.205 85.333-85.333v-768c0-47.128-38.205-85.333-85.333-85.333h-768c-47.128 0-85.333 38.205-85.333 85.333v768c0 47.128 38.205 85.333 85.333 85.333z" />
<glyph unicode="&#xe90d;" glyph-name="rect" d="M85.355 917.322c-0.002 0-0.004 0-0.007 0-23.567 0-42.671-19.104-42.671-42.671 0-0.002 0-0.005 0-0.007v0-853.239c0-0.002 0-0.004 0-0.007 0-23.567 19.104-42.671 42.671-42.671 0.002 0 0.005 0 0.007 0h853.239c0.002 0 0.004 0 0.007 0 23.567 0 42.671 19.104 42.671 42.671 0 0.002 0 0.005 0 0.007v0 853.239c0 0.002 0 0.004 0 0.007 0 23.567-19.104 42.671-42.671 42.671-0.002 0-0.005 0-0.007 0h-853.239zM128.033 831.967h768.041v-768.041h-768.041v768.041z" />
<glyph unicode="&#xe90e;" glyph-name="pencil" d="M597.33 764.407l-463.943-464.1-3.15-9.449-112.442-337.012 346.619 115.592 463.943 463.943-231.027 231.027zM597.33 643.618l110.395-110.395-389.454-389.296-165.356-55.119 55.119 165.671 389.296 389.139zM682.667 789.333l170.667-170.667 85.333 85.333-170.667 170.667zM768.041 934.96l-145.671-145.671 231.027-231.027 145.671 145.671-231.027 231.027zM767.884 814.486l110.553-110.553-25.040-24.882-110.395 110.395 24.882 25.040z" />
<glyph unicode="&#xe90f;" glyph-name="palette" d="M601.75 810.042c-7.952 0.211-15.982 0.185-24.042-0.042-77.375-2.175-159.223-24.609-235.75-68.792-1.205-0.689-2.383-1.384-3.583-2.083-167.588-98.537-303.712-340.447-256.125-457.167 15.344-37.635 195.085 123.392 227.167 46.333 53.252-93.608-96.217-159.254-64.75-185.042 96.684-79.233 268.924-91.209 438.625 6.75 204.072 117.821 293.132 345.701 198.875 508.958-55.228 95.659-161.133 147.914-280.417 151.083zM578.917 738.667c0.361 0.003 0.722 0.003 1.083 0 35.346 0 64-28.654 64-64s-28.654-64-64-64c-35.346 0-64 28.654-64 64-0.005 34.927 27.994 63.409 62.917 64zM390.875 685.333h0.043c0.361 0.003 0.722 0.003 1.083 0 35.346 0 64-28.654 64-64s-28.654-64-64-64c-35.346 0-64 28.654-64 64-0.005 34.912 27.969 63.386 62.875 64zM250.875 542.667h0.043c0.361 0.003 0.722 0.003 1.083 0 35.346 0 64-28.654 64-64s-28.654-64-64-64c-35.346 0-64 28.654-64 64-0.005 34.912 27.969 63.386 62.875 64zM455.958 437.167c3.098 0.231 6.176 0.217 9.25 0 20.494-1.448 39.954-12.702 51-31.833 17.673-30.611 7.152-69.785-23.458-87.458s-69.744-7.152-87.417 23.458c-17.468 30.246-7.448 68.902 22.5 86.875 0.311 0.183 0.603 0.364 0.917 0.542 8.609 4.971 17.916 7.725 27.208 8.417z" />
<glyph unicode="&#xe910;" glyph-name="line" d="M524.731 760.785l-371.028-371.186-2.677-7.559-89.765-269.61 277.169 92.442 371.186 371.186-184.884 184.727zM524.731 664.248l88.19-88.19-311.343-311.5-132.443-44.253 44.253 132.6 311.343 311.343zM593.067 780.8l136.533-136.533 68.267 68.267-136.533 136.533zM661.268 897.322l-116.537-116.537 24.252-24.095 160.632-160.632 116.537 116.537-184.884 184.727zM661.268 800.785l88.348-88.19-20-20.158-88.348 88.348 20 20zM85.355 106.603c-0.003 0-0.007 0-0.011 0-23.564 0-42.667-19.103-42.667-42.667 0-0.004 0-0.008 0-0.012v0.001c0.083-23.501 19.154-42.52 42.666-42.52 0.004 0 0.008 0 0.012 0h853.239c0.003 0 0.007 0 0.011 0 23.513 0 42.583 19.019 42.666 42.512v0.008c0 0.003 0 0.007 0 0.011 0 23.564-19.103 42.667-42.667 42.667-0.004 0-0.008 0-0.012 0h-853.238z" />
<glyph unicode="&#xe911;" glyph-name="import" d="M128.042 917.333c-46.537 0-85.375-38.838-85.375-85.375v-768.042c0-46.537 38.838-85.208 85.375-85.208h768.042c46.537 0 85.197 38.672 85.208 85.208l0.021 85.417c0 21.333-21.333 42.667-42.646 42.667-21.354 0-42.687-21.333-42.687-42.667l0.105-85.417h-768.042v768.042h768.042l0.021-341.292c-0.126-21.333 21.208-42.667 42.562-42.667 21.313 0 42.646 21.333 42.646 42.667l-0.022 341.292c-0.003 46.537-38.671 85.375-85.207 85.375zM355.508 618.85h-96.833l-9.722-24.306h9.722c9.593 0 16.398-1.88 20.417-5.639 4.148-3.63 6.222-8.426 6.222-14.389 0-5.833-2.074-10.63-6.222-14.389-4.019-3.63-10.824-5.444-20.417-5.444h-53.667c-9.593 0-16.398 1.815-20.417 5.444-4.148 3.759-6.222 8.62-6.222 14.583s2.139 10.824 6.417 14.583c4.278 3.759 11.343 5.509 21.194 5.25l62.611 155.945h-26.056c-9.593 0-16.463 1.815-20.611 5.444-4.019 3.759-6.028 8.62-6.028 14.583s2.009 10.759 6.028 14.389c4.148 3.759 11.019 5.639 20.611 5.639l86.139-0.194 79.333-195.806c9.333 0 15.491-1.037 18.472-3.111 5.963-4.278 8.944-9.917 8.944-16.917 0-5.833-2.009-10.63-6.028-14.389-4.019-3.63-10.824-5.444-20.417-5.444h-53.667c-9.593 0-16.463 1.815-20.611 5.444-4.019 3.759-6.028 8.62-6.028 14.583 0 5.833 2.009 10.565 6.028 14.194 4.148 3.759 11.019 5.639 20.611 5.639h9.722zM338.98 658.711l-32.083 78.944-32.278-78.944zM242.523 801.258c-10.986 0-20.537-1.997-27.717-8.504-6.175-5.577-9.606-13.846-9.606-22.205s3.376-16.681 9.449-22.362l0.314-0.314c7.215-6.313 16.621-8.032 27.559-8.032h10.394l-55.119-137.010c-7.241-0.798-14.795-0.938-20-5.512-6.378-5.605-10.079-14.164-10.079-22.677 0-8.436 3.536-16.719 9.764-22.362 7.152-6.46 16.621-8.189 27.559-8.189h53.701c10.938 0 20.408 1.73 27.559 8.189 6.182 5.603 9.606 13.843 9.606 22.205 0 8.316-3.449 16.667-9.606 22.205-5.772 5.4-13.899 6.275-22.362 6.929l1.89 4.567h82.363l1.89-4.567c-8.475-0.655-16.687-1.486-22.52-6.772-6.128-5.535-9.606-13.922-9.606-22.205 0-8.359 3.376-16.681 9.449-22.362h0.157l0.157-0.157c7.215-6.313 16.621-8.032 27.559-8.032h53.701c10.938 0 20.408 1.73 27.559 8.189h0.157c6.029 5.639 9.449 13.922 9.449 22.205 0 10.029-5.184 19.786-13.386 25.67h-0.157c-4.939 3.436-10.883 3.122-16.693 3.465l-80.001 197.325zM242.523 779.84l78.899-0.157 79.371-195.75h7.244c8.543 0 13.585-2.166 12.284-1.26 3.584-2.602 4.409-4.277 4.409-8.189 0-3.287-0.645-4.66-2.52-6.457-0.010-0.009-0.147 0.009-0.157 0-0.949-0.815-4.918-2.677-13.071-2.677h-53.702c-8.155 0-12.246 1.879-13.386 2.835-1.753 1.713-2.52 3.062-2.52 6.457 0 3.384 0.61 4.575 2.52 6.299 1.117 1.012 5.187 2.992 13.386 2.992h25.355l-17.795 45.512h-111.34l-18.268-45.512h25.512c8.199 0 12.145-1.968 13.071-2.835l0.157-0.157h0.158c1.97-1.723 2.52-2.967 2.52-6.457 0-3.305-0.564-4.541-2.677-6.457-0.885-0.8-4.981-2.677-13.229-2.677h-53.701c-8.247 0-12.343 1.877-13.229 2.677-2.069 1.875-2.835 3.125-2.835 6.614 0 3.412 0.658 4.701 2.835 6.614 1.136 0.999 5.403 2.9 13.858 2.677l7.402-0.315 71.339 177.483h-41.89c-8.155 0-12.246 1.879-13.386 2.835h-0.157c-1.84 1.763-2.362 3.147-2.362 6.614 0 3.567 0.657 4.775 2.52 6.457 1.117 1.012 5.187 2.835 13.386 2.835zM306.933 765.982l-48.19-117.954h96.064l-5.984 14.646zM306.933 709.446l16.221-40h-32.599zM511.958 789.292c-23.564 0-42.667-19.103-42.667-42.667v0c0-0.012 0-0.027 0-0.042 0-23.564 19.103-42.667 42.667-42.667 0 0 0 0 0 0h256.083c23.564 0 42.667 19.103 42.667 42.667 0 0.015 0 0.029 0 0.044v-0.002c0 23.564-19.103 42.667-42.667 42.667v0zM511.958 640c-23.564 0-42.667-19.103-42.667-42.667v0c0-0.012 0-0.027 0-0.042 0-23.564 19.103-42.667 42.667-42.667 0 0 0 0 0 0h256.083c23.564 0 42.667 19.103 42.667 42.667 0 0.015 0 0.029 0 0.044v-0.002c0 23.564-19.103 42.667-42.667 42.667v0zM213.375 490.708c-23.564 0.008-42.667-19.103-42.667-42.667-0.023-23.58 19.086-42.708 42.667-42.708l127.958-0.042c23.58 0 42.69 19.128 42.667 42.708 0 23.564-19.103 42.659-42.667 42.667zM213.375 341.417c-23.564 0.015-42.667-19.103-42.667-42.667-0.023-23.58 19.086-42.708 42.667-42.708l127.958-0.083c23.58 0 42.69 19.128 42.667 42.708 0 23.564-19.103 42.651-42.667 42.667zM213.375 191.958c-23.564-0.008-42.667-19.103-42.667-42.667-0.023-23.58 19.086-42.708 42.667-42.708l127.958 0.042c23.58 0 42.69 19.128 42.667 42.708 0 23.564-19.103 42.674-42.667 42.667zM981.333 320h-384zM597.33 362.67c-0.003 0-0.007 0-0.011 0-23.564 0-42.667-19.103-42.667-42.667 0-0.004 0-0.008 0-0.012v0.001c0-0.003 0-0.007 0-0.011 0-23.564 19.103-42.667 42.667-42.667 0.004 0 0.008 0 0.012 0h383.941c0.003 0 0.007 0 0.011 0 23.564 0 42.667 19.103 42.667 42.667 0 0.004 0 0.008 0 0.012v-0.001c0 0.003 0 0.007 0 0.011 0 23.564-19.103 42.667-42.667 42.667-0.004 0-0.008 0-0.012 0h-383.941zM682.843 490.703c-0.079 0.001-0.172 0.001-0.265 0.001-9.637 0-18.527-3.195-25.67-8.583l0.108 0.078-216.066-162.207 216.066-162.049c7.058-5.366 15.994-8.597 25.684-8.597 13.926 0 26.293 6.671 34.081 16.993l0.078 0.108c5.285 7.024 8.465 15.895 8.465 25.508 0 13.937-6.682 26.313-17.017 34.099l-0.109 0.078-125.041 93.859 125.041 93.859c10.444 7.865 17.126 20.241 17.126 34.178 0 9.613-3.179 18.484-8.543 25.617l0.079-0.109c-7.826 10.417-20.134 17.101-34.006 17.166h-0.010z" />
<glyph unicode="&#xe912;" glyph-name="image" d="M128.042 917.333c-46.537 0-85.375-38.838-85.375-85.375v-768.042c0-46.537 38.838-85.208 85.375-85.208h768.042c46.537 0 85.208 38.672 85.208 85.208v768.042c0 46.537-38.672 85.375-85.208 85.375h-768.042zM128.042 831.958h768.042v-768.042h-768.042v768.042zM256 192l85.333 170.667 85.333-85.333 85.333 170.667 85.333-85.333 85.333 170.667 85.333-341.333zM426.667 618.667c0-47.128-38.205-85.333-85.333-85.333v0c-47.128 0-85.333 38.205-85.333 85.333v0c0 47.128 38.205 85.333 85.333 85.333v0c47.128 0 85.333-38.205 85.333-85.333v0z" />
<glyph unicode="&#xe913;" glyph-name="height" d="M981.272 874.645c0 0.003 0 0.007 0 0.011 0 23.564-19.103 42.667-42.667 42.667-0.004 0-0.008 0-0.012 0h-853.238c-0.003 0-0.007 0-0.011 0-23.564 0-42.667-19.103-42.667-42.667 0-0.004 0-0.008 0-0.012v0.001c0-0.003 0-0.007 0-0.011 0-23.564 19.103-42.667 42.667-42.667 0.004 0 0.008 0 0.012 0h853.239c0.003 0 0.007 0 0.011 0 23.564 0 42.667 19.103 42.667 42.667 0 0.004 0 0.008 0 0.012v-0.001zM981.272 21.405c-0.083 23.501-19.154 42.52-42.666 42.52-0.004 0-0.008 0-0.012 0h-853.239c-0.003 0-0.007 0-0.011 0-23.513 0-42.583-19.019-42.666-42.512v-0.008c0-0.003 0-0.007 0-0.011 0-23.564 19.103-42.667 42.667-42.667 0.004 0 0.008 0 0.012 0h853.238c0.003 0 0.007 0 0.011 0 23.564 0 42.667 19.103 42.667 42.667 0 0.004 0 0.008 0 0.012v-0.001zM554.653 703.934c0 0.003 0 0.007 0 0.011 0 23.564-19.103 42.667-42.667 42.667-0.004 0-0.008 0-0.012 0h0.001c-0.003 0-0.007 0-0.011 0-23.564 0-42.667-19.103-42.667-42.667 0-0.004 0-0.008 0-0.012v0.001-554.653c0-0.003 0-0.007 0-0.011 0-23.564 19.103-42.667 42.667-42.667 0.004 0 0.008 0 0.012 0h-0.001c0.003 0 0.007 0 0.011 0 23.564 0 42.667 19.103 42.667 42.667 0 0.004 0 0.008 0 0.012v-0.001zM725.206 577.003c-0.273 11.397-4.974 21.646-12.442 29.135l-200.789 200.946-200.79-200.947c-7.714-7.72-12.485-18.382-12.485-30.158s4.771-22.438 12.485-30.158v0c7.72-7.714 18.382-12.485 30.158-12.485s22.438 4.771 30.158 12.485l140.474 140.474 140.474-140.474c7.72-7.714 18.382-12.485 30.158-12.485s22.438 4.771 30.158 12.485v0c7.696 7.717 12.454 18.366 12.454 30.127 0 0.371-0.005 0.74-0.014 1.109l0.001-0.054zM725.206 320.937c-0.23 11.455-4.939 21.767-12.442 29.293l0.001-0.001c-7.72 7.714-18.382 12.485-30.158 12.485s-22.438-4.771-30.158-12.485v0l-140.474-140.632-140.474 140.632c-7.72 7.714-18.382 12.485-30.158 12.485s-22.438-4.771-30.158-12.485v0c-7.761-7.728-12.564-18.421-12.564-30.237s4.803-22.509 12.562-30.235l200.791-200.791 200.79 200.79c7.696 7.717 12.454 18.366 12.454 30.127 0 0.371-0.005 0.74-0.014 1.109l0.001-0.054z" />
<glyph unicode="&#xe914;" glyph-name="grid" d="M85.355 917.322c-0.002 0-0.004 0-0.007 0-23.567 0-42.671-19.104-42.671-42.671 0-0.002 0-0.005 0-0.007v0-853.239c0-0.002 0-0.004 0-0.007 0-23.567 19.104-42.671 42.671-42.671 0.002 0 0.005 0 0.007 0h853.239c0.002 0 0.004 0 0.007 0 23.567 0 42.671 19.104 42.671 42.671 0 0.002 0 0.005 0 0.007v0 853.239c0 0.002 0 0.004 0 0.007 0 23.567-19.104 42.671-42.671 42.671-0.002 0-0.005 0-0.007 0h-853.239zM128.033 831.967h768.041v-768.041h-768.041v768.041zM511.975 917.322c-0.003 0-0.007 0-0.011 0-23.564 0-42.667-19.103-42.667-42.667 0-0.004 0-0.008 0-0.012v0.001-853.239c0-0.003 0-0.007 0-0.011 0-23.564 19.103-42.667 42.667-42.667 0.004 0 0.008 0 0.012 0h-0.001c0.003 0 0.007 0 0.011 0 23.564 0 42.667 19.103 42.667 42.667 0 0.004 0 0.008 0 0.012v-0.001 853.239c0 0.003 0 0.007 0 0.011 0 23.564-19.103 42.667-42.667 42.667-0.004 0-0.008 0-0.012 0h0.001zM106.616 490.703c-0.003 0-0.007 0-0.011 0-23.564 0-42.667-19.103-42.667-42.667 0-0.004 0-0.008 0-0.012v0.001c0-0.003 0-0.007 0-0.011 0-23.564 19.103-42.667 42.667-42.667 0.004 0 0.008 0 0.012 0h810.718c0.003 0 0.007 0 0.011 0 23.564 0 42.667 19.103 42.667 42.667 0 0.004 0 0.008 0 0.012v-0.001c0 0.003 0 0.007 0 0.011 0 23.564-19.103 42.667-42.667 42.667-0.004 0-0.008 0-0.012 0h-810.718z" />
<glyph unicode="&#xe915;" glyph-name="fill" d="M448.667 848.975l-392.288-392.131c-25.142-25.142-35.119-58.443-35.119-90.552s9.977-65.411 35.119-90.552l241.42-241.263c25.142-25.142 58.443-35.118 90.552-35.118s65.253 9.977 90.395 35.118l392.288 392.131-422.367 422.368zM448.51 728.501l301.894-301.894-331.973-331.815c-5.028-5.028-16.933-10.079-30.079-10.079s-25.208 5.051-30.237 10.079l-241.42 241.42c-5.028 5.028-10.079 16.933-10.079 30.079s5.051 25.208 10.079 30.237l331.815 331.973zM761.188 490.667l118.319-42.667 59.159-128c0 0 24.418 119.862 5.776 174.438-14.744 43.165-48.865 79.944-86.398 101.601-33.654 19.419-74.956 19.716-113.090 18.856-27.977-0.631-82.365-17.562-82.365-17.562zM744.104 655.902c-21.659-0.488-42.523-5.629-60.788-10.236s-32.914-9.134-32.914-9.134l-62.048-19.37 149.451-161.734 9.449-3.307 102.206-36.851 104.411-225.987 25.040 122.521c0 0 6.392 31.705 10.394 70.71s8.077 84.033-5.984 125.198c-18.698 54.74-59.102 97.455-104.726 123.781-46.081 26.59-95.476 25.289-134.49 24.41zM745.836 573.853c37.253 0.84 70.429-1.138 91.655-13.386 28.907-16.68 55.733-46.813 66.93-77.796l-119.844 43.15-43.465 47.087c1.027 0.098 4.020 0.929 4.724 0.945zM226.775 771.179c-36.399-2.263-73.911-7.040-107.718-20.315s-69.63-40.924-74.804-84.411c-6.129-51.513 27.18-93.593 64.883-120.002s83.987-44.427 129.923-58.583c91.871-28.313 183.624-39.528 183.624-39.528 1.57-0.205 3.385-0.322 5.228-0.322 21.683 0 39.588 16.174 42.309 37.115l0.023 0.214c0.217 1.617 0.341 3.485 0.341 5.383 0 21.69-16.184 39.599-37.135 42.311l-0.214 0.023c0 0-86.426 10.937-168.979 36.378-41.276 12.721-81.255 29.496-106.143 46.93s-30.52 28.198-29.134 39.843c0.431 3.618 2.016 7.561 21.26 15.118s50.358 12.843 81.891 14.803c63.066 3.921 126.931-3.15 126.931-3.15 1.459-0.177 3.148-0.278 4.861-0.278 21.835 0 39.839 16.401 42.364 37.556l0.020 0.202c0.176 1.454 0.276 3.137 0.276 4.844 0 21.89-16.484 39.929-37.716 42.383l-0.198 0.019c0 0-69.093 7.991-141.892 3.465z" />
<glyph unicode="&#xe916;" glyph-name="eraser" d="M361.151 616.523l362.039-362.039 181.019 181.019c30.17 30.17 30.17 90.51 0 120.68l-241.359 241.359c-30.17 30.17-90.51 30.17-120.68 0zM602.527 862.833c-32.109 0-65.411-9.977-90.552-35.119l-211.184-211.184 422.368-422.368 211.184 211.184c25.142 25.142 35.119 58.443 35.119 90.552s-9.977 65.253-35.119 90.395l-241.263 241.42c-25.142 25.142-58.443 35.119-90.552 35.119zM602.527 777.478c13.146 0 25.051-5.051 30.079-10.079l241.42-241.42c5.028-5.028 10.079-16.933 10.079-30.079s-5.051-25.208-10.079-30.237l-150.868-150.711-301.579 301.579 150.711 150.868c5.028 5.028 17.091 10.079 30.237 10.079zM300.791 616.531l-30.079-30.237-181.105-180.947c-25.142-25.142-35.119-58.443-35.119-90.552s9.977-65.411 35.119-90.552l193.546-193.388h276.696l163.309 163.309-422.368 422.368zM300.791 495.9l301.736-301.736-77.954-77.954h-206.144l-168.506 168.506c-5.028 5.028-10.079 16.933-10.079 30.079s5.051 25.208 10.079 30.237l150.868 150.868z" />
<glyph unicode="&#xe917;" glyph-name="dropper" d="M657.892 815.678l-387.073-387.221-2.63-7.891-45.379-136.039 96.731-96.731 144.028 48.009 387.098 387.098zM657.892 714.89l92.11-92.11-324.954-324.806-137.931-45.994 45.994 138.226zM789.301 955.59c-26.79 0-54.457-8.315-75.434-29.292l-100.789-100.789-25.197 25.197c-13.891 13.829-36.346 13.829-50.237 0l-75.592-75.434c-13.934-13.909-13.934-36.486 0-50.394l302.051-302.051c13.909-13.933 36.486-13.933 50.394 0l75.592 75.592c13.829 13.891 13.829 36.346 0 50.237l-25.197 25.197 100.631 100.631c20.977 20.977 29.292 48.801 29.292 75.592s-8.315 54.457-29.292 75.434l-100.631 100.789c-20.977 20.977-48.801 29.292-75.591 29.292zM213.333 213.333c0 0 96.93-109.476 86.592-173.184-6.539-40.293-45.772-86.592-86.592-86.592s-80.053 46.299-86.592 86.592c-10.338 63.709 86.592 173.184 86.592 173.184z" />
<glyph unicode="&#xe918;" glyph-name="coordinates" d="M256.066 917.322c-0.003 0-0.007 0-0.011 0-23.564 0-42.667-19.103-42.667-42.667 0-0.004 0-0.008 0-0.012v0.001-725.364h725.206c0.003 0 0.007 0 0.011 0 23.564 0 42.667 19.103 42.667 42.667 0 0.004 0 0.008 0 0.012v-0.001c0 0.003 0 0.007 0 0.011 0 23.564-19.103 42.667-42.667 42.667-0.004 0-0.008 0-0.012 0h-639.85v640.008c0 0.003 0 0.007 0 0.011 0 23.564-19.103 42.667-42.667 42.667-0.004 0-0.008 0-0.012 0h0.001zM256.066 934.96l-115.592-115.435c-7.714-7.72-12.485-18.382-12.485-30.158s4.771-22.438 12.485-30.158v0c7.72-7.714 18.382-12.485 30.158-12.485s22.438 4.771 30.158 12.485l55.276 55.276 55.119-55.276c7.72-7.714 18.382-12.485 30.158-12.485s22.438 4.771 30.158 12.485v0c7.714 7.72 12.485 18.382 12.485 30.158s-4.771 22.438-12.485 30.158l-115.434 115.434zM852.294 319.992c-11.397-0.273-21.646-4.974-29.135-12.442l0.001 0.001c-7.714-7.72-12.485-18.382-12.485-30.158s4.771-22.438 12.485-30.158v0l55.276-55.119-55.276-55.276c-7.714-7.72-12.485-18.382-12.485-30.158s4.771-22.438 12.485-30.158v0c7.72-7.714 18.382-12.485 30.158-12.485s22.438 4.771 30.158 12.485l115.592 115.434-115.592 115.592c-7.717 7.696-18.366 12.454-30.127 12.454-0.371 0-0.74-0.005-1.109-0.014l0.054 0.001zM254.964 234.637c-11.397-0.273-21.646-4.974-29.135-12.442l-170.71-170.71c-7.714-7.72-12.485-18.382-12.485-30.158s4.771-22.438 12.485-30.158v0c7.72-7.714 18.382-12.485 30.158-12.485s22.438 4.771 30.158 12.485l170.711 170.711c7.714 7.72 12.485 18.382 12.485 30.158s-4.771 22.438-12.485 30.158v0c-7.717 7.696-18.366 12.454-30.127 12.454-0.371 0-0.74-0.005-1.109-0.014l0.055 0.001zM85.333 192c-23.573 0.006-42.684-19.105-42.678-42.678l0.022-170.595 170.645-0.072c23.573-0.006 42.684 19.105 42.678 42.678-0.081 23.511-19.166 42.526-42.678 42.52l-85.289 0.072-0.022 85.397c0.006 23.573-19.105 42.684-42.678 42.678z" />
<glyph unicode="&#xe919;" glyph-name="code-copy" d="M234.7 938.689h-0.001c0.004 0 0.008 0 0.012 0 23.564 0 42.667-19.103 42.667-42.667 0-0.004 0-0.008 0-0.011v0.001c0-0.004 0-0.008 0-0.012 0-23.564-19.103-42.667-42.667-42.667-0.004 0-0.008 0-0.011 0h-128.033v-128.032c0-0.004 0-0.008 0-0.012 0-23.564-19.103-42.667-42.667-42.667-0.004 0-0.008 0-0.011 0h0.001c-0.004 0-0.008 0-0.012 0-23.564 0-42.667 19.103-42.667 42.667 0 0.004 0 0.008 0 0.011v170.711l0.001 0.049c0.023 0.993 0.079 1.977 0.157 2.785l0.008 0.139c0.124 1.7 0.348 3.372 0.622 4.743l0.043 0.267c0.951 4.953 2.758 9.601 5.154 13.591l0.108 0.194c5.784 9.668 15.285 16.856 26.822 19.648l-0.295-0.064c3.213 0.822 6.572 1.278 10.059 1.324zM576.121 938.689h0.008c23.493-0.083 42.512-19.154 42.512-42.666 0-0.004 0-0.008 0-0.011v0.001c0-0.004 0-0.008 0-0.012 0-23.513-19.019-42.583-42.52-42.666h-170.71c-0.004 0-0.008 0-0.012 0-23.564 0-42.667 19.103-42.667 42.667 0 0.004 0 0.008 0 0.011v-0.001c0 0.004 0 0.008 0 0.012 0 23.564 19.103 42.667 42.667 42.667 0.004 0 0.008 0 0.011 0zM917.386 938.689h-0.001c0.004 0 0.008 0 0.012 0 23.564 0 42.667-19.103 42.667-42.667 0-0.004 0-0.008 0-0.011v0.001c0-0.004 0-0.008 0-0.012 0-23.564-19.103-42.667-42.667-42.667-0.004 0-0.008 0-0.011 0h-170.71c-0.004 0-0.008 0-0.012 0-23.564 0-42.667 19.103-42.667 42.667 0 0.004 0 0.008 0 0.011v-0.001c0 0.004 0 0.008 0 0.012 0 23.564 19.103 42.667 42.667 42.667 0.004 0 0.008 0 0.011 0zM960.063 810.656h-0.001c0.004 0 0.008 0 0.012 0 23.564 0 42.667-19.103 42.667-42.667 0-0.004 0-0.008 0-0.011v-170.71c0-0.004 0-0.008 0-0.012 0-23.564-19.103-42.667-42.667-42.667-0.004 0-0.008 0-0.011 0h0.001c-0.004 0-0.008 0-0.012 0-23.564 0-42.667 19.103-42.667 42.667 0 0.004 0 0.008 0 0.011v170.71c0 0.004 0 0.008 0 0.012 0 23.564 19.103 42.667 42.667 42.667 0.004 0 0.008 0 0.011 0zM63.989 597.267h-0.001c0.004 0 0.008 0 0.012 0 23.564 0 42.667-19.103 42.667-42.667 0-0.004 0-0.008 0-0.011v-170.719c-0.083-23.493-19.154-42.512-42.666-42.512-0.004 0-0.008 0-0.011 0h0.001c-0.004 0-0.008 0-0.012 0-23.513 0-42.583 19.019-42.666 42.52v170.71c0 0.004 0 0.008 0 0.012 0 23.564 19.103 42.667 42.667 42.667 0.004 0 0.008 0 0.011 0zM960.063 469.234h-0.001c0.004 0 0.008 0 0.012 0 23.564 0 42.667-19.103 42.667-42.667 0-0.004 0-0.008 0-0.011v-170.552c0-0.004 0-0.008 0-0.012 0-23.564-19.103-42.667-42.667-42.667-0.004 0-0.008 0-0.011 0h0.001c-0.004 0-0.008 0-0.012 0-23.564 0-42.667 19.103-42.667 42.667 0 0.004 0 0.008 0 0.011v170.552c0 0.004 0 0.008 0 0.012 0 23.564 19.103 42.667 42.667 42.667 0.004 0 0.008 0 0.011 0zM63.989 256.003h-0.001c0.004 0 0.008 0 0.012 0 23.564 0 42.667-19.103 42.667-42.667 0-0.004 0-0.008 0-0.011v-170.71c0-0.004 0-0.008 0-0.012 0-23.564-19.103-42.667-42.667-42.667-0.004 0-0.008 0-0.011 0h0.001c-0.004 0-0.008 0-0.012 0-23.564 0-42.667 19.103-42.667 42.667 0 0.004 0 0.008 0 0.011v170.71c0 0.004 0 0.008 0 0.012 0 23.564 19.103 42.667 42.667 42.667 0.004 0 0.008 0 0.011 0zM960.063 127.97h-0.001c0.004 0 0.008 0 0.012 0 23.564 0 42.667-19.103 42.667-42.667 0-0.004 0-0.008 0-0.011v-85.355c0-0.002 0-0.005 0-0.007 0-23.567-19.104-42.671-42.671-42.671-0.002 0-0.005 0-0.007 0h-85.355c-0.004 0-0.008 0-0.012 0-23.564 0-42.667 19.103-42.667 42.667 0 0.004 0 0.008 0 0.011v-0.001c0 0.004 0 0.008 0 0.012 0 23.564 19.103 42.667 42.667 42.667 0.004 0 0.008 0 0.011 0h42.678v42.677c0 0.004 0 0.008 0 0.012 0 23.564 19.103 42.667 42.667 42.667 0.004 0 0.008 0 0.011 0zM362.733 42.614h-0.001c0.004 0 0.008 0 0.012 0 23.564 0 42.667-19.103 42.667-42.667 0-0.004 0-0.008 0-0.011v0.001c0-0.004 0-0.008 0-0.012 0-23.564-19.103-42.667-42.667-42.667-0.004 0-0.008 0-0.011 0h-170.71c-0.004 0-0.008 0-0.012 0-23.564 0-42.667 19.103-42.667 42.667 0 0.004 0 0.008 0 0.011v-0.001c0 0.004 0 0.008 0 0.012 0 23.564 19.103 42.667 42.667 42.667 0.004 0 0.008 0 0.011 0zM703.997 42.614h-0.001c0.004 0 0.008 0 0.012 0 23.564 0 42.667-19.103 42.667-42.667 0-0.004 0-0.008 0-0.011v0.001c0-0.004 0-0.008 0-0.012 0-23.564-19.103-42.667-42.667-42.667-0.004 0-0.008 0-0.011 0h-170.553c-0.004 0-0.008 0-0.012 0-23.564 0-42.667 19.103-42.667 42.667 0 0.004 0 0.008 0 0.011v-0.001c0 0.004 0 0.008 0 0.012 0 23.564 19.103 42.667 42.667 42.667 0.004 0 0.008 0 0.011 0zM360.005 618.578c-9.646-0.651-18.305-4.414-25.094-10.282l0.054 0.046-187.246-160.317 187.246-160.474c7.407-6.358 17.11-10.229 27.717-10.229 12.959 0 24.568 5.777 32.393 14.896l0.048 0.057c6.358 7.407 10.229 17.11 10.229 27.717 0 12.959-5.777 24.568-14.896 32.393l-0.057 0.048-111.497 95.592 111.497 95.592c9.176 7.873 14.953 19.482 14.953 32.441 0 10.607-3.871 20.311-10.277 27.774l0.048-0.057c-7.871 9.14-19.458 14.891-32.387 14.891-0.961 0-1.914-0.032-2.859-0.094l0.128 0.007zM661.898 618.736c-0.138 0.002-0.301 0.003-0.464 0.003-12.963 0-24.576-5.781-32.401-14.906l-0.048-0.057c-6.399-7.419-10.296-17.152-10.296-27.795 0-12.917 5.74-24.493 14.808-32.317l0.055-0.046 111.497-95.592-111.497-95.592c-9.123-7.871-14.863-19.447-14.863-32.363 0-10.643 3.897-20.376 10.342-27.85l-0.047 0.055c7.873-9.176 19.482-14.953 32.441-14.953 10.607 0 20.31 3.871 27.774 10.277l-0.057-0.048 187.089 160.474-187.089 160.317c-7.272 6.318-16.786 10.224-27.209 10.393h-0.035zM573.708 703.934c-18.26-1.015-33.381-13.368-38.504-30.092l-0.080-0.302-128.033-426.62c-1.129-3.65-1.78-7.846-1.78-12.194 0-19.205 12.688-35.446 30.139-40.798l0.302-0.080c3.663-1.137 7.873-1.793 12.237-1.793 19.152 0 35.356 12.618 40.753 29.995l0.081 0.302 128.033 426.777c1.129 3.65 1.78 7.846 1.78 12.194 0 19.205-12.688 35.446-30.139 40.798l-0.302 0.080c-3.662 1.137-7.872 1.792-12.235 1.792-0.793 0-1.58-0.022-2.362-0.064l0.109 0.005z" />
<glyph unicode="&#xe91a;" glyph-name="code" d="M128.033 917.322c-46.537 0-85.355-38.819-85.355-85.355v-768.041c0-46.537 38.819-85.198 85.355-85.198h768.041c46.537 0 85.198 38.661 85.198 85.198v768.041c0 46.537-38.661 85.355-85.198 85.355zM128.033 831.967h768.041v-768.041h-768.041zM360.005 618.578c-9.646-0.651-18.305-4.414-25.094-10.282l0.054 0.046-187.246-160.317 187.246-160.474c7.407-6.358 17.11-10.229 27.717-10.229 12.959 0 24.568 5.777 32.393 14.896l0.048 0.057c6.358 7.407 10.229 17.11 10.229 27.717 0 12.959-5.777 24.568-14.896 32.393l-0.057 0.048-111.497 95.592 111.497 95.592c9.176 7.873 14.953 19.482 14.953 32.441 0 10.607-3.871 20.311-10.277 27.774l0.048-0.057c-7.871 9.14-19.458 14.891-32.387 14.891-0.961 0-1.914-0.032-2.859-0.094l0.128 0.007zM661.898 618.736c-0.138 0.002-0.301 0.003-0.464 0.003-12.963 0-24.576-5.781-32.401-14.906l-0.048-0.057c-6.399-7.419-10.296-17.152-10.296-27.795 0-12.917 5.74-24.493 14.808-32.317l0.055-0.046 111.497-95.592-111.497-95.592c-9.123-7.871-14.863-19.447-14.863-32.363 0-10.643 3.897-20.376 10.342-27.85l-0.047 0.055c7.873-9.176 19.482-14.953 32.441-14.953 10.607 0 20.31 3.871 27.774 10.277l-0.057-0.048 187.089 160.474-187.089 160.317c-7.272 6.318-16.786 10.224-27.209 10.393h-0.035zM573.708 703.934c-18.26-1.015-33.381-13.368-38.504-30.092l-0.080-0.302-128.033-426.62c-1.129-3.65-1.78-7.846-1.78-12.194 0-19.205 12.688-35.446 30.139-40.798l0.302-0.080c3.663-1.137 7.873-1.793 12.237-1.793 19.152 0 35.356 12.618 40.753 29.995l0.081 0.302 128.033 426.777c1.129 3.65 1.78 7.846 1.78 12.194 0 19.205-12.688 35.446-30.139 40.798l-0.302 0.080c-3.662 1.137-7.872 1.792-12.235 1.792-0.793 0-1.58-0.022-2.362-0.064l0.109 0.005z" />
<glyph unicode="&#xe91b;" glyph-name="circle-filled" d="M981.333 448c0-259.206-210.128-469.333-469.333-469.333s-469.333 210.128-469.333 469.333c0 259.206 210.128 469.333 469.333 469.333s469.333-210.128 469.333-469.333z" />
<glyph unicode="&#xe91c;" glyph-name="circle" d="M511.975 917.322c-258.7 0-469.297-210.597-469.297-469.297s210.597-469.297 469.297-469.297c258.7 0 469.297 210.597 469.297 469.297s-210.597 469.297-469.297 469.297zM511.975 831.967c212.583 0 384.099-171.359 384.099-383.942s-171.517-384.099-384.099-384.099c-212.583 0-383.942 171.517-383.942 384.099s171.359 383.942 383.942 383.942z" />
<glyph unicode="&#xe91d;" glyph-name="char" d="M85.355 917.322c-0.002 0-0.004 0-0.007 0-23.567 0-42.671-19.104-42.671-42.671 0-0.002 0-0.005 0-0.007v0-853.239c0-0.002 0-0.004 0-0.007 0-23.567 19.104-42.671 42.671-42.671 0.002 0 0.005 0 0.007 0h853.239c0.002 0 0.004 0 0.007 0 23.567 0 42.671 19.104 42.671 42.671 0 0.002 0 0.005 0 0.007v0 853.239c0 0.002 0 0.004 0 0.007 0 23.567-19.104 42.671-42.671 42.671-0.002 0-0.005 0-0.007 0h-853.239zM128.033 831.967h768.041v-768.041h-768.041v768.041zM651.222 290h-276.667l-27.778-69.444h27.778c27.407 0 46.852-5.37 58.333-16.111 11.852-10.37 17.778-24.074 17.778-41.111 0-16.667-5.926-30.37-17.778-41.111-11.481-10.37-30.926-15.555-58.333-15.555h-153.333c-27.407 0-46.852 5.185-58.333 15.555-11.852 10.741-17.778 24.63-17.778 41.667s6.111 30.926 18.333 41.667c12.222 10.741 32.407 15.741 60.556 15l178.889 445.556h-74.444c-27.407 0-47.037 5.185-58.889 15.556-11.481 10.741-17.222 24.63-17.222 41.667s5.741 30.741 17.222 41.111c11.852 10.741 31.481 16.111 58.889 16.111l246.111-0.556 226.667-559.444c26.667 0 44.259-2.963 52.778-8.889 17.037-12.222 25.556-28.333 25.556-48.333 0-16.667-5.741-30.37-17.222-41.111-11.481-10.37-30.926-15.555-58.333-15.555h-153.333c-27.407 0-47.037 5.185-58.889 15.555-11.481 10.741-17.222 24.63-17.222 41.667 0 16.667 5.741 30.185 17.222 40.556 11.852 10.741 31.481 16.111 58.889 16.111h27.778zM604 403.889l-91.667 225.556-92.222-225.556zM328.508 791.179c-28.801 0-51.259-5.41-66.143-18.898-13.565-12.311-20.63-29.597-20.63-48.977 0-19.433 6.936-36.787 20.473-49.449l0.157-0.157h0.157c14.918-13.054 37.232-18.268 65.985-18.268h58.583l-171.183-426.462c-24.474-0.588-46.056-3.594-59.528-15.433-14.323-12.587-21.89-30.019-21.89-49.607 0-19.511 7.329-36.982 21.26-49.607 14.615-13.2 36.76-18.268 65.513-18.268h153.23c28.753 0 50.898 5.068 65.513 18.268 13.886 12.584 21.26 29.782 21.26 48.977 0 19.51-7.387 36.858-21.418 49.134-14.577 13.481-36.7 18.74-65.355 18.74h-11.969l19.213 48.19h262.208l18.898-48.19h-12.126c-28.801 0-51.259-5.41-66.143-18.898-13.518-12.268-20.63-29.284-20.63-48.347 0-19.433 6.936-36.787 20.473-49.449l0.315-0.315c14.918-13.054 37.232-18.111 65.985-18.111h153.23c28.753 0 50.898 5.068 65.513 18.268h0.157v0.157c13.492 12.621 20.63 29.703 20.63 48.82 0 23.029-10.803 43.18-30.079 57.009v0.157c-11.124 7.738-29.293 8.784-51.182 9.291l-227.247 560.952-253.232 0.472zM328.351 769.919l239.058-0.63 226.617-559.377h7.244c25.791 0 42.155-3.986 46.457-6.929 14.798-10.616 21.103-22.714 21.103-39.686 0-14.217-4.387-24.368-13.858-33.229-8.373-7.505-25.038-12.756-51.024-12.756h-153.23c-25.895 0-42.82 5.15-51.654 12.756-0.038 0.035 0.037 0.122 0 0.157-9.349 8.796-13.858 19.119-13.858 33.701 0 14.217 4.329 24.134 13.701 32.599 8.82 7.993 25.798 13.386 51.812 13.386h43.308l-35.591 90.71h-291.027l-36.378-90.71h43.465c26.014 0 42.792-5.38 51.182-13.229v-0.157l0.157-0.157c9.673-8.464 14.173-18.508 14.173-33.071 0-14.138-4.513-24.332-14.331-33.229-8.348-7.54-25.12-12.756-51.182-12.756h-153.23c-26.062 0-42.833 5.216-51.182 12.756-9.772 8.856-14.331 19.295-14.331 33.859 0 14.486 4.682 24.649 14.803 33.544 9.081 7.98 26.477 13.145 53.229 12.441l7.402-0.157 187.404 467.092h-90.080c-25.988 0-43.005 5.262-51.812 12.914-9.241 8.765-13.701 19.043-13.701 33.544 0 14.641 4.376 24.806 13.701 33.229 8.795 7.971 25.766 13.356 51.654 13.386zM512.29 657.634l-108.033-264.413h215.593l-5.984 14.646-101.576 249.767zM512.29 601.255l75.906-186.774h-152.285l76.379 186.774z" />
<glyph unicode="&#xe91e;" glyph-name="brush-square" d="M170.667 533.333v-85.333c0-21.333 21.333-42.667 42.667-42.667h128c42.667 0 85.333-42.667 85.333-85.333l-35.75-214.583c-4.57-13.331-6.907-27.324-6.917-41.417 0-70.692 57.308-128 128-128s128 57.308 128 128c-0.001 14.12-2.338 28.143-6.917 41.5l-35.75 214.5c0 42.667 42.667 85.333 85.333 85.333h128c21.333 0 42.667 21.333 42.667 42.667v85.333zM510.917 106.667h0.042c0.348 0.004 0.694 0.004 1.042 0 23.564 0 42.667-19.103 42.667-42.667-0.008-22.169-16.993-40.638-39.083-42.5-0.845-0.081-1.693-0.137-2.542-0.169-0.348-0.004-0.694-0.004-1.042 0-23.564 0-42.667 19.103-42.667 42.667-0.007 23.147 18.443 42.079 41.583 42.667zM170.667 960v-384h682.667v384h-173.333l-18.667-192-18.667 192h-200l-16-106.667-16 106.667z" />
<glyph unicode="&#xe91f;" glyph-name="brush-circle" d="M170.667 533.333v-85.333c0-21.333 21.333-42.667 42.667-42.667h128c42.667 0 85.333-42.667 85.333-85.333l-35.75-214.583c-4.57-13.331-6.907-27.324-6.917-41.417 0-70.692 57.308-128 128-128s128 57.308 128 128c-0.001 14.12-2.338 28.143-6.917 41.5l-35.75 214.5c0 42.667 42.667 85.333 85.333 85.333h128c21.333 0 42.667 21.333 42.667 42.667v85.333zM510.917 106.667h0.042c0.348 0.004 0.694 0.004 1.042 0 23.564 0 42.667-19.103 42.667-42.667-0.008-22.169-16.993-40.638-39.083-42.5-0.845-0.081-1.693-0.137-2.542-0.169-0.348-0.004-0.694-0.004-1.042 0-23.564 0-42.667 19.103-42.667 42.667-0.007 23.147 18.443 42.079 41.583 42.667zM512 960c-33.99-0.010-66.814-4.987-97.791-14.245l2.416 0.62-11.292-135.708-10.708 128.5c-131.804-49.269-223.951-174.123-223.958-320.499v-42.668h682.667v42.667c-0.016 127.126-69.526 238.013-172.61 296.743l-1.682 0.882-17.708-212.292-19.167 230.208c-38.47 16.311-83.208 25.792-130.161 25.792-0.002 0-0.004 0-0.006 0v0z" />
<glyph unicode="&#xe920;" glyph-name="text-bare" d="M386.119 319.042h-198.458l-19.926-53.649h19.926c19.66 0 33.608-4.149 41.844-12.447 8.502-8.012 12.752-18.598 12.752-31.76 0-12.876-4.251-23.463-12.752-31.76-8.236-8.012-22.184-12.017-41.844-12.017h-109.989c-19.66 0-33.608 4.006-41.844 12.017-8.502 8.298-12.752 19.028-12.752 32.189s4.384 23.892 13.151 32.189c8.767 8.298 23.246 12.16 43.438 11.588l128.32 344.212h-53.4c-19.66 0-33.741 4.006-42.242 12.017-8.236 8.298-12.354 19.028-12.354 32.189s4.118 23.749 12.354 31.76c8.502 8.298 22.582 12.447 42.242 12.447l176.54-0.43 162.592-432.197c19.128 0 31.748-2.289 37.858-6.867 12.221-9.442 18.331-21.889 18.331-37.34 0-12.876-4.118-23.463-12.354-31.76-8.236-8.012-22.184-12.017-41.844-12.017h-109.989c-19.66 0-33.741 4.006-42.242 12.017-8.236 8.298-12.354 19.028-12.354 32.189 0 12.876 4.118 23.319 12.354 31.331 8.502 8.298 22.582 12.447 42.242 12.447h19.926zM352.246 407.026l-65.754 174.252-66.153-174.252zM154.579 709.014c-20.993 0-37.742-4.265-49.143-15.393-10.298-10.018-15.663-24.223-15.663-39.853s5.462-29.787 15.663-40.064v-0.211l0.195-0.211c11.435-10.776 28.001-14.761 48.948-14.761h38.179l-120.998-324.52c-16.807-0.752-32.434-2.691-42.291-12.019-10.776-10.199-16.642-24.486-16.642-40.275 0-15.71 5.564-30.247 16.055-40.486h0.195c11.232-10.927 27.609-14.76 48.556-14.76h110.034c20.947 0 37.519 3.834 48.752 14.76 10.447 10.197 16.055 24.584 16.055 40.064 0 15.609-5.6 29.676-16.055 39.642-0.041 0.042-0.154-0.042-0.195 0-11.192 11.183-27.641 15.393-48.556 15.393h-4.895l11.747 31.63h184.63l11.552-31.63h-4.895c-20.993 0-37.742-4.054-49.143-15.182-10.253-9.974-15.663-24.033-15.663-39.432 0-15.63 5.266-29.997 15.467-40.275l0.195-0.211c11.434-10.776 28.197-14.76 49.143-14.76h109.838c20.947 0 37.519 3.834 48.752 14.76v0.211h0.195c10.158 10.235 15.467 24.455 15.467 39.853 0 18.571-8.153 35.082-22.516 46.179h-0.195c-8.469 6.345-21.43 6.918-36.221 7.38l-163.093 433.748zM154.579 687.084l169.75-0.422 162.506-432.272h6.853c18.263 0 29.798-3.328 31.914-4.85 10.079-7.788 14.097-15.925 14.097-28.256 0-10.242-2.834-17.31-9.006-23.617-0.028-0.027-0.167 0.027-0.195 0-5.276-5.059-16.574-9.278-34.851-9.278h-109.838c-18.278 0-29.836 4.070-35.438 9.278h-0.195c-6.134 6.27-8.811 13.457-8.811 24.039 0 10.353 2.788 16.935 9.006 22.984v0.211c5.602 5.468 17.111 9.489 35.438 9.489h34.851l-27.606 75.7h-212.236l-28.194-75.7h35.046c18.327 0 29.572-4.171 34.851-9.489h0.195v-0.211c6.418-6.048 9.398-12.792 9.398-23.406 0-10.271-2.842-17.218-9.398-23.617-5.239-5.097-16.673-9.278-35.046-9.278h-110.034c-18.373 0-29.807 4.181-35.046 9.278-6.513 6.357-9.398 13.424-9.398 24.039 0 10.535 3.031 17.431 9.789 23.828 5.763 5.454 17.561 9.391 36.417 8.856l7.048-0.211 136.661 366.482h-68.526c-18.277 0-29.64 4.070-35.242 9.278h-0.195c-6.133 6.268-9.007 13.247-9.007 23.827 0 10.694 2.833 17.611 9.006 23.617 5.602 5.468 17.111 9.7 35.438 9.7zM286.541 610.329l-81.449-214.238h162.31l-5.678 14.971zM286.346 552.131l50.71-134.11h-101.615zM673.047 734.071v-197.429c19.926 14.020 40.117 24.464 60.574 31.331 20.723 7.153 41.578 10.73 62.566 10.73 56.588 0 104.542-21.030 143.862-63.091s58.979-92.849 58.979-152.363c0-56.94-18.73-104.58-56.19-142.921-37.46-38.055-86.875-57.083-148.246-57.083-21.785 0-42.773 3.004-62.965 9.013s-39.718 14.879-58.581 26.61v-21.46h-95.642c-19.66 0-33.741 4.006-42.242 12.017-8.236 8.298-12.354 19.028-12.354 32.189 0 12.876 4.251 23.319 12.752 31.331 8.502 8.298 22.449 12.447 41.844 12.447h13.948v380.694h-13.948c-19.66 0-33.741 4.006-42.242 12.017-8.236 8.298-12.354 19.028-12.354 32.189 0 12.876 4.118 23.319 12.354 31.331 8.502 8.298 22.582 12.447 42.242 12.447zM917.333 360.673c0 36.338-11.823 67.097-35.467 92.276s-52.603 37.769-86.875 37.769c-34.006 0-62.832-12.59-86.477-37.769s-35.467-55.509-35.467-90.989c0-32.333 10.627-58.942 31.881-79.83 21.254-20.601 51.275-30.902 90.063-30.902s68.809 10.301 90.063 30.902c21.52 20.887 32.279 47.068 32.279 78.542zM577.485 745.071c-20.993 0-37.742-4.265-49.143-15.393-10.253-9.974-15.663-24.033-15.663-39.432 0-15.63 5.266-29.787 15.467-40.064l0.391-0.421c11.434-10.776 28.001-14.76 48.947-14.76h3.72v-358.68h-3.72c-20.668 0-37.198-4.185-48.556-15.182-10.539-9.933-16.25-23.952-16.25-39.432 0-15.63 5.266-29.997 15.467-40.275l0.196-0.211h0.195c11.434-10.776 28.001-14.76 48.947-14.76h105.727v16.026c14.953-8.020 29.847-16.182 45.619-20.876 21.099-6.279 43.129-9.278 65.785-9.278 63.329 0 115.778 19.986 155.261 60.096 39.288 40.212 59.324 91.233 59.324 150.768 0 62.121-20.843 116.37-61.87 160.257-41.056 43.918-92.215 66.211-151.15 66.211-22.064 0-43.914-3.694-65.59-11.176-16.102-5.405-31.735-14.914-47.381-24.46v191.043h-10.181zM577.485 723.142h85.364v-206.858l15.859 11.176c19.226 13.528 38.482 23.406 57.954 29.943v0.211c19.769 6.824 39.608 10.121 59.52 10.121 54.242 0 99.078-19.682 136.661-59.885 37.613-40.235 55.996-87.744 55.996-144.653 0-54.345-17.427-98.483-53.059-134.953-35.437-36-81.752-53.981-141.164-53.981-20.914 0-41.020 2.907-60.303 8.645-19.334 5.754-38.041 14.226-56.192 25.515l-15.272 9.489v-29.521h-85.364c-18.278 0-29.836 4.070-35.438 9.278h-0.195c-6.134 6.269-8.811 13.457-8.811 24.039 0 10.271 2.739 16.893 9.202 22.984h0.195v0.211c5.641 5.506 17.003 9.489 35.046 9.489h24.082v402.751h-24.082c-18.278 0-29.836 4.070-35.438 9.278h-0.195c-6.133 6.269-8.811 13.247-8.811 23.828 0 10.353 2.788 17.146 9.006 23.195 5.602 5.468 17.111 9.7 35.438 9.7zM795.007 501.734c-36.344 0-68.204-13.877-93.588-40.908-25.349-26.993-38.571-60.787-38.571-98.895 0-34.925 12.052-65.14 35.242-87.93 23.548-22.825 56.451-33.738 96.916-33.738s73.368 10.914 96.916 33.738c23.413 22.725 35.634 52.494 35.634 86.665 0 38.905-13.181 73.123-38.571 100.16-25.397 27.045-57.387 40.908-93.979 40.908zM795.007 479.804c31.952 0 57.794-11.269 79.686-34.582 21.9-23.321 32.501-50.785 32.501-84.557 0-28.777-9.351-51.379-28.977-70.429-18.96-18.378-46.099-28.045-83.211-28.045s-64.251 9.667-83.211 28.045c-19.318 18.985-28.585 41.954-28.585 71.694 0 32.851 10.56 59.926 32.501 83.291 21.906 23.328 47.627 34.582 79.295 34.582z" />
</font>
</defs>
</svg>
